<?xml version="1.0" encoding="utf-8"?>
<!-- Generator: Adobe Illustrator 25.4.0, SVG Export Plug-In . SVG Version: 6.00 Build 0)  -->
<svg version="1.1" id="Layer_1" xmlns="http://www.w3.org/2000/svg" xmlns:xlink="http://www.w3.org/1999/xlink" x="0px" y="0px"
	 viewBox="0 0 220.54 158.02" style="enable-background:new 0 0 220.54 158.02;" xml:space="preserve">
<style type="text/css">
	.st0{fill-rule:evenodd;clip-rule:evenodd;fill:#FFFFFF;}
	.st1{fill-rule:evenodd;clip-rule:evenodd;fill:#6F00FF;}
	.st2{fill-rule:evenodd;clip-rule:evenodd;fill:#FFDB29;}
	.st3{fill-rule:evenodd;clip-rule:evenodd;}
</style>
<path class="st0" d="M41.33,158.02c-0.67,0-4.13-0.07-6.38-1.48l-0.38-0.24l-0.31-0.33c-0.75-0.8-1.34-1.47-1.82-2.08
	c-1.11-1.38-1.78-2.6-2.19-3.95c-0.47-1.56-0.47-2.96-0.4-4.23c0.06-1.09,0.2-2.42,0.44-4.19c0.22-1.58,0.52-3.52,0.97-6.29
	c0.55-3.37,1.05-5.78,1.41-7.55c1.04-5.1,1.06-5.2-0.81-12.63c-0.31-1.23-0.33-2.26-0.15-3.14c-1.01,0.28-2.07,0.47-3.17,0.57
	c-0.62,0.06-1.28,0.09-1.94,0.09c-1.53,0-3.18-0.15-4.9-0.45c-3.4-0.58-6.16-1.57-7.19-1.97c-2-0.77-3.51-1.63-4.47-2.57
	c-0.72-0.7-1.25-1.49-1.58-2.36l-1.22-3.18l0.96-0.4c0.25-1.02,0.77-1.97,1.55-2.78c1.03-1.05,2.32-1.66,3.77-1.8
	c0.22-0.02,0.44-0.03,0.65-0.03c0.99,0,1.76,0.23,2.38,0.42c0.39,0.11,0.82,0.25,1.28,0.28c0.1,0.01,0.22,0.01,0.33,0.01
	c0.46,0,0.99-0.05,1.48-0.15c0.46-0.09,0.81-0.19,1.02-0.28c-0.01-0.05-0.03-0.1-0.04-0.16c-0.1-0.33-0.36-0.9-0.96-1.74
	c-0.72-0.99-1.92-2.34-3.31-3.9c-1.46-1.64-3.09-3.47-4.94-5.76c-2.53-3.15-4.68-6.2-6.38-9.08c-1.79-3.03-3.1-5.9-3.9-8.53
	c-0.9-2.97-1.27-6.03-1.09-9.09c0.17-3.07,0.89-6.07,2.13-8.93c1.02-2.36,2.31-4.43,3.95-6.34c1.42-1.66,3.09-3.18,5.09-4.65
	c1.98-1.45,4.04-2.66,6.11-3.59c2.46-1.1,4.99-1.84,7.53-2.17c1.17-0.16,2.39-0.23,3.62-0.23c1.47,0,2.97,0.11,4.45,0.34
	c2.72,0.41,5.41,1.2,7.77,2.29c1.91,0.88,3.79,2.03,5.42,3.34c0.64,0.51,1.24,1.04,1.78,1.58c0.25-0.17,0.51-0.34,0.76-0.51
	c1.72-1.13,3.44-2.11,5.12-2.91c2.26-1.08,4.52-1.88,6.89-2.44c2.56-0.6,5.18-0.91,8.04-0.94l0.4,0c2.39,0,5.13,0.2,8.38,0.61
	c3.01,0.38,5.96,0.87,8.81,1.35c5.66,0.94,10.92,1.82,15.63,1.88l0.53,0c1.93,0,3.86-0.14,5.73-0.41c2.03-0.29,3.89-0.72,5.55-1.27
	c1.44-0.48,2.69-1.05,3.95-1.81l0.42-0.25c1.17-0.74,2.42-1.67,4-2.99c2.27-1.89,5.2-4.58,8.3-7.42c1.76-1.61,3.54-3.25,5.21-4.76
	c3.23-2.91,5.74-5.07,8.13-6.99c3.15-2.53,5.93-4.51,8.51-6.06c2.88-1.72,5.7-3.02,8.62-3.96c2.78-0.9,5.56-1.45,8.48-1.68
	c1.03-0.08,2.08-0.12,3.14-0.12c1.54,0,3.12,0.08,4.71,0.25c2.66,0.28,5.34,0.8,7.96,1.54c2.38,0.67,4.62,1.48,6.83,2.49
	c2.08,0.95,4.13,2.05,6.25,3.39c1.73,1.08,3.5,2.32,5.28,3.66c1.77,1.34,3.52,2.78,4.93,4.08c0.72,0.66,1.33,1.26,1.85,1.82
	l10.22,5.18l-1.42,3.07c-1.68,3.63-4.32,4.11-6.33,4.23c-0.2,0.75-0.44,1.61-0.79,2.52c-0.48,1.26-1.05,2.35-1.75,3.31
	c-0.58,0.8-1.19,1.43-1.72,1.98c-0.19,0.2-0.45,0.47-0.59,0.64c-0.05,0.19-0.12,0.5-0.16,0.69c-0.2,0.93-0.45,2.09-1.1,3.37
	c-0.62,1.24-1.32,2.05-2.01,2.83c-0.47,0.55-0.96,1.11-1.54,2.04c-0.55,0.89-1.18,2.11-1.83,3.53c-0.7,1.52-1.39,3.21-1.89,4.63
	c-0.4,1.12-0.67,2.05-0.9,2.88c-0.01,0.04-0.02,0.08-0.03,0.12l0.36,0.2l-1.52,3c-0.74,1.44-1.77,2.62-3.08,3.5
	c-1.19,0.8-2.54,1.31-4.13,1.57c-0.75,0.12-1.54,0.18-2.35,0.18c-0.63,0-1.27-0.04-1.89-0.11c-1.46-0.17-2.84-0.54-4.1-1.09
	c-1.31-0.57-2.56-1.37-3.69-2.39c-0.82-0.73-1.59-1.57-2.36-2.58c-0.03-0.04-0.06-0.08-0.09-0.12c-0.38,1.18-0.72,2.11-1,2.87
	c-0.08,0.22-0.16,0.43-0.23,0.64c0.79,1.22,1.87,2.87,2.42,5.11c0.34,1.41,0.44,2.9,0.3,4.56c-0.06,0.67-0.14,1.29-0.24,1.86
	c0.47,0.24,1.03,0.51,1.66,0.79c1.06,0.47,2.26,0.96,3.56,1.44c1.28,0.48,2.66,0.95,4.11,1.4c0.66,0.21,1.41,0.43,2.13,0.65
	c2.35,0.7,4.37,1.31,5.99,2.18c1.54,0.83,2.69,1.91,3.42,3.21c0.48,0.86,0.77,1.77,0.85,2.72c0.54,2.33,0.76,6.93-2.81,13.53
	c-0.55,1.28-1.37,2.45-2.42,3.79c-0.9,1.14-2.35,2.86-3.4,4.1c-1.58,1.85-3.14,3.64-4.17,4.79c-1.15,1.27-2.12,2.32-3.4,3.12
	c-1.54,0.97-2.91,1.28-4.63,1.48c-0.97,0.11-2.3,0.21-4.2,0.32c-1.43,0.08-3.24,0.16-5.05,0.25c-0.1,0.01-0.19,0.01-0.29,0.01h0
	c-3.08,0-5.29-2.9-5.57-5.59c-0.31-3.01,1.59-5.47,4.73-6.13l0.28-0.06l0.28-0.01c1.65-0.08,3.31-0.15,4.96-0.25
	c1.51-0.08,2.62-0.17,3.4-0.25c0.26-0.27,0.56-0.61,0.71-0.78c1.22-1.36,2.74-3.1,3.96-4.54c1.41-1.65,1.69-2.79,1.7-3.21
	c-0.12-0.03-0.31-0.06-0.57-0.06c-0.12,0-0.24,0.01-0.37,0.02c-1.44,0.25-2.71,0.4-4,0.48c-0.57,0.04-1.15,0.05-1.73,0.05
	c-0.9,0-1.8-0.04-2.73-0.13c-1.59-0.15-3.19-0.41-4.88-0.81c-1.37-0.32-3.02-0.79-4.78-1.35c-1.35-0.43-2.68-0.89-3.85-1.34
	c-0.53,1.53-1.12,3.27-1.71,5.05c-0.56,1.69-1.2,3.62-1.87,5.71c-0.55,1.69-1.07,3.33-1.53,4.8l-0.61,1.97
	c-0.68,2.22-1.22,3.98-1.78,5.34c-1.44,3.49-1.91,5.39-2.33,7.06c-0.19,0.76-0.37,1.49-0.62,2.27c-1.19,3.75-2.95,9.33-2.81,13.32
	c0.26,0.33,0.61,0.77,1.14,1.37c0.61,0.69,1.37,1.51,2.08,2.24l0.66,0.66c1.24,1.24,2.22,2.22,3.03,4.47
	c0.29,0.8,0.55,1.76,0.82,3.02l0.04,0.18c0.29,1.16,0.06,2.36-0.65,3.33c-0.64,0.88-1.96,1.92-4.58,1.92
	c-0.89,0-3.93-0.15-5.68-2.07l-0.61-0.67l-0.21-0.88c-0.06-0.27-0.11-0.46-0.15-0.59c-0.1-0.1-0.22-0.22-0.36-0.36l-1.03-1.03v-0.03
	c-0.73-0.76-1.51-1.6-2.2-2.38c-0.9-1.02-1.61-1.88-2.1-2.55c-1.01-1.39-1.72-2.77-1.92-4.96c-0.12-1.36,0-2.85,0.23-5.14
	c0.45-4.57,0.83-7.25,1.09-9.02c0.32-2.19,0.32-2.19-0.26-3.59c-0.52-1.27-1.3-3.18-2.44-6.61c-0.45-1.34-0.77-3.03-1.12-5.82
	c-0.27-2.19-0.61-5.58-0.94-8.85l-0.01-0.11c-0.26-2.59-0.5-5.04-0.75-7.08c-0.02-0.12-0.03-0.23-0.04-0.34
	c-0.15,0.03-2.18,0.4-2.49,0.46c-1.8,0.31-3.35,0.54-4.91,0.71c-2.04,0.23-4.03,0.35-5.9,0.37l-0.29,0c-2,0-3.97-0.13-6.02-0.38
	c-2.13-0.27-4.33-0.68-6.54-1.23c-1.72-0.42-3.52-0.95-5.27-1.45c-0.87-0.25-1.74-0.51-2.54-0.72c-0.04,0.84-0.08,1.69-0.13,2.37
	c-0.1,1.38-0.27,2.78-0.52,4.3c-0.24,1.46-0.52,2.91-0.88,4.42c-0.22,0.94-0.55,2.2-0.87,3.42c-0.43,1.65-0.82,3.15-1.03,4.3
	c-0.17,0.93-0.25,1.82-0.32,2.61c-0.07,0.85-0.14,1.64-0.32,2.54c-1.64,8.5-0.46,11.22,3.05,19.31l0.53,1.23
	c0.47,1.08,0.77,1.73,0.97,2.13c0.35,0.13,0.77,0.29,1.21,0.45c1.4,0.52,2.97,1.1,4.31,1.74c1.26,0.6,2.28,1.24,3.21,2.02
	c0.91,0.76,1.67,1.59,2.39,2.62c0.73,1.05,1.81,3.03,2.52,4.36c0.86,1.05,1.14,2.4,0.71,3.65c-0.44,1.29-1.67,2.83-5.07,2.83
	c-0.78,0-3.49-0.1-5.71-1.38l-0.88-0.51l-0.47-0.9c-0.31-0.58-0.56-1.01-0.77-1.32c-0.17-0.24-0.24-0.3-0.24-0.31
	c-0.01-0.01-0.19-0.15-0.75-0.42c-0.85-0.4-2.18-0.9-3.34-1.33c-0.7-0.26-1.36-0.5-2.01-0.77c-1.4-0.57-2.78-1.24-4.21-3.11
	c-0.94-1.23-1.73-2.86-2.69-5.1c-0.75-1.73-1.84-4.4-3.44-8.38c-2.15-3.42-3.53-4.86-4.75-6.13c-1.51-1.57-2.93-3.05-4.74-6.77
	c-0.3-0.61-0.73-1.57-1.02-2.84c-0.28-1.22-0.37-2.47-0.28-3.82c0.1-1.44,0.42-2.94,0.75-4.53c0.15-0.73,0.31-1.5,0.49-2.47
	c0.21-1.2,0.38-2.39,0.47-3.44c0.1-1.08,0.15-2.09,0.14-2.92c-0.01-0.72-0.06-1.31-0.17-1.8c-0.08-0.37-0.19-0.67-0.35-0.97
	c-0.14-0.26-0.41-0.7-0.94-1.34c-0.14-0.17-0.29-0.35-0.45-0.53c-0.1,0.09-0.21,0.18-0.32,0.27c-0.81,0.68-1.56,1.38-2.23,2.09
	c-1.72,1.81-3.42,4.17-5.21,6.65l-0.33,0.45c-1.12,1.55-2.08,2.86-3.1,4.21c-1.21,1.6-2.27,2.9-3.22,3.99
	c-1.35,1.55-2.98,3.01-4.56,4.42c-2.02,1.81-4.11,3.68-5.19,5.39c-1.27,2.01-3.15,6.14-4.87,18.7c-0.19,1.41-0.31,2.47-0.34,3.22
	c0,0.07-0.01,0.13-0.01,0.19c0.01,0.01,0.01,0.02,0.02,0.02c0.86,1.07,2.7,2.9,4.36,4.53l0.26,0.26l0.2,0.3
	c0.82,1.24,0.9,2.73,0.22,4C45.4,158.02,42.33,158.02,41.33,158.02 M132.79,83.77c1.36,0,2.64,0.25,3.8,0.75
	c0.97,0.42,1.83,0.99,2.64,1.77c0.82,0.78,1.65,1.77,2.24,3.77c0.32,1.08,0.58,2.56,0.85,4.8c0.2,1.68,0.48,4.4,0.76,7.28l0.01,0.12
	c0.15,1.54,0.31,3.08,0.46,4.56c0.42-1.35,0.89-2.83,1.4-4.38c0.54-1.66,1.19-3.65,1.91-5.8c0.62-1.88,1.24-3.71,1.8-5.3l0.2-0.57
	c1.78-5.13,1.97-5.67,4.44-8.4c0.84-0.93,1.99-2.2,3.79-4.4l0.42-0.51l0.57-0.33c1.05-0.59,2.2-0.91,3.33-0.91
	c1.12,0,2.2,0.31,3.12,0.87l0.54-2.7c0.12-0.58,0.23-1.21,0.28-1.76c0.05-0.58,0.01-0.8,0.01-0.81c-0.09-0.28-0.58-1.03-0.84-1.44
	c-0.29-0.45-0.57-0.87-0.82-1.33c-0.71-1.26-1.12-2.49-1.26-3.77c-0.13-1.2-0.03-2.36,0.33-3.68c0.21-0.77,0.47-1.49,0.78-2.32
	c0.31-0.86,0.65-1.78,1.01-2.92c0.41-1.31,0.74-2.58,0.99-3.79c0.31-1.51,0.51-2.92,0.56-4.19c0.12-2.63-0.27-5.48-0.59-7.77
	l-0.11-0.8c-0.22-1.66-0.34-2.77-0.38-3.71c-0.07-1.58,0.05-2.84,0.38-3.98c0.52-1.75,1.45-3.1,2.95-4.24
	c0.84-0.64,1.76-1.13,2.98-1.76c1.47-0.75,2.63-1.33,3.56-1.77c1.61-0.76,2.86-1.29,3.84-1.62c1.05-0.35,2.01-0.52,2.94-0.52
	c1.5,0,2.89,0.47,4.01,1.36c1.1,0.87,3.49,3.37,1.82,7.66c-0.37,0.96-0.85,1.79-1.36,2.68l-0.1,0.17c-0.23,0.4-0.46,0.81-0.64,1.14
	c-0.26,0.5-0.45,0.92-0.58,1.29c-0.05,0.13-0.08,0.23-0.09,0.3c0.12,0.38,0.43,1.03,0.65,1.48l0.56,1.14
	c0.87,1.73,1.87,3.72,2.4,5.56c0.45,1.56,0.59,3.06,0.41,4.47c-0.06,0.44-0.14,0.87-0.26,1.29c0.58-1.56,1.32-3.35,2.08-5.01
	c0.9-1.96,1.74-3.58,2.49-4.8c1.04-1.68,1.99-2.78,2.69-3.58c0.13-0.15,0.25-0.28,0.34-0.4c0.04-0.18,0.09-0.41,0.13-0.58
	c0.22-0.99,0.49-2.22,1.16-3.55c0.78-1.53,1.8-2.59,2.62-3.44c0.25-0.26,0.56-0.58,0.68-0.74c0.05-0.07,0.14-0.22,0.27-0.55
	c0.17-0.45,0.33-1.02,0.46-1.52c0.12-0.45,0.23-0.88,0.3-1.25c-0.23-0.27-0.6-0.64-1.2-1.19c-1.08-0.99-2.54-2.18-4.1-3.36
	c-1.54-1.17-3.04-2.21-4.44-3.09c-1.64-1.03-3.22-1.89-4.83-2.62c-1.68-0.76-3.36-1.38-5.15-1.88c-2-0.56-4.03-0.95-6.03-1.16
	c-1.15-0.12-2.3-0.18-3.41-0.18c-0.77,0-1.53,0.03-2.27,0.09c-2.03,0.16-3.92,0.53-5.79,1.13c-2.05,0.66-4.07,1.6-6.18,2.86
	c-2.1,1.25-4.44,2.93-7.17,5.13c-2.17,1.74-4.52,3.77-7.62,6.57c-1.84,1.66-3.5,3.18-5.09,4.64c-3.13,2.88-6.09,5.59-8.78,7.83
	c-1.02,0.85-1.95,1.58-2.83,2.24l0.1,0.16l-3.14,1.9c-1.98,1.19-3.99,2.11-6.33,2.89c-2.36,0.79-4.91,1.38-7.59,1.77
	c-2.39,0.34-4.86,0.52-7.37,0.52c-0.24,0-0.48,0-0.72-0.01c-5.62-0.08-11.3-1.02-17.3-2.01l-0.11-0.02
	c-2.67-0.44-5.69-0.95-8.37-1.29c-2.76-0.35-5.02-0.52-6.9-0.52l-0.29,0c-1.92,0.02-3.7,0.23-5.44,0.64c-1.52,0.36-3,0.89-4.52,1.61
	c-1.21,0.58-2.47,1.29-3.73,2.12c-1.31,0.86-2.65,1.86-3.88,2.89c-0.86,0.72-1.49,1.31-1.98,1.85c-0.45,0.5-0.83,1.01-1.26,1.7
	c-0.53,0.84-0.91,1.58-1.2,2.33c-0.37,0.97-0.61,1.97-0.71,3.07c-0.12,1.27-0.1,2.85,0.08,4.57c0.18,1.83,0.52,3.72,0.97,5.47
	c0.5,1.93,1.2,3.82,1.88,5.65c0.54,1.45,1.09,2.94,1.63,4.69c0.64,2.06,1.2,4.3,1.61,6.49c0.42,2.21,0.69,4.36,0.78,6.22
	c0.09,1.86,0.02,3.58-0.23,5.24c0.17-0.24,1.57-2.18,1.92-2.66c2.59-3.63,4.64-6.49,8.55-9.59l0.96-0.76h0.02
	c0.96-0.73,1.82-1.36,2.6-1.88l2.91-1.94l0.07,0.11c0.07-0.04,0.15-0.08,0.22-0.13c1.02-0.6,1.99-1.16,2.93-1.82
	c0.89-0.61,1.58-1.19,2.17-1.8c0.66-0.69,1.18-1.42,1.6-2.25c0.48-0.94,0.93-2.22,1.39-3.9c0.46-1.72,0.85-3.55,1.27-5.5l0.13-0.63
	l0.35-0.54c1.33-2.06,3.31-3.24,5.43-3.24c3.19,0,5.7,2.7,5.7,6.14v0.37l-0.08,0.36c-0.43,2.02-0.87,4.11-1.41,6.12
	c-0.3,1.09-0.6,2.09-0.93,3.02c0.38,0.13,0.75,0.25,1.11,0.35c2.59,0.75,9.49,2.42,14.06,3.53c1.35,0.33,2.54,0.61,3.41,0.83
	c1.77,0.43,3.46,0.76,5.04,0.97l0.16,0.02c1.56,0.2,3.05,0.29,4.56,0.29l0.22,0c1.38-0.01,2.95-0.11,4.65-0.3
	c1.28-0.15,2.65-0.35,4.21-0.62c1.06-0.18,1.48-0.26,1.88-0.34C129.87,84.05,131.38,83.77,132.79,83.77 M80.89,90.39
	c0.76,0.96,1.39,1.92,1.89,2.85c0.69,1.29,1.18,2.62,1.49,4.07c0.04,0.2,0.08,0.41,0.12,0.62c0.14-0.92,0.24-1.83,0.3-2.76
	c0.07-0.93,0.1-1.65,0.13-2.34c0.03-0.67,0.05-1.32,0.1-1.95c-1.13-0.38-2.16-0.79-3.13-1.2C81.5,89.91,81.2,90.15,80.89,90.39
	 M22.15,46.3c-1.3,0.58-2.64,1.37-3.96,2.35c-1.27,0.93-2.29,1.85-3.1,2.8c-0.87,1.02-1.56,2.11-2.09,3.35
	c-0.68,1.58-1.08,3.23-1.17,4.91c-0.09,1.66,0.11,3.35,0.62,5.01c0.53,1.74,1.45,3.74,2.75,5.95c1.42,2.4,3.23,4.98,5.41,7.68
	c1.6,1.98,3.17,3.75,4.56,5.31c1.57,1.76,2.93,3.28,4.07,4.86c1.25,1.74,2.12,3.4,2.65,5.07c0.07,0.22,0.14,0.45,0.19,0.67
	c0-0.02,0-0.04,0-0.06c0.1-1.82-0.08-3.77-0.55-5.81c-0.46-2.02-1.25-4.33-2.41-7.07c-1.06-2.5-2.43-5.31-3.64-7.78l-0.08-0.17
	c-2.76-5.64-5.35-10.96-5.97-15.73c-0.34-2.57-0.11-5.02,0.68-7.3c0.52-1.49,1.26-2.87,2.2-4.11C22.24,46.26,22.2,46.28,22.15,46.3
	 M167.19,85.39c1.36,0.43,2.71,0.81,3.89,1.09c0.93,0.22,1.76,0.38,2.54,0.48c-1.43-0.64-2.67-1.28-3.69-1.9
	c-1.09-0.66-1.98-1.33-2.69-2.02c-0.11,0.62-0.32,1.23-0.64,1.81l-0.17,0.3C166.69,85.23,166.94,85.31,167.19,85.39 M35.05,51.92
	c-0.67,0-1.24,0.09-1.74,0.28c-0.45,0.16-0.85,0.41-1.21,0.73c-0.42,0.38-0.71,0.8-0.87,1.26c-0.18,0.53-0.23,1.18-0.13,1.93
	c0.27,2.07,1.58,5.17,3.15,8.47c-0.04-1.37,0-2.66,0.12-3.85c0.21-2.15,0.7-4.23,1.45-6.18c0.32-0.82,0.68-1.62,1.1-2.42
	C36.25,52.01,35.61,51.93,35.05,51.92L35.05,51.92z M186.33,54.61c0.06,0.04,0.11,0.06,0.15,0.08c0.06,0.03,0.28,0.11,0.69,0.17
	c0.23-0.81,0.5-1.74,0.9-2.9c-0.2,0.46-0.45,0.91-0.73,1.35C187.04,53.76,186.71,54.19,186.33,54.61"/>
<path class="st1" d="M180.78,49.37l0.03,0.03l-0.44,0.39c-0.29,0.26-0.62,0.5-0.93,0.73l-0.02,0.01c-1.2,0.89-2.08,1.58-2.18,3.2
	c-0.04,0.76,0.19,1.52,0.51,2.2c0.35,0.75,0.83,1.46,1.33,2.11c0.55,0.72,1.15,1.4,1.83,2.01c0.78,0.69,1.64,1.27,2.6,1.69
	c0.93,0.4,1.94,0.66,2.95,0.78c1.01,0.12,2.09,0.12,3.1-0.05c0.89-0.14,1.74-0.42,2.49-0.92c0.66-0.45,1.17-1.01,1.57-1.68
	l0.15-0.29c0.42-0.82,0.66-1.69,0.91-2.57c0.3-1.06,0.61-2.1,0.98-3.13c0.6-1.68,1.29-3.34,2.03-4.96c0.62-1.34,1.29-2.71,2.07-3.97
	c0.58-0.95,1.21-1.75,1.94-2.58c0.55-0.64,1.05-1.22,1.43-1.98c0.39-0.78,0.57-1.56,0.76-2.41c0.12-0.54,0.25-1.2,0.5-1.69
	c0.29-0.57,0.85-1.13,1.3-1.59c0.48-0.5,0.96-1,1.37-1.56c0.53-0.72,0.92-1.52,1.23-2.36c0.28-0.74,0.49-1.5,0.7-2.27
	c0.2-0.74,0.39-1.48,0.51-2.24l0.07-0.45l0.45-0.05c0.87-0.1,1.71-0.11,2.58-0.15c0.51-0.02,1.12-0.06,1.59-0.28
	c0.48-0.22,0.82-0.63,1.08-1.08c-2.42-1.23-4.85-2.46-7.27-3.69l-0.1-0.05l-0.08-0.09c-0.6-0.71-1.29-1.37-1.98-2
	c-1.48-1.35-3.05-2.63-4.64-3.84c-1.61-1.22-3.27-2.38-4.98-3.45c-1.85-1.16-3.77-2.22-5.76-3.12c-2.02-0.92-4.11-1.67-6.25-2.27
	c-2.38-0.67-4.83-1.15-7.29-1.41c-2.36-0.25-4.74-0.31-7.1-0.12c-2.57,0.2-5.09,0.7-7.54,1.49c-2.73,0.88-5.31,2.11-7.77,3.58
	c-2.82,1.68-5.49,3.68-8.05,5.73c-2.72,2.19-5.36,4.5-7.95,6.84c-1.72,1.55-3.43,3.12-5.15,4.69c-2.79,2.56-5.59,5.17-8.49,7.59
	c-1.56,1.3-3.17,2.56-4.91,3.6l-0.14,0.08h-0.01c-1.48,0.88-2.99,1.56-4.63,2.11c-2.03,0.68-4.15,1.14-6.26,1.44
	c-2.28,0.33-4.59,0.47-6.9,0.45c-5.36-0.07-10.88-1.04-16.15-1.92l-0.09-0.02c-2.88-0.48-5.76-0.95-8.66-1.32
	c-2.71-0.34-5.49-0.61-8.22-0.58c-2.4,0.02-4.79,0.27-7.13,0.83c-2.1,0.5-4.12,1.22-6.07,2.15c-1.6,0.77-3.15,1.66-4.64,2.63
	c-1.11,0.73-2.2,1.51-3.25,2.33l-0.54,0.42l-0.34-0.59c-0.7-1.24-2.11-2.57-3.22-3.45c-1.4-1.11-2.96-2.07-4.58-2.82
	c-2.1-0.96-4.39-1.61-6.67-1.96c-2.28-0.34-4.64-0.39-6.93-0.09c-2.22,0.3-4.36,0.93-6.4,1.85c-1.9,0.85-3.69,1.93-5.37,3.16
	c-1.61,1.18-3.1,2.49-4.4,4.01c-1.37,1.6-2.46,3.37-3.3,5.31C5,54.14,4.38,56.7,4.23,59.3c-0.15,2.6,0.17,5.18,0.92,7.67
	c0.8,2.66,2.09,5.25,3.5,7.63c1.77,3.01,3.85,5.87,6.04,8.59c1.55,1.92,3.16,3.76,4.81,5.6c1.21,1.35,2.52,2.77,3.57,4.23
	c0.63,0.88,1.21,1.86,1.54,2.9c0.22,0.68,0.31,1.38,0.22,2.09c-0.07,0.59-0.27,1.16-0.62,1.65c-0.35,0.51-0.83,0.9-1.37,1.19
	c-0.71,0.38-1.56,0.62-2.35,0.77c-0.92,0.17-1.92,0.26-2.85,0.2c-0.77-0.05-1.46-0.22-2.19-0.44c-0.51-0.15-0.91-0.28-1.45-0.23
	c-0.47,0.05-0.89,0.23-1.23,0.58l0,0c-0.58,0.59-0.7,1.27-0.41,2.04l0.05,0.14c0.13,0.28,0.33,0.53,0.55,0.74
	c0.73,0.71,2.16,1.33,3.09,1.69c2.03,0.78,4.27,1.39,6.42,1.75c1.88,0.32,3.88,0.49,5.78,0.32c2.15-0.2,4.19-0.85,5.98-2.08
	c1.77-1.22,3.09-2.88,4.01-4.82c1.01-2.13,1.49-4.54,1.62-6.89c0.15-2.65-0.14-5.35-0.73-7.93c-0.65-2.86-1.69-5.66-2.83-8.36
	c-1.18-2.77-2.48-5.47-3.8-8.17l-0.09-0.18c-1.17-2.38-2.35-4.78-3.38-7.23c-0.79-1.89-1.62-4.07-1.89-6.11
	c-0.17-1.27-0.1-2.57,0.32-3.79c0.4-1.15,1.09-2.14,1.99-2.95c0.75-0.68,1.61-1.2,2.56-1.55c1.02-0.37,2.1-0.53,3.18-0.53
	c1.85,0.01,3.83,0.52,5.63,0.97c0.44,0.11,0.88,0.22,1.32,0.33c0.22,0.05,0.44,0.1,0.66,0.14l0.96,0.2l-0.62,0.76
	c-0.56,0.68-1.06,1.4-1.53,2.14c-0.74,1.17-1.37,2.37-1.86,3.66c-0.63,1.64-1.02,3.35-1.19,5.11c-0.19,2-0.12,4.07,0.08,6.07
	c0.22,2.23,0.62,4.48,1.18,6.65c0.57,2.19,1.31,4.27,2.1,6.39c0.53,1.42,1.05,2.85,1.5,4.29c0.57,1.85,1.04,3.74,1.4,5.65
	c0.32,1.69,0.58,3.44,0.66,5.16c0.06,1.32,0.02,2.64-0.18,3.94c-0.17,1.04-0.44,2.04-0.8,3.03c-0.32,0.89-0.71,1.76-1.17,2.59
	l-0.29,0.52L43,105.42c-0.37,0.59-0.78,1.15-1.23,1.68c-0.59,0.69-1.26,1.32-1.95,1.91c-0.6,0.52-1.21,1.01-1.84,1.48l-0.13,0.1
	c-0.59,0.45-1.65,1.18-1.94,1.87c-0.19,0.45-0.13,0.97-0.03,1.44l0.04,0.16c0.71,2.83,1.75,6.45,1.65,9.38
	c-0.05,1.51-0.38,3.03-0.68,4.5c-0.54,2.65-1.05,5.28-1.49,7.95c-0.34,2.06-0.67,4.12-0.95,6.18c-0.17,1.27-0.34,2.57-0.41,3.85
	c-0.05,0.92-0.05,1.8,0.19,2.68l0.05,0.16c0.29,0.98,0.83,1.78,1.46,2.57c0.49,0.61,1.02,1.2,1.55,1.77
	c0.71,0.42,1.87,0.63,2.66,0.73c0.5,0.06,2.34,0.18,3.05-0.07c-1.49-1.46-3.17-3.06-4.46-4.67c-0.31-0.39-0.67-0.86-0.81-1.35
	l-0.02-0.08v-0.02c-0.12-0.48-0.09-1.06-0.07-1.54c0.06-1.18,0.22-2.38,0.38-3.55c0.63-4.58,1.4-9.38,2.71-13.82
	c0.66-2.25,1.5-4.52,2.75-6.51c1.41-2.24,3.66-4.24,5.62-5.99c1.54-1.38,3.15-2.78,4.51-4.34c1.06-1.22,2.06-2.49,3.04-3.77
	c1.04-1.36,2.04-2.74,3.04-4.13l0.32-0.44c1.74-2.41,3.52-4.92,5.57-7.08c0.81-0.85,1.67-1.65,2.57-2.41
	c0.86-0.72,1.78-1.43,2.73-2.04l0.6-0.38L71.91,92c0.42,0.34,0.82,0.73,1.2,1.12c0.56,0.56,1.1,1.14,1.61,1.75
	c0.51,0.62,1,1.29,1.38,2c0.35,0.65,0.59,1.33,0.74,2.04c0.18,0.86,0.25,1.73,0.26,2.61c0.01,1.11-0.05,2.24-0.16,3.35
	c-0.12,1.26-0.3,2.52-0.52,3.77c-0.15,0.87-0.33,1.73-0.51,2.59c-0.27,1.29-0.58,2.65-0.67,3.97c-0.06,0.88-0.01,1.76,0.18,2.62
	c0.16,0.69,0.4,1.33,0.71,1.96c0.93,1.9,1.86,3.42,3.3,4.97c0.85,0.92,1.73,1.79,2.54,2.76c1.34,1.58,2.51,3.3,3.6,5.06l0.03,0.04
	l0.02,0.05c1.15,2.86,2.3,5.74,3.52,8.57c0.58,1.34,1.3,3.08,2.19,4.24c0.76,1,1.36,1.34,2.49,1.8c0.63,0.25,1.26,0.49,1.9,0.73
	c1.22,0.45,2.5,0.91,3.68,1.47c0.56,0.26,1.14,0.57,1.61,0.97c0.38,0.32,0.69,0.7,0.98,1.11c0.35,0.5,0.66,1.05,0.95,1.59
	c0.5,0.26,1.09,0.44,1.63,0.55c0.49,0.1,2.09,0.3,2.86,0.14c-0.73-1.4-1.58-3.05-2.47-4.35c-0.48-0.69-1-1.27-1.65-1.81
	c-0.72-0.6-1.52-1.07-2.36-1.47c-1.28-0.61-2.65-1.11-3.98-1.6c-0.6-0.22-1.21-0.44-1.8-0.68c-0.38-0.15-0.73-0.31-0.98-0.64
	c-0.66-0.87-1.3-2.47-1.73-3.48c-3.97-9.19-5.81-12.74-3.85-22.94c0.14-0.7,0.2-1.41,0.26-2.12c0.09-1.01,0.18-2.01,0.37-3.01
	c0.29-1.54,0.7-3.08,1.1-4.59c0.29-1.11,0.58-2.22,0.84-3.33c0.32-1.37,0.6-2.75,0.82-4.14c0.21-1.31,0.38-2.63,0.48-3.95
	c0.06-0.86,0.1-1.74,0.14-2.6c0.04-0.96,0.06-2.06,0.21-3.05l-0.02-0.01l0.06-0.28c-0.16-0.27-0.09-0.63,0.23-0.83
	c0.33-0.2,1.11-0.04,1.48,0.02c1.87,0.29,3.9,0.93,5.72,1.46c1.72,0.5,3.44,1,5.18,1.43c2,0.49,4.03,0.88,6.08,1.14
	c1.92,0.24,3.84,0.36,5.78,0.35c1.82-0.01,3.65-0.13,5.47-0.34c1.56-0.18,3.12-0.41,4.67-0.68c0.66-0.11,1.32-0.24,1.98-0.36
	c1.05-0.19,2.38-0.49,3.44-0.49c0.25,0,0.52,0.02,0.75,0.12c0.14,0.06,0.27,0.15,0.38,0.26c0.12,0.12,0.18,0.27,0.18,0.43
	c0.3,1.05,0.44,2.4,0.57,3.47c0.29,2.41,0.53,4.83,0.77,7.24c0.29,2.93,0.57,5.87,0.93,8.79c0.2,1.61,0.43,3.5,0.94,5.04
	c0.67,2.04,1.4,4.04,2.21,6.03c0.33,0.8,0.77,1.76,0.9,2.61c0.16,1.03-0.09,2.36-0.24,3.39c-0.43,2.96-0.78,5.9-1.07,8.88
	c-0.13,1.36-0.35,3.02-0.23,4.38c0.11,1.24,0.43,1.93,1.16,2.93c0.56,0.78,1.21,1.53,1.85,2.25c0.83,0.94,1.68,1.87,2.56,2.75
	l0.66,0.66v0.01c0.44,0.43,0.86,0.86,1.08,1.46c0.13,0.35,0.23,0.73,0.32,1.09c0.42,0.34,1.27,0.52,1.75,0.59
	c0.37,0.05,1.69,0.11,2.04-0.16c-0.02-0.09-0.04-0.18-0.06-0.27c-0.18-0.82-0.38-1.68-0.66-2.48c-0.44-1.22-0.88-1.76-1.66-2.55
	L148,148.4l-0.88-0.88c-0.84-0.84-1.66-1.73-2.44-2.62c-0.56-0.64-1.12-1.29-1.62-1.98c-0.25-0.35-0.46-0.67-0.49-1.11
	c-0.43-4.83,1.49-10.94,2.95-15.54c0.07-0.22,0.14-0.44,0.2-0.67c0.32-1.14,0.57-2.3,0.9-3.44c0.54-1.89,1.22-3.73,1.97-5.55
	c0.65-1.59,1.15-3.35,1.66-4.99l0.61-1.98c0.5-1.62,1.02-3.24,1.54-4.85c0.62-1.92,1.25-3.83,1.88-5.74
	c0.58-1.74,1.17-3.48,1.77-5.21c0.4-1.15,0.81-2.3,1.24-3.43l0.23-0.6l0.58,0.28c0.74,0.36,1.5,0.69,2.27,1
	c1.51,0.61,3.06,1.14,4.61,1.64c1.47,0.47,2.96,0.91,4.47,1.26c1.43,0.33,2.87,0.59,4.33,0.72c1.28,0.12,2.55,0.15,3.84,0.07
	c1.23-0.08,2.45-0.23,3.67-0.45l0.02,0l0.02,0c1.75-0.19,3.72,0.13,4.83,1.63c0.8,1.08,0.89,2.44,0.6,3.72
	c-0.38,1.7-1.41,3.31-2.53,4.62c-1.33,1.56-2.67,3.1-4.04,4.62c-0.46,0.51-1.2,1.4-1.77,1.76c-0.37,0.23-0.95,0.29-1.38,0.33
	c-1.25,0.14-2.52,0.22-3.77,0.29c-1.65,0.09-3.3,0.17-4.95,0.25c-2.8,0.62-0.93,3.69,0.1,3.6c1.68-0.08,3.36-0.15,5.05-0.25
	c1.32-0.07,2.66-0.15,3.97-0.3c1.11-0.13,1.95-0.28,2.91-0.87c0.95-0.6,1.79-1.56,2.54-2.39c1.39-1.55,2.75-3.13,4.09-4.71
	c1.11-1.31,2.24-2.63,3.3-3.98c0.7-0.89,1.51-1.93,1.93-2.99l0.01-0.03l0.02-0.03c1.35-2.47,2.5-5.36,2.68-8.2
	c0.05-0.7,0.03-1.41-0.07-2.1c-0.03-0.23-0.18-0.71-0.18-0.9c-0.01-0.45-0.13-0.86-0.35-1.25c-0.4-0.71-1.09-1.23-1.8-1.61
	c-1.51-0.82-3.57-1.37-5.22-1.86c-0.73-0.22-1.46-0.44-2.19-0.67c-1.45-0.45-2.88-0.94-4.31-1.47c-1.28-0.48-2.55-0.98-3.8-1.54
	c-1-0.45-2.02-0.93-2.95-1.5c-0.45-0.27-1.03-0.64-1.38-1.04c-0.28-0.32-0.01-1.08,0.06-1.44l0.09-0.47h0.01
	c0.15-0.76,0.27-1.51,0.33-2.28c0.09-1.08,0.06-2.19-0.2-3.25c-0.36-1.46-1.07-2.62-1.87-3.85c-0.19-0.29-0.39-0.58-0.56-0.89
	c-0.14-0.24-0.29-0.54-0.32-0.82c-0.03-0.28,0.04-0.59,0.11-0.86c0.15-0.57,0.38-1.15,0.58-1.7c0.4-1.08,0.78-2.15,1.12-3.25
	c0.46-1.48,0.86-2.99,1.18-4.51c0.37-1.78,0.63-3.6,0.72-5.41c0.14-3.09-0.23-6.11-0.65-9.17l-0.11-0.78
	c-0.14-1-0.28-2.03-0.32-3.05c-0.02-0.43-0.04-1.02,0.08-1.44c0.06-0.2,0.2-0.33,0.36-0.39c0.49-0.35,1.16-0.66,1.68-0.93
	c0.84-0.43,1.69-0.86,2.55-1.27l1.51-0.73l-0.72,1.52c-0.22,0.46-0.42,0.93-0.6,1.42c-0.29,0.82-0.5,1.69-0.55,2.56
	c-0.05,0.91,0.09,1.75,0.36,2.61c0.28,0.88,0.67,1.74,1.07,2.57c0.19,0.4,0.4,0.78,0.59,1.18c0.66,1.32,1.49,2.89,1.91,4.3
	c0.12,0.42,0.22,0.91,0.17,1.35c-0.03,0.24-0.12,0.46-0.25,0.66C180.92,49.21,180.85,49.29,180.78,49.37"/>
<path class="st2" d="M126.52,32.7c-0.56,0.49-1.12,0.96-1.69,1.44c-1.56,1.3-3.17,2.56-4.91,3.6l-0.14,0.08h-0.01
	c-1.48,0.88-2.99,1.56-4.63,2.11c-2.03,0.68-4.15,1.14-6.26,1.44c-2.28,0.33-4.59,0.47-6.9,0.45c-5.36-0.07-10.88-1.04-16.15-1.92
	l-0.09-0.01c-2.88-0.48-5.76-0.95-8.66-1.32c-2.71-0.34-5.49-0.61-8.22-0.58c-2.4,0.02-4.79,0.27-7.13,0.83
	c-1.01,0.24-2,0.53-2.98,0.87c0.53,0.72,1.43,1.36,2.51,1.85c2.06,0.94,4.74,1.34,8.19,2.74c3.45,1.4,7.65,3.8,12.56,5.58
	c4.91,1.78,10.52,2.94,15.72,3s9.98-0.98,13.92-2.8c3.94-1.82,7.03-4.42,9.53-7.06c2.5-2.64,4.4-5.32,5.14-7.52
	C126.68,34.44,126.77,33.51,126.52,32.7"/>
<path class="st2" d="M204.02,37.29c0.09-0.35,0.19-0.71,0.35-1c0.29-0.57,0.85-1.13,1.29-1.59c0.48-0.5,0.96-1,1.37-1.56
	c0.53-0.72,0.92-1.52,1.23-2.36c0.28-0.74,0.5-1.5,0.7-2.27c0.2-0.74,0.39-1.48,0.51-2.24l0.07-0.45l0.45-0.05
	c0.31-0.04,0.62-0.06,0.93-0.08c0.24-1.11,0.4-2.25,0.44-3.4l-3.39-1.72l-0.11-0.05l-0.08-0.09c-0.6-0.71-1.29-1.37-1.98-2
	c-1.48-1.35-3.05-2.63-4.64-3.84c-1.61-1.22-3.27-2.38-4.98-3.45c-1.85-1.16-3.77-2.22-5.76-3.12c-2.02-0.92-4.11-1.68-6.24-2.27
	c-2.38-0.67-4.83-1.14-7.29-1.41c-2.35-0.25-4.74-0.31-7.1-0.12c-1.41,0.11-2.8,0.31-4.17,0.6c0.18,0.47,0.61,0.89,1.18,1.22
	c1.72,1.02,4.72,1.26,7.9,1.92c3.18,0.66,6.54,1.74,9.7,3.52c3.16,1.78,6.12,4.26,8.66,6.74c2.54,2.48,4.66,4.96,5.6,6.72
	c0.94,1.76,0.7,2.8-0.1,3.52c-0.8,0.72-2.16,1.12-3.48,1.4c-1.32,0.28-2.6,0.44-3.62,0.74c-1.02,0.3-1.7,0.76-1.96,1.82
	c-2.69,11.11,5.71,12.49,12.14,6.5C202.21,38.33,203.16,37.98,204.02,37.29"/>
<path class="st2" d="M155.14,75.89c-1.94,2.12-3.82,4.48-5.36,8.66c-1.54,4.18-2.74,10.17-3.7,15.43
	c-0.96,5.26-1.68,9.77-1.94,12.73c-0.26,2.96-0.06,4.36,0.32,4.98c0.38,0.62,0.94,0.46,2.02-2.28c1.08-2.74,2.68-8.06,4.48-12.99
	c1.8-4.94,3.8-9.5,5.86-12.91c2.06-3.42,4.03-5.93,5.96-7.04c5.74-3.29,6.85-7.74,5.96-17.85c-0.23-2.58-0.02-5.36,0.72-8.1
	c0.74-2.74,1.82-5.42,2.12-8.75c0.3-3.34-0.18-7.34-0.18-10.24c0-2.9,0.48-4.7,1.28-5.94c0.8-1.24,1.92-1.92,1.5-1.96
	c-0.42-0.04-2.38,0.56-4.08,1.46c-1.7,0.9-3.14,2.1-4.18,3.58c-1.04,1.48-1.68,3.24-1.92,5.64c-0.24,2.4-0.08,5.44-0.84,9.06
	c-0.76,3.62-2.44,7.82-2.94,11.35c-0.5,3.54,0.18,6.42-0.48,8.8C159.08,71.89,157.08,73.77,155.14,75.89"/>
<path class="st2" d="M84.11,67.46c-1.16-0.14-2.8,0.22-4.62,0.92s-3.82,1.74-4.96,3.14c-1.14,1.4-1.42,3.16-1.88,4.96
	c-0.46,1.8-1.1,3.64-2.12,5.08c-1.02,1.44-2.42,2.48-4.06,3.64c-1.64,1.16-3.52,2.44-5.26,4.62c-1.74,2.18-3.34,5.26-5.02,8.46
	c-1.68,3.2-3.44,6.52-4.46,8.48c-1.02,1.96-1.3,2.56-1.18,2.86c0.12,0.3,0.64,0.3,2.14-1c1.5-1.3,3.98-3.9,6.12-6.36
	c2.14-2.46,3.94-4.78,6.14-6.92c2.2-2.14,4.8-4.1,7.52-6.14c2.72-2.04,5.56-4.16,7.5-6.48c1.94-2.32,2.98-4.84,3.94-7.18
	c0.96-2.34,1.84-4.5,1.94-5.9C85.95,68.24,85.27,67.6,84.11,67.46"/>
<path class="st2" d="M43.7,42.31l-0.03-0.02c-1.4-1.11-2.95-2.07-4.58-2.82c-2.1-0.96-4.39-1.61-6.67-1.96
	c-2.28-0.34-4.64-0.4-6.92-0.09c-2.22,0.29-4.36,0.93-6.4,1.85c-1.9,0.85-3.7,1.93-5.37,3.16c-1.61,1.18-3.1,2.49-4.4,4.01
	c-1.37,1.6-2.46,3.37-3.3,5.31C5,54.14,4.38,56.7,4.24,59.29c-0.15,2.6,0.17,5.18,0.92,7.67c0.8,2.66,2.09,5.25,3.5,7.63
	c1.77,3.01,3.85,5.87,6.04,8.59c1.55,1.92,3.17,3.76,4.81,5.6c1.2,1.35,2.52,2.77,3.57,4.23c0.63,0.88,1.21,1.86,1.54,2.9
	c0.22,0.68,0.31,1.38,0.22,2.09c-0.07,0.59-0.27,1.16-0.62,1.65c-0.35,0.51-0.83,0.9-1.37,1.19c-0.71,0.38-1.56,0.62-2.34,0.77
	c-0.92,0.18-1.92,0.26-2.85,0.2c-0.77-0.05-1.46-0.22-2.19-0.44c-0.51-0.15-0.91-0.28-1.45-0.23c-0.17,0.02-0.33,0.05-0.48,0.1
	c0.43,0.28,0.85,0.54,1.24,0.79c4.06,2.54,5.58,3.22,7.24,2.96c1.66-0.26,3.46-1.46,4.8-2.66c1.34-1.2,2.22-2.4,2.86-4.06
	s1.04-3.78,0.84-5.94c-0.2-2.16-1-4.36-3.18-8.5c-2.18-4.14-5.74-10.22-7.92-14.79c-2.18-4.58-2.98-7.66-3.02-10.84
	c-0.04-3.18,0.68-6.46,2.6-9.1c1.92-2.64,5.04-4.64,8.5-5.36c3.46-0.72,7.26-0.16,9.95,0.22c2.7,0.38,4.3,0.58,5.42-0.44
	C43.2,43.24,43.5,42.81,43.7,42.31"/>
<path class="st3" d="M47.3,45.45c0.98-0.76,2.08-1.57,3.29-2.36c1.45-0.95,3.03-1.88,4.71-2.67c1.92-0.92,3.96-1.67,6.19-2.2
	c2.19-0.52,4.59-0.82,7.26-0.84c2.58-0.02,5.4,0.22,8.3,0.59c2.93,0.37,5.82,0.85,8.68,1.33l0.08,0.01
	c5.64,0.94,11.11,1.85,16.07,1.91c2.36,0.03,4.65-0.13,6.81-0.44c2.28-0.33,4.36-0.82,6.16-1.42c1.69-0.56,3.16-1.24,4.65-2.14h0.01
	c1.52-0.91,3.05-2.06,4.84-3.55c2.35-1.96,5.28-4.65,8.47-7.57c1.71-1.57,3.48-3.2,5.15-4.7c2.58-2.32,5.26-4.67,7.98-6.86
	c2.72-2.19,5.46-4.19,8.11-5.78c2.71-1.62,5.32-2.8,7.89-3.63c2.6-0.84,5.14-1.32,7.68-1.52c2.41-0.19,4.84-0.13,7.21,0.12
	c2.57,0.27,5.06,0.77,7.39,1.42c2.24,0.63,4.33,1.4,6.33,2.31c1.99,0.9,3.91,1.96,5.83,3.16c1.76,1.1,3.48,2.31,5.03,3.48
	c1.79,1.36,3.43,2.73,4.68,3.87c0.85,0.78,1.52,1.45,2.03,2.06c2.6,1.32,5.2,2.64,7.8,3.96c-1.28,2.76-2.74,1.99-5.98,2.36
	c-0.11,0.75-0.31,1.52-0.52,2.3c-0.2,0.76-0.42,1.54-0.72,2.32c-0.33,0.87-0.74,1.72-1.31,2.5c-0.44,0.6-0.93,1.12-1.42,1.63
	c-0.48,0.5-0.96,1-1.19,1.45c-0.19,0.38-0.32,0.97-0.45,1.55c-0.18,0.84-0.36,1.66-0.81,2.55c-0.42,0.84-0.91,1.4-1.52,2.1
	c-0.52,0.6-1.16,1.34-1.88,2.51c-0.67,1.08-1.38,2.47-2.03,3.9c-0.77,1.67-1.49,3.45-2.01,4.92c-0.44,1.23-0.73,2.26-0.97,3.1
	c-0.3,1.07-0.53,1.86-0.95,2.68l0.01,0c-0.46,0.91-1.09,1.63-1.92,2.19c-0.76,0.51-1.66,0.84-2.73,1.02
	c-0.98,0.16-2.12,0.18-3.26,0.05c-1.04-0.12-2.12-0.39-3.11-0.82c-1.06-0.46-1.98-1.09-2.76-1.79c-0.74-0.66-1.37-1.39-1.91-2.09
	c-0.57-0.74-1.05-1.49-1.39-2.22c-0.4-0.85-0.61-1.68-0.56-2.48c0.11-1.93,1.24-2.77,2.41-3.64l0.02-0.01
	c0.32-0.24,0.65-0.48,0.89-0.7l0-0.01c0.21-0.18,0.39-0.37,0.51-0.56c0.08-0.12,0.14-0.26,0.16-0.41c0.03-0.26-0.01-0.61-0.15-1.11
	c-0.33-1.12-1.14-2.75-1.87-4.2c-0.39-0.78-0.46-0.9-0.6-1.18c-0.47-0.97-0.84-1.81-1.11-2.65c-0.3-0.95-0.43-1.85-0.38-2.82
	c0.05-0.93,0.27-1.85,0.58-2.73c0.18-0.49,0.39-0.99,0.62-1.47c-0.97,0.47-1.85,0.91-2.54,1.27c-0.82,0.42-1.39,0.72-1.71,0.97
	c-0.03,0.02-0.03-0.02-0.03,0c-0.07,0.24-0.09,0.65-0.06,1.24c0.04,0.77,0.15,1.77,0.32,2.99l0.1,0.78
	c0.36,2.58,0.81,5.89,0.66,9.27c-0.09,1.91-0.37,3.78-0.73,5.51c-0.36,1.72-0.79,3.28-1.19,4.57c-0.43,1.38-0.81,2.42-1.13,3.28
	c-0.25,0.68-0.45,1.23-0.57,1.65c-0.08,0.28-0.11,0.49-0.1,0.64c0.02,0.14,0.09,0.32,0.24,0.59c0.12,0.22,0.32,0.53,0.54,0.85
	c0.71,1.09,1.55,2.37,1.95,4.04c0.28,1.16,0.3,2.34,0.21,3.44c-0.09,1.03-0.26,1.95-0.42,2.71l-0.02,0.11h-0.01
	c-0.12,0.6-0.2,0.93-0.19,0.94c0.22,0.26,0.65,0.57,1.24,0.93c0.75,0.45,1.73,0.95,2.89,1.46c1.15,0.51,2.43,1.03,3.76,1.53
	c1.34,0.5,2.8,1,4.28,1.46c0.68,0.21,1.45,0.44,2.18,0.66c2.14,0.64,4.03,1.21,5.33,1.91c0.94,0.51,1.62,1.12,2.03,1.84
	c0.27,0.48,0.42,0.99,0.43,1.53c0,0.12,1.51,4.18-2.5,11.49c-0.36,0.89-0.95,1.79-2.01,3.14c-0.75,0.96-1.98,2.43-3.31,4
	c-1.62,1.9-3.15,3.66-4.11,4.72c-1.12,1.25-1.82,1.97-2.66,2.5c-0.98,0.62-1.82,0.81-3.15,0.96c-0.99,0.11-2.4,0.21-4,0.3
	c-1.43,0.08-3.24,0.16-5.05,0.25c-1.75,0.15-3.8-4.03-0.21-4.78c1.66-0.08,3.33-0.15,5-0.25c1.49-0.08,2.8-0.18,3.74-0.28
	c0.6-0.07,0.93-0.13,1.13-0.25c0.33-0.21,0.81-0.72,1.65-1.65c1.18-1.32,2.71-3.06,4.03-4.61c4.41-5.18,2.73-9.56-2.39-9
	c-1.24,0.22-2.46,0.38-3.73,0.46c-1.25,0.08-2.54,0.06-3.93-0.07c-1.39-0.13-2.84-0.37-4.41-0.73c-1.38-0.32-2.96-0.78-4.51-1.27
	c-1.77-0.57-3.42-1.16-4.65-1.65c-0.97-0.39-1.72-0.73-2.31-1.02c-0.36,0.94-0.78,2.11-1.23,3.41c-0.54,1.57-1.15,3.37-1.76,5.2
	c-0.57,1.7-1.2,3.64-1.88,5.74c-0.55,1.71-1.08,3.36-1.54,4.84l-0.61,1.98c-0.66,2.16-1.17,3.83-1.67,5.04
	c-2.19,5.31-2.32,7.33-3.04,9.61c-1.41,4.45-3.34,10.64-2.92,15.31c0.03,0.27,0.14,0.49,0.38,0.82c0.41,0.57,0.98,1.25,1.58,1.93
	c0.82,0.92,1.73,1.89,2.42,2.59l0.46,0.46l0,0c1.15,1.15,1.67,1.67,2.22,3.18c0.26,0.71,0.48,1.59,0.69,2.56
	c0.02,0.09,0.04,0.18,0.06,0.27c0.4,1.29-3.84,1.17-4.9,0c-0.11-0.48-0.23-0.89-0.34-1.2c-0.17-0.48-0.47-0.78-1.11-1.42v-0.01
	l-0.48-0.49c-0.71-0.72-1.67-1.74-2.59-2.78c-0.74-0.84-1.42-1.66-1.89-2.29c-0.76-1.05-1.14-1.82-1.26-3.22
	c-0.09-1.04,0.01-2.31,0.22-4.49c1.66-17.03,2.52-7.7-1.77-20.67c-0.38-1.15-0.67-2.76-0.97-5.15c-0.27-2.15-0.61-5.54-0.93-8.8
	c-0.26-2.61-0.51-5.14-0.76-7.23c-0.23-1.88-0.4-2.89-0.57-3.44c-0.04-0.13,0.02-0.09-0.01-0.11c-0.06-0.06-0.13-0.12-0.2-0.15
	c-0.1-0.04-0.26-0.07-0.52-0.07c-0.73,0-1.84,0.2-3.33,0.48c-0.78,0.14-1.65,0.3-1.99,0.36c-1.36,0.24-2.96,0.49-4.7,0.68
	c-1.71,0.19-3.58,0.33-5.53,0.34c-1.92,0.01-3.85-0.1-5.85-0.36c-2.01-0.25-4.05-0.64-6.14-1.15c-1.68-0.41-3.49-0.94-5.21-1.44
	c-2.22-0.64-4.25-1.23-5.65-1.45c-0.69-0.11-1.02-0.13-1.08-0.09c-0.12,0.07,0.13,0.01,0.1,0.17l0.01,0
	c-0.19,0.87-0.25,2.13-0.31,3.53c-0.04,0.91-0.08,1.87-0.14,2.62c-0.1,1.27-0.26,2.6-0.48,4c-0.23,1.4-0.5,2.79-0.83,4.18
	c-0.21,0.91-0.53,2.14-0.85,3.34c-0.43,1.66-0.85,3.26-1.09,4.55c-0.2,1.08-0.29,2.09-0.36,2.95c-0.07,0.77-0.12,1.45-0.27,2.18
	c-1.93,10.02-0.2,13.33,3.81,22.6c0.81,1.88,1.29,2.86,1.66,3.35c0.15,0.2,0.38,0.31,0.73,0.45c0.41,0.17,1.07,0.41,1.79,0.68
	c1.33,0.49,2.82,1.05,4.02,1.62c1,0.48,1.79,0.98,2.48,1.55c0.72,0.6,1.25,1.21,1.75,1.93c0.6,0.86,1.66,2.78,2.52,4.42
	c1.45,1.11-3.16,1.32-5.46,0c-0.33-0.63-0.67-1.21-1-1.69c-0.28-0.4-0.55-0.73-0.87-0.99c-0.34-0.29-0.81-0.57-1.49-0.89
	c-0.99-0.47-2.39-0.99-3.63-1.45c-0.67-0.25-1.29-0.48-1.92-0.73c-1.12-0.45-1.86-0.83-2.74-1.99c-0.66-0.87-1.29-2.13-2.26-4.36
	c-0.85-1.96-2.09-5.01-3.52-8.58c-4.97-8.01-6.41-6.54-9.48-12.84c-0.3-0.61-0.57-1.27-0.76-2.09c-0.19-0.81-0.27-1.72-0.2-2.79
	c0.08-1.19,0.37-2.54,0.68-4.05c0.16-0.75,0.33-1.56,0.51-2.58c0.23-1.27,0.4-2.55,0.51-3.72c0.11-1.17,0.17-2.29,0.16-3.29
	c-0.01-0.93-0.08-1.74-0.24-2.49c-0.15-0.68-0.37-1.3-0.68-1.89c-0.35-0.64-0.82-1.3-1.32-1.91c-0.52-0.63-1.08-1.22-1.57-1.71
	c-0.48-0.48-0.86-0.83-1.16-1.08l-0.1-0.08l-0.24,0.16c-0.67,0.43-1.61,1.11-2.67,1.99C67.6,95.2,66.73,96,65.9,96.88
	c-1.88,1.99-3.68,4.48-5.52,7.02l-0.32,0.44c-0.98,1.35-1.98,2.73-3.05,4.14c-1.05,1.38-2.08,2.68-3.07,3.81
	c-2.97,3.4-7.81,6.66-10.08,10.26c-1.7,2.71-3.66,7.55-5.37,20.09c-0.21,1.52-0.33,2.64-0.37,3.51c-0.04,0.66-0.03,1.1,0.07,1.43
	v0.01c0.09,0.31,0.31,0.66,0.71,1.15c0.95,1.19,2.74,2.98,4.64,4.84c0.88,1.32-4.81,1.2-6.73,0c-0.63-0.67-1.19-1.3-1.64-1.86
	c-0.8-1-1.28-1.82-1.57-2.77l0,0c-0.28-0.93-0.32-1.84-0.26-3.04c0.05-1,0.18-2.24,0.41-3.9c0.22-1.63,0.54-3.64,0.96-6.2
	c2.21-13.4,3.28-10.71,0.54-21.6h0c-0.51-2.06,0.29-2.67,2.15-4.08l0.13-0.1c0.48-0.37,1.11-0.85,1.82-1.46
	c0.64-0.55,1.31-1.18,1.89-1.85c0.55-0.64,1.04-1.34,1.47-2.1l0,0c0.43-0.75,0.8-1.59,1.13-2.5c0.33-0.9,0.6-1.85,0.77-2.93
	c0.17-1.09,0.25-2.34,0.18-3.82c-0.07-1.51-0.31-3.26-0.65-5.08c-0.36-1.88-0.83-3.81-1.38-5.58c-0.44-1.41-0.96-2.84-1.49-4.26
	c-0.75-2.02-1.49-4.03-2.12-6.44c-0.55-2.11-0.97-4.45-1.2-6.74c-0.22-2.16-0.26-4.29-0.08-6.18c0.2-2.03,0.66-3.77,1.23-5.26
	c0.57-1.49,1.26-2.72,1.91-3.76c0.51-0.82,1.01-1.53,1.57-2.2c-0.22-0.04-0.44-0.09-0.67-0.15c-0.42-0.1-0.86-0.21-1.33-0.33
	c-1.72-0.43-3.74-0.94-5.49-0.96c-1.04-0.01-2.04,0.15-2.97,0.49c-0.85,0.31-1.65,0.78-2.36,1.43c-0.78,0.71-1.45,1.61-1.83,2.71
	c-0.34,0.98-0.47,2.15-0.29,3.53c0.44,3.39,2.75,8.11,5.21,13.15l0.09,0.18c1.27,2.6,2.58,5.29,3.81,8.2
	c1.2,2.83,2.23,5.68,2.86,8.46c0.65,2.83,0.88,5.58,0.74,8.09c-0.15,2.65-0.72,5.07-1.67,7.1c-1,2.12-2.42,3.82-4.21,5.05
	c-1.77,1.22-3.88,1.96-6.26,2.18c-1.92,0.18-3.99,0.01-5.93-0.33c-2.51-0.43-4.91-1.16-6.53-1.78c-1.78-0.68-2.8-1.34-3.29-1.82
	c-0.36-0.35-0.6-0.72-0.74-1.09l0.01,0c-0.39-1.03-0.17-1.94,0.53-2.66l0.01-0.01c0.42-0.43,0.97-0.69,1.58-0.75
	c0.63-0.06,1.07,0.07,1.68,0.25c0.49,0.15,1.2,0.36,2.06,0.42c0.79,0.05,1.75-0.01,2.7-0.19c0.81-0.16,1.58-0.39,2.18-0.71
	c0.5-0.27,0.89-0.61,1.17-1.01c0.28-0.4,0.45-0.87,0.51-1.39c0.07-0.55,0.02-1.16-0.2-1.84c-0.26-0.81-0.72-1.71-1.46-2.73
	c-0.82-1.14-2.06-2.54-3.54-4.18c-1.41-1.58-3.02-3.39-4.82-5.63c-2.05-2.54-4.25-5.54-6.09-8.66c-1.51-2.55-2.78-5.2-3.56-7.76
	c-0.83-2.75-1.09-5.4-0.95-7.87c0.16-2.87,0.87-5.49,1.85-7.74c0.91-2.11,2.05-3.89,3.39-5.46c1.33-1.55,2.83-2.88,4.5-4.1
	c1.65-1.21,3.48-2.32,5.48-3.22c2.02-0.91,4.21-1.58,6.56-1.9c2.31-0.31,4.75-0.26,7.09,0.09c2.39,0.36,4.74,1.05,6.83,2
	c1.83,0.84,3.43,1.88,4.7,2.89C45.57,43.12,46.76,44.49,47.3,45.45 M159.8,80.16c2.56-1.45,4.87,0.87,3.71,3.02l-2.87,3.53
	c0.34,0.15,0.72,0.32,1.17,0.49c1.19,0.48,2.73,1.04,4.31,1.54c1.34,0.43,2.78,0.84,4.15,1.16c1.41,0.33,2.64,0.53,3.75,0.64
	c9.52,0.88,23.42,1.71,5.17-5.09c-1.45-0.54-2.83-1.1-4.04-1.64c-1.31-0.58-2.46-1.17-3.41-1.74c-1.02-0.61-1.82-1.24-2.36-1.86
	c-1.54-1.77-1.3-2.97-0.89-5.02l-0.01,0l0.02-0.11c0.13-0.64,0.28-1.41,0.34-2.16c0.06-0.68,0.06-1.36-0.08-1.92
	c-0.2-0.83-0.8-1.75-1.32-2.54c-0.25-0.38-0.48-0.74-0.7-1.13c-0.47-0.85-0.74-1.61-0.82-2.43c-0.09-0.81,0-1.55,0.23-2.38
	c0.17-0.63,0.4-1.27,0.7-2.06c0.3-0.82,0.67-1.81,1.05-3.05c0.37-1.18,0.76-2.6,1.08-4.11c0.32-1.51,0.56-3.14,0.63-4.74
	c0.14-2.95-0.29-6.02-0.62-8.41l-0.11-0.79c-0.18-1.35-0.31-2.47-0.35-3.41c-0.05-1.12,0.01-2.04,0.24-2.82
	c0.31-1.05,0.82-1.77,1.72-2.45c0.6-0.46,1.36-0.86,2.44-1.42c1.03-0.53,2.35-1.19,3.47-1.73c1.26-0.6,2.51-1.15,3.45-1.46
	c1.67-0.56,2.83-0.39,3.66,0.26c1.25,0.99,1.28,2.23,0.73,3.64c-0.28,0.72-0.69,1.43-1.14,2.22c-0.28,0.48-0.57,1-0.78,1.4
	c-0.29,0.56-0.57,1.14-0.78,1.74c-0.18,0.5-0.3,0.97-0.32,1.36c-0.02,0.36,0.04,0.73,0.18,1.15c0.17,0.54,0.46,1.18,0.84,1.98
	l0.56,1.15c0.82,1.64,1.74,3.48,2.19,5.01c0.34,1.18,0.41,2.17,0.3,3.04c-0.12,0.97-0.46,1.75-0.89,2.41
	c-0.39,0.6-0.84,1.09-1.31,1.52h-0.01c-0.44,0.39-0.84,0.69-1.23,0.99l-0.02,0.01c-0.26,0.19-0.47-0.25-0.48,0.06
	c0,0.03,0.04,0.05,0.11,0.2c0.17,0.37,0.48,0.83,0.87,1.34c0.37,0.48,0.79,0.98,1.29,1.42c0.45,0.4,0.94,0.75,1.48,0.98
	c0.52,0.23,1.14,0.37,1.77,0.45c0.72,0.09,1.41,0.08,1.95-0.01c0.37-0.06,0.64-0.15,0.82-0.27c0.11-0.07,0.21-0.2,0.3-0.39h0.01
	c0.17-0.33,0.35-0.97,0.59-1.82c0.25-0.88,0.56-1.95,1.06-3.38c0.55-1.53,1.33-3.45,2.18-5.31c0.76-1.67,1.57-3.25,2.29-4.43
	c0.89-1.44,1.69-2.37,2.35-3.12c0.4-0.46,0.72-0.83,0.86-1.11c0.15-0.3,0.27-0.86,0.39-1.42c0.19-0.89,0.39-1.79,0.86-2.71
	c0.54-1.06,1.28-1.82,2.02-2.59c0.36-0.38,0.73-0.75,0.99-1.12c0.29-0.41,0.52-0.88,0.71-1.37c0.22-0.58,0.4-1.22,0.57-1.85
	c0.16-0.62,0.32-1.22,0.41-1.8c0.07-0.44,0.09-0.84,0.04-1.18c-0.05-0.26-0.16-0.54-0.41-0.89c-0.39-0.55-1.01-1.21-1.95-2.07
	c-1.08-0.99-2.59-2.24-4.35-3.57c-1.49-1.13-3.1-2.26-4.69-3.26c-1.71-1.08-3.44-2.02-5.25-2.84c-1.8-0.82-3.66-1.5-5.66-2.06
	c-2.09-0.58-4.32-1.03-6.6-1.27c-2.07-0.22-4.2-0.27-6.33-0.11c-2.2,0.17-4.39,0.58-6.59,1.29c-2.23,0.72-4.51,1.76-6.9,3.19
	c-2.43,1.46-4.99,3.33-7.57,5.4c-2.58,2.08-5.21,4.39-7.77,6.7c-1.85,1.67-3.52,3.19-5.11,4.66c-3.15,2.89-6.05,5.55-8.66,7.72
	c-1.98,1.65-3.7,2.93-5.43,3.98l0,0c-1.76,1.06-3.55,1.87-5.63,2.57c-2.09,0.7-4.45,1.26-6.98,1.62c-2.35,0.34-4.89,0.51-7.54,0.48
	c-5.37-0.07-11-1.01-16.79-1.97l-0.08-0.01c-2.89-0.48-5.81-0.97-8.5-1.31c-2.72-0.35-5.32-0.57-7.67-0.55
	c-2.26,0.02-4.31,0.28-6.21,0.73c-1.86,0.44-3.58,1.08-5.22,1.86c-1.47,0.7-2.87,1.52-4.14,2.35c-1.64,1.08-3.08,2.18-4.21,3.13
	c-0.98,0.82-1.72,1.51-2.33,2.2c-0.61,0.67-1.11,1.36-1.62,2.17c-0.53,0.84-1.06,1.8-1.5,2.94c-0.44,1.13-0.78,2.44-0.93,3.99
	c-0.15,1.57-0.11,3.39,0.08,5.26c0.2,2.04,0.58,4.12,1.07,6.01c0.54,2.09,1.26,4.04,1.98,5.99c0.53,1.42,1.05,2.85,1.57,4.51
	c0.6,1.95,1.13,4.05,1.52,6.11c0.38,2.01,0.64,3.99,0.73,5.74c0.09,1.82-0.01,3.39-0.23,4.79c-0.23,1.43-0.58,2.66-1,3.81
	c-0.41,1.13-0.9,2.2-1.47,3.22v0.01c-0.58,1.02-1.24,1.98-2.01,2.87c-0.75,0.87-1.58,1.66-2.38,2.34c-3.41,2.94,0.64,3.91,2.96,1.83
	l0.01-0.01c1.34-1.2,3.1-2.79,4.91-4.85c0.95-1.08,1.9-2.29,2.86-3.54c0.94-1.23,1.96-2.63,2.98-4.05l0.32-0.44
	c3.2-4.43,4.97-7.23,8.97-10.41h0.01c1.15-0.91,2.27-1.75,3.35-2.47l0,0c1.02-0.68,2.02-1.27,3.02-1.85
	c1.05-0.62,2.1-1.23,3.16-1.96c0.92-0.64,1.85-1.37,2.7-2.26c0.82-0.86,1.58-1.87,2.2-3.09c0.65-1.29,1.18-2.86,1.64-4.57
	c0.49-1.81,0.9-3.75,1.31-5.69c1.8-2.79,4.68-1.74,4.68,0.99c-0.43,2.02-0.86,4.04-1.37,5.93c-0.54,1.99-1.17,3.86-2,5.49
	c-0.06,0.12-0.12,0.23-0.18,0.34c1.5,0.68,3.05,1.32,4.77,1.82c3.42,1,13.69,3.43,17.62,4.4c1.97,0.48,3.83,0.83,5.59,1.06h0.01
	c1.79,0.22,3.52,0.33,5.23,0.32c1.68-0.01,3.39-0.14,5.02-0.33c1.6-0.18,3.11-0.42,4.42-0.65c1.08-0.19,1.52-0.27,1.93-0.34
	c1.79-0.33,3.11-0.58,4.19-0.58c0.97,0,1.76,0.18,2.41,0.46c0.69,0.3,1.19,0.68,1.61,1.09c0.51,0.48,0.93,0.98,1.3,2.22
	c0.24,0.82,0.48,2.08,0.74,4.23c0.2,1.67,0.48,4.45,0.76,7.32c0.3,2.99,0.61,6.09,0.93,8.69c1.15,9.15,4.08,7.72,5.58-0.88
	l0.61-1.99c0.46-1.47,0.99-3.14,1.56-4.9c0.53-1.65,1.19-3.64,1.9-5.77c0.62-1.86,1.23-3.68,1.78-5.26
	C154.69,84.62,153.43,88.01,159.8,80.16 M88.79,88.35c-0.46-0.12-0.92-0.24-1.36-0.37c-2.39-0.7-4.39-1.57-6.31-2.47
	c-1.09,1.13-2.25,2.05-3.4,2.84c-0.72,0.5-1.45,0.95-2.16,1.38c0.13,0.12,0.27,0.26,0.41,0.4l0.01,0.01
	c0.56,0.56,1.21,1.25,1.87,2.05c0.67,0.82,1.33,1.74,1.84,2.7c0.54,1.01,0.91,2.04,1.15,3.15c0.22,1.04,0.32,2.17,0.34,3.45
	c0.01,1.16-0.05,2.44-0.17,3.76c-0.13,1.43-0.32,2.84-0.55,4.12c-0.15,0.83-0.35,1.81-0.55,2.73c-0.28,1.33-0.53,2.51-0.59,3.39
	c-0.36,5.06,4.84,3.87,5.26-1.07c0.08-0.93,0.17-1.99,0.44-3.42c0.27-1.46,0.71-3.14,1.16-4.89c0.25-0.98,0.51-1.98,0.81-3.23
	c0.32-1.38,0.58-2.65,0.77-3.84c0.19-1.19,0.34-2.39,0.43-3.6c0.07-0.98,0.1-1.73,0.14-2.45c0.07-1.67,0.14-3.18,0.4-4.37h0.01
	C88.75,88.51,88.77,88.43,88.79,88.35 M38.68,44.02c-0.45-0.26-0.93-0.51-1.43-0.74c-1.65-0.76-3.56-1.31-5.55-1.61
	c-1.95-0.29-3.92-0.34-5.76-0.09c-1.85,0.25-3.6,0.79-5.23,1.52c-1.65,0.74-3.19,1.68-4.6,2.71c-1.39,1.02-2.63,2.11-3.7,3.35
	c-1.05,1.23-1.94,2.61-2.64,4.24c-0.77,1.77-1.33,3.84-1.46,6.11c-0.11,1.93,0.1,4.03,0.76,6.22c0.66,2.18,1.77,4.48,3.09,6.71
	c1.72,2.91,3.78,5.72,5.7,8.1c1.65,2.05,3.26,3.86,4.68,5.44c1.52,1.7,2.8,3.14,3.83,4.58c1.06,1.48,1.76,2.83,2.15,4.08
	c0.44,1.38,0.54,2.66,0.39,3.86c-0.16,1.28-0.6,2.49-1.34,3.54c-0.58,0.84-1.35,1.57-2.31,2.17c0.87,0.07,1.72,0.08,2.51,0.01
	c1.54-0.14,2.88-0.6,3.97-1.36c1.08-0.75,1.96-1.81,2.6-3.16c0.69-1.47,1.11-3.29,1.22-5.32c0.12-2.09-0.09-4.4-0.63-6.78
	c-0.56-2.48-1.5-5.06-2.6-7.66c-1.07-2.52-2.41-5.27-3.72-7.95l-0.09-0.18c-2.63-5.38-5.1-10.43-5.64-14.63
	c-0.28-2.16-0.05-4.06,0.52-5.7c0.68-1.96,1.81-3.51,3.12-4.7c1.18-1.07,2.52-1.86,3.96-2.39c1.46-0.53,3.02-0.78,4.62-0.77
	C36.33,43.65,37.54,43.81,38.68,44.02"/>
<path class="st3" d="M194.12,32l2.49,2.61c1.55,1.63-1.12,4.17-2.67,2.55l-2.49-2.61C189.9,32.92,192.57,30.38,194.12,32"/>
<path class="st3" d="M47.3,45.45c0.98-0.76,2.08-1.57,3.29-2.36c1.45-0.95,3.03-1.88,4.71-2.67c1.92-0.92,3.96-1.67,6.19-2.2
	c2.19-0.52,4.59-0.82,7.26-0.84c2.58-0.02,5.4,0.22,8.3,0.59c2.93,0.37,5.82,0.85,8.68,1.33l0.08,0.01
	c5.64,0.94,11.11,1.85,16.07,1.91c2.36,0.03,4.65-0.13,6.81-0.44c2.28-0.33,4.36-0.82,6.16-1.42c1.69-0.56,3.16-1.24,4.65-2.14h0.01
	c1.52-0.91,3.05-2.06,4.84-3.55c2.35-1.96,5.28-4.65,8.47-7.57c1.71-1.57,3.48-3.2,5.15-4.7c2.58-2.32,5.26-4.67,7.98-6.86
	c2.72-2.19,5.46-4.19,8.11-5.78c2.71-1.62,5.32-2.8,7.89-3.63c2.6-0.84,5.14-1.32,7.68-1.52c2.41-0.19,4.84-0.13,7.21,0.12
	c2.57,0.27,5.06,0.77,7.39,1.42c2.24,0.63,4.33,1.4,6.33,2.31c1.99,0.9,3.91,1.96,5.83,3.16c1.76,1.1,3.48,2.31,5.03,3.48
	c1.79,1.36,3.43,2.73,4.68,3.87c0.85,0.78,1.52,1.45,2.03,2.06c2.6,1.32,5.2,2.64,7.8,3.96c-1.28,2.76-2.74,1.99-5.98,2.36
	c-0.11,0.75-0.31,1.52-0.52,2.3c-0.2,0.76-0.42,1.54-0.72,2.32c-0.33,0.87-0.74,1.72-1.31,2.5c-0.44,0.6-0.93,1.12-1.42,1.63
	c-0.48,0.5-0.96,1-1.19,1.45c-0.19,0.38-0.32,0.97-0.45,1.55c-0.18,0.84-0.36,1.66-0.81,2.55c-0.42,0.84-0.91,1.4-1.52,2.1
	c-0.52,0.6-1.16,1.34-1.88,2.51c-0.67,1.08-1.38,2.47-2.03,3.9c-0.77,1.67-1.49,3.45-2.01,4.92c-0.44,1.23-0.73,2.26-0.97,3.1
	c-0.3,1.07-0.53,1.86-0.95,2.68l0.01,0c-0.46,0.91-1.09,1.63-1.92,2.19c-0.76,0.51-1.66,0.84-2.73,1.02
	c-0.98,0.16-2.12,0.18-3.26,0.05c-1.04-0.12-2.12-0.39-3.11-0.82c-1.06-0.46-1.98-1.09-2.76-1.79c-0.74-0.66-1.37-1.39-1.91-2.09
	c-0.57-0.74-1.05-1.49-1.39-2.22c-0.4-0.85-0.61-1.68-0.56-2.48c0.11-1.93,1.24-2.77,2.41-3.64l0.02-0.01
	c0.32-0.24,0.65-0.48,0.89-0.7l0-0.01c0.21-0.18,0.39-0.37,0.51-0.56c0.08-0.12,0.14-0.26,0.16-0.41c0.03-0.26-0.01-0.61-0.15-1.11
	c-0.33-1.12-1.14-2.75-1.87-4.2c-0.39-0.78-0.46-0.9-0.6-1.18c-0.47-0.97-0.84-1.81-1.11-2.65c-0.3-0.95-0.43-1.85-0.38-2.82
	c0.05-0.93,0.27-1.85,0.58-2.73c0.18-0.49,0.39-0.99,0.62-1.47c-0.97,0.47-1.85,0.91-2.54,1.27c-0.82,0.42-1.39,0.72-1.71,0.97
	c-0.03,0.02-0.03-0.02-0.03,0c-0.07,0.24-0.09,0.65-0.06,1.24c0.04,0.77,0.15,1.77,0.32,2.99l0.1,0.78
	c0.36,2.58,0.81,5.89,0.66,9.27c-0.09,1.91-0.37,3.78-0.73,5.51c-0.36,1.72-0.79,3.28-1.19,4.57c-0.43,1.38-0.81,2.42-1.13,3.28
	c-0.25,0.68-0.45,1.23-0.57,1.65c-0.08,0.28-0.11,0.49-0.1,0.64c0.02,0.14,0.09,0.32,0.24,0.59c0.12,0.22,0.32,0.53,0.54,0.85
	c0.71,1.09,1.55,2.37,1.95,4.04c0.28,1.16,0.3,2.34,0.21,3.44c-0.09,1.03-0.26,1.95-0.42,2.71l-0.02,0.11h-0.01
	c-0.12,0.6-0.2,0.93-0.19,0.94c0.22,0.26,0.65,0.57,1.24,0.93c0.75,0.45,1.73,0.95,2.89,1.46c1.15,0.51,2.43,1.03,3.76,1.53
	c1.34,0.5,2.8,1,4.28,1.46c0.68,0.21,1.45,0.44,2.18,0.66c2.14,0.64,4.03,1.21,5.33,1.91c0.94,0.51,1.62,1.12,2.03,1.84
	c0.27,0.48,0.42,0.99,0.43,1.53c0,0.12,1.51,4.18-2.5,11.49c-0.36,0.89-0.95,1.79-2.01,3.14c-0.75,0.96-1.98,2.43-3.31,4
	c-1.62,1.9-3.15,3.66-4.11,4.72c-1.12,1.25-1.82,1.97-2.66,2.5c-0.98,0.62-1.82,0.81-3.15,0.96c-0.99,0.11-2.4,0.21-4,0.3
	c-1.43,0.08-3.24,0.16-5.05,0.25c-1.75,0.15-3.8-4.03-0.21-4.78c1.66-0.08,3.33-0.15,5-0.25c1.49-0.08,2.8-0.18,3.74-0.28
	c0.6-0.07,0.93-0.13,1.13-0.25c0.33-0.21,0.81-0.72,1.65-1.65c1.18-1.32,2.71-3.06,4.03-4.61c4.41-5.18,2.73-9.56-2.39-9
	c-1.24,0.22-2.46,0.38-3.73,0.46c-1.25,0.08-2.54,0.06-3.93-0.07c-1.39-0.13-2.84-0.37-4.41-0.73c-1.38-0.32-2.96-0.78-4.51-1.27
	c-1.77-0.57-3.42-1.16-4.65-1.65c-0.97-0.39-1.72-0.73-2.31-1.02c-0.36,0.94-0.78,2.11-1.23,3.41c-0.54,1.57-1.15,3.37-1.76,5.2
	c-0.57,1.7-1.2,3.64-1.88,5.74c-0.55,1.71-1.08,3.36-1.54,4.84l-0.61,1.98c-0.66,2.16-1.17,3.83-1.67,5.04
	c-2.19,5.31-2.32,7.33-3.04,9.61c-1.41,4.45-3.34,10.64-2.92,15.31c0.03,0.27,0.14,0.49,0.38,0.82c0.41,0.57,0.98,1.25,1.58,1.93
	c0.82,0.92,1.73,1.89,2.42,2.59l0.46,0.46l0,0c1.15,1.15,1.67,1.67,2.22,3.18c0.26,0.71,0.48,1.59,0.69,2.56
	c0.02,0.09,0.04,0.18,0.06,0.27c0.4,1.29-3.84,1.17-4.9,0c-0.11-0.48-0.23-0.89-0.34-1.2c-0.17-0.48-0.47-0.78-1.11-1.42v-0.01
	l-0.48-0.49c-0.71-0.72-1.67-1.74-2.59-2.78c-0.74-0.84-1.42-1.66-1.89-2.29c-0.76-1.05-1.14-1.82-1.26-3.22
	c-0.09-1.04,0.01-2.31,0.22-4.49c1.66-17.03,2.52-7.7-1.77-20.67c-0.38-1.15-0.67-2.76-0.97-5.15c-0.27-2.15-0.61-5.54-0.93-8.8
	c-0.26-2.61-0.51-5.14-0.76-7.23c-0.23-1.88-0.4-2.89-0.57-3.44c-0.04-0.13,0.02-0.09-0.01-0.11c-0.06-0.06-0.13-0.12-0.2-0.15
	c-0.1-0.04-0.26-0.07-0.52-0.07c-0.73,0-1.84,0.2-3.33,0.48c-0.78,0.14-1.65,0.3-1.99,0.36c-1.36,0.24-2.96,0.49-4.7,0.68
	c-1.71,0.19-3.58,0.33-5.53,0.34c-1.92,0.01-3.85-0.1-5.85-0.36c-2.01-0.25-4.05-0.64-6.14-1.15c-1.68-0.41-3.49-0.94-5.21-1.44
	c-2.22-0.64-4.25-1.23-5.65-1.45c-0.69-0.11-1.02-0.13-1.08-0.09c-0.12,0.07,0.13,0.01,0.1,0.17l0.01,0
	c-0.19,0.87-0.25,2.13-0.31,3.53c-0.04,0.91-0.08,1.87-0.14,2.62c-0.1,1.27-0.26,2.6-0.48,4c-0.23,1.4-0.5,2.79-0.83,4.18
	c-0.21,0.91-0.53,2.14-0.85,3.34c-0.43,1.66-0.85,3.26-1.09,4.55c-0.2,1.08-0.29,2.09-0.36,2.95c-0.07,0.77-0.12,1.45-0.27,2.18
	c-1.93,10.02-0.2,13.33,3.81,22.6c0.81,1.88,1.29,2.86,1.66,3.35c0.15,0.2,0.38,0.31,0.73,0.45c0.41,0.17,1.07,0.41,1.79,0.68
	c1.33,0.49,2.82,1.05,4.02,1.62c1,0.48,1.79,0.98,2.48,1.55c0.72,0.6,1.25,1.21,1.75,1.93c0.6,0.86,1.66,2.78,2.52,4.42
	c1.45,1.11-3.16,1.32-5.46,0c-0.33-0.63-0.67-1.21-1-1.69c-0.28-0.4-0.55-0.73-0.87-0.99c-0.34-0.29-0.81-0.57-1.49-0.89
	c-0.99-0.47-2.39-0.99-3.63-1.45c-0.67-0.25-1.29-0.48-1.92-0.73c-1.12-0.45-1.86-0.83-2.74-1.99c-0.66-0.87-1.29-2.13-2.26-4.36
	c-0.85-1.96-2.09-5.01-3.52-8.58c-4.97-8.01-6.41-6.54-9.48-12.84c-0.3-0.61-0.57-1.27-0.76-2.09c-0.19-0.81-0.27-1.72-0.2-2.79
	c0.08-1.19,0.37-2.54,0.68-4.05c0.16-0.75,0.33-1.56,0.51-2.58c0.23-1.27,0.4-2.55,0.51-3.72c0.11-1.17,0.17-2.29,0.16-3.29
	c-0.01-0.93-0.08-1.74-0.24-2.49c-0.15-0.68-0.37-1.3-0.68-1.89c-0.35-0.64-0.82-1.3-1.32-1.91c-0.52-0.63-1.08-1.22-1.57-1.71
	c-0.48-0.48-0.86-0.83-1.16-1.08l-0.1-0.08l-0.24,0.16c-0.67,0.43-1.61,1.11-2.67,1.99C67.6,95.2,66.73,96,65.9,96.88
	c-1.88,1.99-3.68,4.48-5.52,7.02l-0.32,0.44c-0.98,1.35-1.98,2.73-3.05,4.14c-1.05,1.38-2.08,2.68-3.07,3.81
	c-2.97,3.4-7.81,6.66-10.08,10.26c-1.7,2.71-3.66,7.55-5.37,20.09c-0.21,1.52-0.33,2.64-0.37,3.51c-0.04,0.66-0.03,1.1,0.07,1.43
	v0.01c0.09,0.31,0.31,0.66,0.71,1.15c0.95,1.19,2.74,2.98,4.64,4.84c0.88,1.32-4.81,1.2-6.73,0c-0.63-0.67-1.19-1.3-1.64-1.86
	c-0.8-1-1.28-1.82-1.57-2.77l0,0c-0.28-0.93-0.32-1.84-0.26-3.04c0.05-1,0.18-2.24,0.41-3.9c0.22-1.63,0.54-3.64,0.96-6.2
	c2.21-13.4,3.28-10.71,0.54-21.6h0c-0.51-2.06,0.29-2.67,2.15-4.08l0.13-0.1c0.48-0.37,1.11-0.85,1.82-1.46
	c0.64-0.55,1.31-1.18,1.89-1.85c0.55-0.64,1.04-1.34,1.47-2.1l0,0c0.43-0.75,0.8-1.59,1.13-2.5c0.33-0.9,0.6-1.85,0.77-2.93
	c0.17-1.09,0.25-2.34,0.18-3.82c-0.07-1.51-0.31-3.26-0.65-5.08c-0.36-1.88-0.83-3.81-1.38-5.58c-0.44-1.41-0.96-2.84-1.49-4.26
	c-0.75-2.02-1.49-4.03-2.12-6.44c-0.55-2.11-0.97-4.45-1.2-6.74c-0.22-2.16-0.26-4.29-0.08-6.18c0.2-2.03,0.66-3.77,1.23-5.26
	c0.57-1.49,1.26-2.72,1.91-3.76c0.51-0.82,1.01-1.53,1.57-2.2c-0.22-0.04-0.44-0.09-0.67-0.15c-0.42-0.1-0.86-0.21-1.33-0.33
	c-1.72-0.43-3.74-0.94-5.49-0.96c-1.04-0.01-2.04,0.15-2.97,0.49c-0.85,0.31-1.65,0.78-2.36,1.43c-0.78,0.71-1.45,1.61-1.83,2.71
	c-0.34,0.98-0.47,2.15-0.29,3.53c0.44,3.39,2.75,8.11,5.21,13.15l0.09,0.18c1.27,2.6,2.58,5.29,3.81,8.2
	c1.2,2.83,2.23,5.68,2.86,8.46c0.65,2.83,0.88,5.58,0.74,8.09c-0.15,2.65-0.72,5.07-1.67,7.1c-1,2.12-2.42,3.82-4.21,5.05
	c-1.77,1.22-3.88,1.96-6.26,2.18c-1.92,0.18-3.99,0.01-5.93-0.33c-2.51-0.43-4.91-1.16-6.53-1.78c-1.78-0.68-2.8-1.34-3.29-1.82
	c-0.36-0.35-0.6-0.72-0.74-1.09l0.01,0c-0.39-1.03-0.17-1.94,0.53-2.66l0.01-0.01c0.42-0.43,0.97-0.69,1.58-0.75
	c0.63-0.06,1.07,0.07,1.68,0.25c0.49,0.15,1.2,0.36,2.06,0.42c0.79,0.05,1.75-0.01,2.7-0.19c0.81-0.16,1.58-0.39,2.18-0.71
	c0.5-0.27,0.89-0.61,1.17-1.01c0.28-0.4,0.45-0.87,0.51-1.39c0.07-0.55,0.02-1.16-0.2-1.84c-0.26-0.81-0.72-1.71-1.46-2.73
	c-0.82-1.14-2.06-2.54-3.54-4.18c-1.41-1.58-3.02-3.39-4.82-5.63c-2.05-2.54-4.25-5.54-6.09-8.66c-1.51-2.55-2.78-5.2-3.56-7.76
	c-0.83-2.75-1.09-5.4-0.95-7.87c0.16-2.87,0.87-5.49,1.85-7.74c0.91-2.11,2.05-3.89,3.39-5.46c1.33-1.55,2.83-2.88,4.5-4.1
	c1.65-1.21,3.48-2.32,5.48-3.22c2.02-0.91,4.21-1.58,6.56-1.9c2.31-0.31,4.75-0.26,7.09,0.09c2.39,0.36,4.74,1.05,6.83,2
	c1.83,0.84,3.43,1.88,4.7,2.89C45.57,43.12,46.76,44.49,47.3,45.45 M159.8,80.16c2.56-1.45,4.87,0.87,3.71,3.02l-2.87,3.53
	c0.34,0.15,0.72,0.32,1.17,0.49c1.19,0.48,2.73,1.04,4.31,1.54c1.34,0.43,2.78,0.84,4.15,1.16c1.41,0.33,2.64,0.53,3.75,0.64
	c9.52,0.88,23.42,1.71,5.17-5.09c-1.45-0.54-2.83-1.1-4.04-1.64c-1.31-0.58-2.46-1.17-3.41-1.74c-1.02-0.61-1.82-1.24-2.36-1.86
	c-1.54-1.77-1.3-2.97-0.89-5.02l-0.01,0l0.02-0.11c0.13-0.64,0.28-1.41,0.34-2.16c0.06-0.68,0.06-1.36-0.08-1.92
	c-0.2-0.83-0.8-1.75-1.32-2.54c-0.25-0.38-0.48-0.74-0.7-1.13c-0.47-0.85-0.74-1.61-0.82-2.43c-0.09-0.81,0-1.55,0.23-2.38
	c0.17-0.63,0.4-1.27,0.7-2.06c0.3-0.82,0.67-1.81,1.05-3.05c0.37-1.18,0.76-2.6,1.08-4.11c0.32-1.51,0.56-3.14,0.63-4.74
	c0.14-2.95-0.29-6.02-0.62-8.41l-0.11-0.79c-0.18-1.35-0.31-2.47-0.35-3.41c-0.05-1.12,0.01-2.04,0.24-2.82
	c0.31-1.05,0.82-1.77,1.72-2.45c0.6-0.46,1.36-0.86,2.44-1.42c1.03-0.53,2.35-1.19,3.47-1.73c1.26-0.6,2.51-1.15,3.45-1.46
	c1.67-0.56,2.83-0.39,3.66,0.26c1.25,0.99,1.28,2.23,0.73,3.64c-0.28,0.72-0.69,1.43-1.14,2.22c-0.28,0.48-0.57,1-0.78,1.4
	c-0.29,0.56-0.57,1.14-0.78,1.74c-0.18,0.5-0.3,0.97-0.32,1.36c-0.02,0.36,0.04,0.73,0.18,1.15c0.17,0.54,0.46,1.18,0.84,1.98
	l0.56,1.15c0.82,1.64,1.74,3.48,2.19,5.01c0.34,1.18,0.41,2.17,0.3,3.04c-0.12,0.97-0.46,1.75-0.89,2.41
	c-0.39,0.6-0.84,1.09-1.31,1.52h-0.01c-0.44,0.39-0.84,0.69-1.23,0.99l-0.02,0.01c-0.26,0.19-0.47-0.25-0.48,0.06
	c0,0.03,0.04,0.05,0.11,0.2c0.17,0.37,0.48,0.83,0.87,1.34c0.37,0.48,0.79,0.98,1.29,1.42c0.45,0.4,0.94,0.75,1.48,0.98
	c0.52,0.23,1.14,0.37,1.77,0.45c0.72,0.09,1.41,0.08,1.95-0.01c0.37-0.06,0.64-0.15,0.82-0.27c0.11-0.07,0.21-0.2,0.3-0.39h0.01
	c0.17-0.33,0.35-0.97,0.59-1.82c0.25-0.88,0.56-1.95,1.06-3.38c0.55-1.53,1.33-3.45,2.18-5.31c0.76-1.67,1.57-3.25,2.29-4.43
	c0.89-1.44,1.69-2.37,2.35-3.12c0.4-0.46,0.72-0.83,0.86-1.11c0.15-0.3,0.27-0.86,0.39-1.42c0.19-0.89,0.39-1.79,0.86-2.71
	c0.54-1.06,1.28-1.82,2.02-2.59c0.36-0.38,0.73-0.75,0.99-1.12c0.29-0.41,0.52-0.88,0.71-1.37c0.22-0.58,0.4-1.22,0.57-1.85
	c0.16-0.62,0.32-1.22,0.41-1.8c0.07-0.44,0.09-0.84,0.04-1.18c-0.05-0.26-0.16-0.54-0.41-0.89c-0.39-0.55-1.01-1.21-1.95-2.07
	c-1.08-0.99-2.59-2.24-4.35-3.57c-1.49-1.13-3.1-2.26-4.69-3.26c-1.71-1.08-3.44-2.02-5.25-2.84c-1.8-0.82-3.66-1.5-5.66-2.06
	c-2.09-0.58-4.32-1.03-6.6-1.27c-2.07-0.22-4.2-0.27-6.33-0.11c-2.2,0.17-4.39,0.58-6.59,1.29c-2.23,0.72-4.51,1.76-6.9,3.19
	c-2.43,1.46-4.99,3.33-7.57,5.4c-2.58,2.08-5.21,4.39-7.77,6.7c-1.85,1.67-3.52,3.19-5.11,4.66c-3.15,2.89-6.05,5.55-8.66,7.72
	c-1.98,1.65-3.7,2.93-5.43,3.98l0,0c-1.76,1.06-3.55,1.87-5.63,2.57c-2.09,0.7-4.45,1.26-6.98,1.62c-2.35,0.34-4.89,0.51-7.54,0.48
	c-5.37-0.07-11-1.01-16.79-1.97l-0.08-0.01c-2.89-0.48-5.81-0.97-8.5-1.31c-2.72-0.35-5.32-0.57-7.67-0.55
	c-2.26,0.02-4.31,0.28-6.21,0.73c-1.86,0.44-3.58,1.08-5.22,1.86c-1.47,0.7-2.87,1.52-4.14,2.35c-1.64,1.08-3.08,2.18-4.21,3.13
	c-0.98,0.82-1.72,1.51-2.33,2.2c-0.61,0.67-1.11,1.36-1.62,2.17c-0.53,0.84-1.06,1.8-1.5,2.94c-0.44,1.13-0.78,2.44-0.93,3.99
	c-0.15,1.57-0.11,3.39,0.08,5.26c0.2,2.04,0.58,4.12,1.07,6.01c0.54,2.09,1.26,4.04,1.98,5.99c0.53,1.42,1.05,2.85,1.57,4.51
	c0.6,1.95,1.13,4.05,1.52,6.11c0.38,2.01,0.64,3.99,0.73,5.74c0.09,1.82-0.01,3.39-0.23,4.79c-0.23,1.43-0.58,2.66-1,3.81
	c-0.41,1.13-0.9,2.2-1.47,3.22v0.01c-0.58,1.02-1.24,1.98-2.01,2.87c-0.75,0.87-1.58,1.66-2.38,2.34c-3.41,2.94,0.64,3.91,2.96,1.83
	l0.01-0.01c1.34-1.2,3.1-2.79,4.91-4.85c0.95-1.08,1.9-2.29,2.86-3.54c0.94-1.23,1.96-2.63,2.98-4.05l0.32-0.44
	c3.2-4.43,4.97-7.23,8.97-10.41h0.01c1.15-0.91,2.27-1.75,3.35-2.47l0,0c1.02-0.68,2.02-1.27,3.02-1.85
	c1.05-0.62,2.1-1.23,3.16-1.96c0.92-0.64,1.85-1.37,2.7-2.26c0.82-0.86,1.58-1.87,2.2-3.09c0.65-1.29,1.18-2.86,1.64-4.57
	c0.49-1.81,0.9-3.75,1.31-5.69c1.8-2.79,4.68-1.74,4.68,0.99c-0.43,2.02-0.86,4.04-1.37,5.93c-0.54,1.99-1.17,3.86-2,5.49
	c-0.06,0.12-0.12,0.23-0.18,0.34c1.5,0.68,3.05,1.32,4.77,1.82c3.42,1,13.69,3.43,17.62,4.4c1.97,0.48,3.83,0.83,5.59,1.06h0.01
	c1.79,0.22,3.52,0.33,5.23,0.32c1.68-0.01,3.39-0.14,5.02-0.33c1.6-0.18,3.11-0.42,4.42-0.65c1.08-0.19,1.52-0.27,1.93-0.34
	c1.79-0.33,3.11-0.58,4.19-0.58c0.97,0,1.76,0.18,2.41,0.46c0.69,0.3,1.19,0.68,1.61,1.09c0.51,0.48,0.93,0.98,1.3,2.22
	c0.24,0.82,0.48,2.08,0.74,4.23c0.2,1.67,0.48,4.45,0.76,7.32c0.3,2.99,0.61,6.09,0.93,8.69c1.15,9.15,4.08,7.72,5.58-0.88
	l0.61-1.99c0.46-1.47,0.99-3.14,1.56-4.9c0.53-1.65,1.19-3.64,1.9-5.77c0.62-1.86,1.23-3.68,1.78-5.26
	C154.69,84.62,153.43,88.01,159.8,80.16 M88.79,88.35c-0.46-0.12-0.92-0.24-1.36-0.37c-2.39-0.7-4.39-1.57-6.31-2.47
	c-1.09,1.13-2.25,2.05-3.4,2.84c-0.72,0.5-1.45,0.95-2.16,1.38c0.13,0.12,0.27,0.26,0.41,0.4l0.01,0.01
	c0.56,0.56,1.21,1.25,1.87,2.05c0.67,0.82,1.33,1.74,1.84,2.7c0.54,1.01,0.91,2.04,1.15,3.15c0.22,1.04,0.32,2.17,0.34,3.45
	c0.01,1.16-0.05,2.44-0.17,3.76c-0.13,1.43-0.32,2.84-0.55,4.12c-0.15,0.83-0.35,1.81-0.55,2.73c-0.28,1.33-0.53,2.51-0.59,3.39
	c-0.36,5.06,4.84,3.87,5.26-1.07c0.08-0.93,0.17-1.99,0.44-3.42c0.27-1.46,0.71-3.14,1.16-4.89c0.25-0.98,0.51-1.98,0.81-3.23
	c0.32-1.38,0.58-2.65,0.77-3.84c0.19-1.19,0.34-2.39,0.43-3.6c0.07-0.98,0.1-1.73,0.14-2.45c0.07-1.67,0.14-3.18,0.4-4.37h0.01
	C88.75,88.51,88.77,88.43,88.79,88.35 M38.68,44.02c-0.45-0.26-0.93-0.51-1.43-0.74c-1.65-0.76-3.56-1.31-5.55-1.61
	c-1.95-0.29-3.92-0.34-5.76-0.09c-1.85,0.25-3.6,0.79-5.23,1.52c-1.65,0.74-3.19,1.68-4.6,2.71c-1.39,1.02-2.63,2.11-3.7,3.35
	c-1.05,1.23-1.94,2.61-2.64,4.24c-0.77,1.77-1.33,3.84-1.46,6.11c-0.11,1.93,0.1,4.03,0.76,6.22c0.66,2.18,1.77,4.48,3.09,6.71
	c1.72,2.91,3.78,5.72,5.7,8.1c1.65,2.05,3.26,3.86,4.68,5.44c1.52,1.7,2.8,3.14,3.83,4.58c1.06,1.48,1.76,2.83,2.15,4.08
	c0.44,1.38,0.54,2.66,0.39,3.86c-0.16,1.28-0.6,2.49-1.34,3.54c-0.58,0.84-1.35,1.57-2.31,2.17c0.87,0.07,1.72,0.08,2.51,0.01
	c1.54-0.14,2.88-0.6,3.97-1.36c1.08-0.75,1.96-1.81,2.6-3.16c0.69-1.47,1.11-3.29,1.22-5.32c0.12-2.09-0.09-4.4-0.63-6.78
	c-0.56-2.48-1.5-5.06-2.6-7.66c-1.07-2.52-2.41-5.27-3.72-7.95l-0.09-0.18c-2.63-5.38-5.1-10.43-5.64-14.63
	c-0.28-2.16-0.05-4.06,0.52-5.7c0.68-1.96,1.81-3.51,3.12-4.7c1.18-1.07,2.52-1.86,3.96-2.39c1.46-0.53,3.02-0.78,4.62-0.77
	C36.33,43.65,37.54,43.81,38.68,44.02"/>
</svg>
