<?xml version="1.0" encoding="utf-8"?>
<!-- Generator: Adobe Illustrator 25.4.0, SVG Export Plug-In . SVG Version: 6.00 Build 0)  -->
<svg version="1.1" id="Layer_1" xmlns="http://www.w3.org/2000/svg" xmlns:xlink="http://www.w3.org/1999/xlink" x="0px" y="0px"
	 viewBox="0 0 179.44 311.22" style="enable-background:new 0 0 179.44 311.22;" xml:space="preserve">
<style type="text/css">
	.st0{fill-rule:evenodd;clip-rule:evenodd;fill:#FC2658;}
</style>
<g>
	<path class="st0" d="M171.03,16.82c-4.65,0-8.41-3.76-8.41-8.41c0-4.62,3.76-8.41,8.41-8.41c4.65,0,8.41,3.79,8.41,8.41
		C179.44,13.07,175.69,16.82,171.03,16.82"/>
	<path class="st0" d="M171.03,58.88c-4.65,0-8.41-3.76-8.41-8.41c0-4.65,3.76-8.41,8.41-8.41c4.65,0,8.41,3.76,8.41,8.41
		C179.44,55.12,175.69,58.88,171.03,58.88"/>
	<path class="st0" d="M171.03,100.94c-4.65,0-8.41-3.76-8.41-8.41c0-4.62,3.76-8.41,8.41-8.41c4.65,0,8.41,3.79,8.41,8.41
		C179.44,97.18,175.69,100.94,171.03,100.94"/>
	<path class="st0" d="M171.03,142.99c-4.65,0-8.41-3.76-8.41-8.41c0-4.65,3.76-8.41,8.41-8.41c4.65,0,8.41,3.76,8.41,8.41
		C179.44,139.23,175.69,142.99,171.03,142.99"/>
	<path class="st0" d="M171.03,185.05c-4.65,0-8.41-3.76-8.41-8.41c0-4.62,3.76-8.41,8.41-8.41c4.65,0,8.41,3.79,8.41,8.41
		C179.44,181.29,175.69,185.05,171.03,185.05"/>
	<path class="st0" d="M171.03,227.1c-4.65,0-8.41-3.76-8.41-8.41c0-4.62,3.76-8.41,8.41-8.41c4.65,0,8.41,3.79,8.41,8.41
		C179.44,223.35,175.69,227.1,171.03,227.1"/>
	<path class="st0" d="M171.03,269.16c-4.65,0-8.41-3.76-8.41-8.41c0-4.65,3.76-8.41,8.41-8.41c4.65,0,8.41,3.76,8.41,8.41
		C179.44,265.4,175.69,269.16,171.03,269.16"/>
	<path class="st0" d="M171.03,311.22c-4.65,0-8.41-3.76-8.41-8.41c0-4.62,3.76-8.41,8.41-8.41c4.65,0,8.41,3.79,8.41,8.41
		C179.44,307.46,175.69,311.22,171.03,311.22"/>
	<path class="st0" d="M130.37,16.82c-4.65,0-8.41-3.76-8.41-8.41c0-4.62,3.76-8.41,8.41-8.41c4.66,0,8.41,3.79,8.41,8.41
		C138.78,13.07,135.03,16.82,130.37,16.82"/>
	<path class="st0" d="M130.37,58.88c-4.65,0-8.41-3.76-8.41-8.41c0-4.65,3.76-8.41,8.41-8.41c4.66,0,8.41,3.76,8.41,8.41
		C138.78,55.12,135.03,58.88,130.37,58.88"/>
	<path class="st0" d="M130.37,100.94c-4.65,0-8.41-3.76-8.41-8.41c0-4.62,3.76-8.41,8.41-8.41c4.66,0,8.41,3.79,8.41,8.41
		C138.78,97.18,135.03,100.94,130.37,100.94"/>
	<path class="st0" d="M130.37,142.99c-4.65,0-8.41-3.76-8.41-8.41c0-4.65,3.76-8.41,8.41-8.41c4.66,0,8.41,3.76,8.41,8.41
		C138.78,139.23,135.03,142.99,130.37,142.99"/>
	<path class="st0" d="M130.37,185.05c-4.65,0-8.41-3.76-8.41-8.41c0-4.62,3.76-8.41,8.41-8.41c4.66,0,8.41,3.79,8.41,8.41
		C138.78,181.29,135.03,185.05,130.37,185.05"/>
	<path class="st0" d="M130.37,227.1c-4.65,0-8.41-3.76-8.41-8.41c0-4.62,3.76-8.41,8.41-8.41c4.66,0,8.41,3.79,8.41,8.41
		C138.78,223.35,135.03,227.1,130.37,227.1"/>
	<path class="st0" d="M130.37,269.16c-4.65,0-8.41-3.76-8.41-8.41c0-4.65,3.76-8.41,8.41-8.41c4.66,0,8.41,3.76,8.41,8.41
		C138.78,265.4,135.03,269.16,130.37,269.16"/>
	<path class="st0" d="M130.37,311.22c-4.65,0-8.41-3.76-8.41-8.41c0-4.62,3.76-8.41,8.41-8.41c4.66,0,8.41,3.79,8.41,8.41
		C138.78,307.46,135.03,311.22,130.37,311.22"/>
	<path class="st0" d="M89.72,16.82c-4.65,0-8.41-3.76-8.41-8.41c0-4.62,3.76-8.41,8.41-8.41c4.66,0,8.41,3.79,8.41,8.41
		C98.13,13.07,94.38,16.82,89.72,16.82"/>
	<path class="st0" d="M89.72,58.88c-4.65,0-8.41-3.76-8.41-8.41c0-4.65,3.76-8.41,8.41-8.41c4.66,0,8.41,3.76,8.41,8.41
		C98.13,55.12,94.38,58.88,89.72,58.88"/>
	<path class="st0" d="M89.72,100.94c-4.65,0-8.41-3.76-8.41-8.41c0-4.62,3.76-8.41,8.41-8.41c4.66,0,8.41,3.79,8.41,8.41
		C98.13,97.18,94.38,100.94,89.72,100.94"/>
	<path class="st0" d="M89.72,142.99c-4.65,0-8.41-3.76-8.41-8.41c0-4.65,3.76-8.41,8.41-8.41c4.66,0,8.41,3.76,8.41,8.41
		C98.13,139.23,94.38,142.99,89.72,142.99"/>
	<path class="st0" d="M89.72,185.05c-4.65,0-8.41-3.76-8.41-8.41c0-4.62,3.76-8.41,8.41-8.41c4.66,0,8.41,3.79,8.41,8.41
		C98.13,181.29,94.38,185.05,89.72,185.05"/>
	<path class="st0" d="M89.72,227.1c-4.65,0-8.41-3.76-8.41-8.41c0-4.62,3.76-8.41,8.41-8.41c4.66,0,8.41,3.79,8.41,8.41
		C98.13,223.35,94.38,227.1,89.72,227.1"/>
	<path class="st0" d="M89.72,269.16c-4.65,0-8.41-3.76-8.41-8.41c0-4.65,3.76-8.41,8.41-8.41c4.66,0,8.41,3.76,8.41,8.41
		C98.13,265.4,94.38,269.16,89.72,269.16"/>
	<path class="st0" d="M89.72,311.22c-4.65,0-8.41-3.76-8.41-8.41c0-4.62,3.76-8.41,8.41-8.41c4.66,0,8.41,3.79,8.41,8.41
		C98.13,307.46,94.38,311.22,89.72,311.22"/>
	<path class="st0" d="M49.07,16.82c-4.65,0-8.41-3.76-8.41-8.41c0-4.62,3.76-8.41,8.41-8.41c4.65,0,8.41,3.79,8.41,8.41
		C57.48,13.07,53.73,16.82,49.07,16.82"/>
	<path class="st0" d="M49.07,58.88c-4.65,0-8.41-3.76-8.41-8.41c0-4.65,3.76-8.41,8.41-8.41c4.65,0,8.41,3.76,8.41,8.41
		C57.48,55.12,53.73,58.88,49.07,58.88"/>
	<path class="st0" d="M49.07,100.94c-4.65,0-8.41-3.76-8.41-8.41c0-4.62,3.76-8.41,8.41-8.41c4.65,0,8.41,3.79,8.41,8.41
		C57.48,97.18,53.73,100.94,49.07,100.94"/>
	<path class="st0" d="M49.07,142.99c-4.65,0-8.41-3.76-8.41-8.41c0-4.65,3.76-8.41,8.41-8.41c4.65,0,8.41,3.76,8.41,8.41
		C57.48,139.23,53.73,142.99,49.07,142.99"/>
	<path class="st0" d="M49.07,185.05c-4.65,0-8.41-3.76-8.41-8.41c0-4.62,3.76-8.41,8.41-8.41c4.65,0,8.41,3.79,8.41,8.41
		C57.48,181.29,53.73,185.05,49.07,185.05"/>
	<path class="st0" d="M49.07,227.1c-4.65,0-8.41-3.76-8.41-8.41c0-4.62,3.76-8.41,8.41-8.41c4.65,0,8.41,3.79,8.41,8.41
		C57.48,223.35,53.73,227.1,49.07,227.1"/>
	<path class="st0" d="M49.07,269.16c-4.65,0-8.41-3.76-8.41-8.41c0-4.65,3.76-8.41,8.41-8.41c4.65,0,8.41,3.76,8.41,8.41
		C57.48,265.4,53.73,269.16,49.07,269.16"/>
	<path class="st0" d="M49.07,311.22c-4.65,0-8.41-3.76-8.41-8.41c0-4.62,3.76-8.41,8.41-8.41c4.65,0,8.41,3.79,8.41,8.41
		C57.48,307.46,53.73,311.22,49.07,311.22"/>
	<path class="st0" d="M8.41,16.82C3.76,16.82,0,13.07,0,8.41C0,3.79,3.76,0,8.41,0c4.65,0,8.41,3.79,8.41,8.41
		C16.82,13.07,13.06,16.82,8.41,16.82"/>
	<path class="st0" d="M8.41,58.88C3.76,58.88,0,55.12,0,50.47c0-4.65,3.76-8.41,8.41-8.41c4.65,0,8.41,3.76,8.41,8.41
		C16.82,55.12,13.06,58.88,8.41,58.88"/>
	<path class="st0" d="M8.41,100.94c-4.66,0-8.41-3.76-8.41-8.41c0-4.62,3.76-8.41,8.41-8.41c4.65,0,8.41,3.79,8.41,8.41
		C16.82,97.18,13.06,100.94,8.41,100.94"/>
	<path class="st0" d="M8.41,142.99c-4.66,0-8.41-3.76-8.41-8.41c0-4.65,3.76-8.41,8.41-8.41c4.65,0,8.41,3.76,8.41,8.41
		C16.82,139.23,13.06,142.99,8.41,142.99"/>
	<path class="st0" d="M8.41,185.05c-4.66,0-8.41-3.76-8.41-8.41c0-4.62,3.76-8.41,8.41-8.41c4.65,0,8.41,3.79,8.41,8.41
		C16.82,181.29,13.06,185.05,8.41,185.05"/>
	<path class="st0" d="M8.41,227.1c-4.66,0-8.41-3.76-8.41-8.41c0-4.62,3.76-8.41,8.41-8.41c4.65,0,8.41,3.79,8.41,8.41
		C16.82,223.35,13.06,227.1,8.41,227.1"/>
	<path class="st0" d="M8.41,269.16c-4.66,0-8.41-3.76-8.41-8.41c0-4.65,3.76-8.41,8.41-8.41c4.65,0,8.41,3.76,8.41,8.41
		C16.82,265.4,13.06,269.16,8.41,269.16"/>
	<path class="st0" d="M8.41,311.22c-4.66,0-8.41-3.76-8.41-8.41c0-4.62,3.76-8.41,8.41-8.41c4.65,0,8.41,3.79,8.41,8.41
		C16.82,307.46,13.06,311.22,8.41,311.22"/>
</g>
</svg>
