<?xml version="1.0" encoding="utf-8"?>
<!-- Generator: Adobe Illustrator 25.4.0, SVG Export Plug-In . SVG Version: 6.00 Build 0)  -->
<svg version="1.1" id="Layer_1" xmlns="http://www.w3.org/2000/svg" xmlns:xlink="http://www.w3.org/1999/xlink" x="0px" y="0px"
	 viewBox="0 0 197.3 159" style="enable-background:new 0 0 197.3 159;" xml:space="preserve">
<style type="text/css">
	.st0{fill-rule:evenodd;clip-rule:evenodd;fill:#FFFFFF;}
	.st1{fill-rule:evenodd;clip-rule:evenodd;}
	.st2{fill-rule:evenodd;clip-rule:evenodd;fill:#F77819;}
	.st3{fill-rule:evenodd;clip-rule:evenodd;fill:#FFDB29;}
</style>
<path class="st0" d="M42.94,123.31c-0.94-2.99-1.91-6.08-2.47-8.47c-0.67-2.81-0.84-4.89-0.6-6.95c0.28-2.29,1.06-4.37,2.54-6.72
	c1.21-1.93,2.85-3.99,4.43-5.98 M46.87,95.16c0.96-1.2,1.86-2.34,2.62-3.39c0.77-1.06,1.31-1.93,1.6-2.56
	c0.05-0.1,0.08-0.19,0.11-0.26c-0.11-0.19-0.34-0.51-0.79-0.95c-0.65-0.64-1.6-1.39-2.83-2.24c-1.16-0.79-2.57-1.67-4.3-2.68
	c-0.59-0.34-1.06-0.62-1.46-0.85l-1.63-0.91c-2.25-1.27-4.58-2.58-6.66-3.98c-0.56-0.37-1.07-0.74-1.56-1.11l-3-2.66
	c-1.5-1.6-2.67-3.38-3.6-5.44c-0.77-1.72-1.42-3.76-1.91-6.05c-0.38-1.74-0.7-3.75-0.95-5.96c-0.08-0.72-0.19-1.91-0.3-3.06
	c-0.19-2.08-0.37-4.05-0.74-5.46c-0.19-0.72-0.43-1.3-0.77-1.87c-0.43-0.7-1.09-1.51-2.03-2.47c-1.64-1.68-4.07-3.74-6.42-5.73
	c-0.86-0.73-1.71-1.45-2.88-2.47C7.62,33.54,6.15,32.17,4.99,31c-1.42-1.44-2.46-2.68-3.17-3.78c-3.95-6.13-0.6-9.97,1.76-11.72
	c1.73-1.28,4.02-1.92,7.42-2.07c0.76-0.03,1.6-0.05,2.5-0.05c2.07,0,4.29,0.09,6.44,0.25c3.06,0.23,5.9,0.61,8.44,1.13
	c3.36,0.68,6.24,1.63,9.06,2.98c2.79,1.34,5.42,3.01,8.25,5.26c3.9,3.1,7.99,7.12,12.72,11.77c1.33,1.31,2.7,2.65,4.18,4.1
	c3.63,3.52,7.25,6.92,10.46,9.82c2.6,2.35,4.91,4.34,6.88,5.93c-0.07-1.13-0.08-2.35,0.04-3.66c0.18-2.09,0.68-4.3,1.43-6.4
	c0.79-2.2,1.82-4.14,3.05-5.77c1.4-1.85,3.1-3.37,5.22-4.66c1.56-0.96,3.36-1.79,5.83-2.71c2.7-1.01,5.64-1.93,8.75-2.9
	c1.53-0.48,3.09-0.97,4.56-1.45c2.52-0.82,4.64-1.56,6.47-2.25c2.13-0.81,3.92-1.57,5.46-2.33c1.58-0.78,2.9-1.55,4.03-2.37
	c1.15-0.83,2.23-1.8,3.29-2.95c1.02-1.1,2.19-2.58,3.49-4.39c1.31-1.82,2.32-3.37,3.18-4.67l0.22-0.34c2.6-3.99,4.66-7.14,9.09-7.7
	c0.38-0.05,0.76-0.07,1.13-0.07c2.04,0,4.99,0.71,7.42,4.12c0.85,1.2,1.62,2.74,2.33,4.7c0.64,1.76,1.17,3.64,1.63,5.74
	c0.52,2.38,0.95,5.04,1.32,8.14c0.43,3.61,0.77,7.8,0.95,11.8c0.18,3.97,0.19,7.58,0.03,10.73c-0.17,3.35-0.55,6.63-1.16,10.03
	c-0.14,0.76-0.28,1.51-0.45,2.31c2.06,1.1,4.23,2.38,6.6,3.88c3.11,1.97,6.75,4.45,10.24,6.99c3.5,2.55,6.66,5.01,9.13,7.12
	c2.62,2.24,4.91,4.43,6.81,6.53c1.62,1.79,3.03,3.61,4.19,5.39c1.25,1.92,2.06,3.58,2.54,5.22c0.65,2.2,0.72,4.31,0.22,6.48
	c-0.49,2.1-1.48,4.05-2.96,5.79c-1.32,1.56-3.08,3-5.21,4.26c-1.76,1.04-3.92,2.06-6.43,3.04c-2.31,0.9-4.97,1.77-7.69,2.52
	c-2.6,0.71-5.14,1.28-7.56,1.7c-2.51,0.43-4.95,0.71-7.27,0.83c-0.81,0.04-1.6,0.07-2.34,0.07c-1.71,0-3.24-0.11-4.69-0.33
	c-0.54-0.09-1.07-0.19-1.59-0.31c-0.97,1.61-2.05,3.09-3.29,4.49c-1.43,1.61-3.22,3.27-5.18,4.82c-1.92,1.51-4.02,2.91-6.07,4.05
	c-1.97,1.1-3.99,2.02-6.01,2.74c-2.04,0.73-4.15,1.27-6.27,1.61c-1.67,0.27-3.34,0.4-4.98,0.4c-0.15,0-0.3,0-0.44,0
	c-1.87-0.03-3.67-0.23-5.35-0.61c-1.74-0.39-3.32-0.95-4.71-1.67c-1.8-0.94-3.27-2.16-4.36-3.61c-1.22-1.63-1.95-3.51-2.17-5.58
	c-0.14-1.33-0.07-2.73,0.23-4.26c0.23-1.22,0.58-2.41,1.06-3.63c0.47-1.2,1.08-2.47,1.86-3.87c0.53-0.94,1.22-2.09,2.18-3.6
	c-0.02-0.01-0.03-0.03-0.05-0.04c-1.4-1.18-2.85-2.58-4.58-4.41c-1.24-1.31-1.76-1.88-2.26-2.43c-1.79-1.96-3.63-3.98-4.98-5.06
	c-0.6-0.48-1.17-0.82-1.69-1.02c-0.36-0.14-0.69-0.21-1.04-0.21l-0.11,0c-0.37,0-0.74,0.05-1.1,0.16c-0.29,0.08-0.56,0.19-0.8,0.33
	l-0.22,0.15c-0.34,0.23-0.64,0.51-0.89,0.83c-0.28,0.35-0.5,0.75-0.66,1.19c-0.45,1.19-0.63,3.2-0.88,5.97l-0.09,0.96
	c-0.18,1.91-0.42,4.43-0.76,6.92c-0.41,3-0.87,5.53-1.43,7.73c-0.6,2.4-1.38,4.72-2.38,7.09c-0.84,1.98-1.77,3.87-2.93,5.95
	c-1.22,2.18-2.34,3.94-3.64,5.7c-1.53,2.08-3.28,4.12-5.36,6.23c-1.99,2.02-4.54,4.35-7.17,6.57c-2.68,2.26-5.21,4.18-7.12,5.42
	c-2.61,1.69-4.86,2.62-6.88,2.86C50.36,158.98,50,159,49.65,159c-1.03,0-2.05-0.17-3.01-0.52c-1.75-0.63-3.2-1.77-4.2-3.31
	c-0.73-1.13-1.18-2.38-1.33-3.73c-0.34-2.94,0.77-5.39,1.95-7.98l0.59-1.31c0.57-1.29,0.99-2.37,1.32-3.4
	c0.38-1.16,0.61-2.17,0.7-3.02c0.09-0.82,0.06-1.7-0.1-2.75c-0.17-1.16-0.51-2.57-1.08-4.56c-0.47-1.64-1.02-3.38-1.54-5.05
	 M55.01,109.78c0.01,0.17,0.07,0.61,0.29,1.55c0.47,1.99,1.34,4.76,2.18,7.44l0.03,0.09c0.58,1.86,1.18,3.78,1.64,5.36
	c0.76,2.64,1.22,4.65,1.5,6.53c0.14,0.95,0.23,1.87,0.28,2.77c0.04-0.04,0.07-0.07,0.11-0.11c1.55-1.58,2.84-3.07,3.93-4.56
	c0.89-1.21,1.7-2.49,2.62-4.14c0.94-1.68,1.64-3.08,2.2-4.42c0.66-1.57,1.19-3.16,1.62-4.87c0.42-1.69,0.8-3.74,1.12-6.08
	c0.32-2.34,0.54-4.57,0.69-6.26l0.09-0.95c0.35-3.84,0.62-6.88,1.79-9.96c0.7-1.86,1.68-3.61,2.92-5.19
	c1.26-1.61,2.72-2.99,4.36-4.1l3.32-2.25L85.94,81c0.57-0.23,1.16-0.43,1.76-0.6c1.73-0.5,3.52-0.76,5.32-0.76
	c0.16,0,0.33,0,0.49,0.01c2.15,0.06,4.14,0.45,6.09,1.19c1.98,0.76,3.86,1.86,5.76,3.38c2.41,1.93,4.6,4.33,6.73,6.66
	c0.65,0.72,1.87,2.05,2.06,2.25c1.23,1.31,2.31,2.33,3.37,3.23c1.04,0.88,2.04,1.58,3.05,2.15c1.01,0.57,2.14,1.06,3.35,1.47
	c1.3,0.44,2.73,0.79,4.26,1.06c1.31,0.23,2.66,0.38,4.03,0.46c0.76,0.04,1.51,0.07,2.24,0.07c0.61,0,1.21-0.02,1.77-0.05
	c0.57-0.03,1.12-0.08,1.67-0.15c-0.53-2.24-0.92-4.57-1.13-6.79c-0.25-2.56-0.26-4.97-0.05-7.18c0.46-4.69,1.25-6.58,2.56-9.71
	c0.14-0.34,0.53-1.27,0.53-1.27l0.11-0.19c1.44-2.62,3.97-4.19,6.77-4.19c2.58,0,5.08,1.34,6.51,3.49c1.37,2.06,1.6,4.56,0.63,6.86
	l-0.04,0.1l-0.05,0.1c-1.17,2.4-1.62,3.93-1.85,6.26c-0.12,1.24-0.1,2.68,0.05,4.27c0.16,1.66,0.49,3.5,0.94,5.31
	c0.35,1.38,0.69,2.39,1,3c0.09,0.17,0.16,0.27,0.19,0.31c0.11,0.05,0.43,0.18,1.09,0.28c0.63,0.1,1.4,0.15,2.29,0.15
	c0.5,0,1.04-0.01,1.62-0.05c1.66-0.09,3.51-0.3,5.49-0.64c2.06-0.35,4.12-0.81,6.12-1.36c2.1-0.58,4.23-1.28,6.16-2.03
	c1.73-0.68,3.19-1.35,4.22-1.96c0.16-0.1,0.31-0.19,0.44-0.27c-0.01-0.02-0.03-0.04-0.04-0.06c-0.7-1.07-1.62-2.24-2.74-3.49
	c-1.47-1.63-3.29-3.37-5.38-5.16c-2.27-1.93-5.1-4.15-8.19-6.4c-3.13-2.28-6.47-4.56-9.41-6.41c-2.55-1.61-4.9-2.96-6.98-4.02
	c-1.75-0.88-3.33-1.57-4.83-2.11c-1.22-0.43-2.14-0.67-3.01-0.77c-0.39-0.05-0.8-0.07-1.25-0.07c-0.63,0-1.34,0.05-2.16,0.14
	c-1.67,0.19-3.78,0.57-6.08,1.1c-2.38,0.55-5,1.27-7.59,2.08c-1.74,0.54-3.2,1.04-4.62,1.51c-4.22,1.42-8.57,2.88-13.04,3.72
	c-2.91,0.55-5.9,0.82-8.89,0.82l-0.28,0c-3.15-0.02-6.18-0.34-9.03-0.95c-2.94-0.63-5.52-1.54-8.12-2.88
	c-2.54-1.3-5.15-3.04-8.22-5.45c-2.44-1.92-5.38-4.43-8.75-7.46c-3.24-2.92-7-6.45-10.88-10.22c-1.42-1.38-2.86-2.79-4.24-4.16
	c-4.41-4.34-8.21-8.08-11.52-10.71c-1.95-1.55-3.65-2.65-5.35-3.46c-1.25-0.6-2.57-1.07-4.06-1.45c0.97,0.88,1.89,1.75,2.74,2.62
	c1.73,1.77,3.08,3.48,4.14,5.22c1.12,1.85,1.94,3.79,2.49,5.92c0.68,2.59,0.92,5.29,1.16,7.91c0.08,0.83,0.15,1.55,0.28,2.76
	c0.19,1.65,0.42,3.13,0.7,4.42c0.35,1.63,0.69,2.56,0.92,3.06c0.22,0.49,0.47,0.87,0.8,1.23l0.22,0.24c0.4,0.38,0.96,0.81,1.71,1.31
	c1.45,0.97,3.59,2.18,5.65,3.34l2.04,1.15v0.02c0.55,0.31,1,0.57,1.24,0.71c2.12,1.23,3.79,2.28,5.26,3.29
	c1.99,1.36,3.59,2.66,4.91,3.96c1.68,1.66,2.98,3.42,3.87,5.24c1.03,2.12,1.54,4.36,1.51,6.66c-0.03,2.15-0.52,4.25-1.5,6.42
	c-0.73,1.63-1.74,3.3-3.15,5.25c-0.92,1.27-2.01,2.63-3.06,3.95l-0.03,0.03c-1.34,1.68-2.72,3.42-3.45,4.58
	C55.14,109.53,55.06,109.69,55.01,109.78 M118.56,119.62c0.21,0.01,0.42,0.02,0.64,0.03l0.21,0c0.84,0,1.71-0.07,2.6-0.21
	c1.15-0.18,2.35-0.5,3.57-0.93c1.25-0.44,2.49-1.01,3.69-1.68c0.13-0.07,0.27-0.15,0.4-0.23c-1.39-0.12-2.75-0.3-4.06-0.53
	c-1.47-0.25-2.92-0.58-4.33-0.97c-0.1,0.16-0.21,0.32-0.31,0.49c-0.88,1.37-1.57,2.51-2.13,3.51
	C118.74,119.27,118.65,119.45,118.56,119.62 M95.95,61.5c0.37,0.01,0.74,0.02,1.11,0.03l0.18,0c2.03,0,4.09-0.19,6.12-0.57
	l0.37-0.07c3.31-0.66,7.02-1.9,10.61-3.11c1.72-0.58,3.49-1.17,4.94-1.63c2.96-0.93,5.9-1.73,8.72-2.38c2.91-0.67,5.54-1.14,7.8-1.4
	c1.41-0.16,2.69-0.24,3.89-0.24c1.03,0,2.01,0.06,3,0.17c0.02,0,0.05,0.01,0.08,0.01c0.47-2.66,0.76-5.15,0.89-7.8
	c0.13-2.69,0.12-5.83-0.03-9.33c-0.15-3.49-0.46-7.28-0.87-10.66c-0.04-0.35-0.08-0.69-0.13-1.03c-1.15,1.52-2.25,2.84-3.34,4.02
	c-1.73,1.88-3.56,3.51-5.59,4.97c-1.85,1.34-3.88,2.54-6.2,3.69c-1.99,0.98-4.21,1.93-6.81,2.91c-2.1,0.8-4.45,1.61-7.15,2.49
	c-1.63,0.53-3.2,1.02-4.73,1.5c-3.05,0.96-5.92,1.86-7.98,2.62c-1.46,0.55-2.48,1.01-3.2,1.45c-0.46,0.28-0.77,0.54-1,0.86
	c-0.33,0.44-0.64,1.03-0.89,1.73c-0.29,0.8-0.49,1.71-0.56,2.57c-0.11,1.26,0.08,2.61,0.28,4.04l0.02,0.15
	c0.09,0.64,0.18,1.29,0.25,1.9C95.83,59.31,95.9,60.34,95.95,61.5"/>
<path class="st1" d="M140.71,112.33c-1.11,0.18-2.38,0.34-3.87,0.42c-1.57,0.09-3.38,0.09-5.28-0.02c-1.71-0.1-3.5-0.29-5.26-0.6
	c-1.98-0.34-3.98-0.83-5.93-1.49c-0.25-0.09-0.51-0.18-0.76-0.27c-0.68,1.04-1.35,2.06-1.99,3.06c-0.82,1.28-1.59,2.53-2.25,3.7
	c-0.55,0.99-0.94,1.79-1.2,2.47c-0.24,0.61-0.39,1.14-0.48,1.65c-0.08,0.4-0.12,0.75-0.09,1c0,0.01-0.01,0.01-0.01,0l-0.01,0
	c0.08,0.1,0.28,0.24,0.57,0.39c0.5,0.26,1.16,0.49,1.94,0.66c0.9,0.2,1.94,0.32,3.07,0.34c1.08,0.02,2.26-0.06,3.51-0.26
	c1.34-0.21,2.77-0.58,4.28-1.12c1.41-0.5,2.85-1.15,4.3-1.95c1.56-0.87,3.15-1.93,4.61-3.08c1.41-1.1,2.69-2.28,3.69-3.41
	C139.96,113.32,140.35,112.82,140.71,112.33 M145.88,57.03c0.27-1.22,0.54-2.47,0.77-3.76c0.47-2.58,0.83-5.36,0.99-8.57
	c0.15-3,0.11-6.37-0.03-9.71c-0.17-3.85-0.5-7.72-0.89-10.96c-0.35-2.9-0.74-5.21-1.15-7.08c-0.31-1.42-0.62-2.56-0.93-3.51
	c-0.07,0.14-0.16,0.3-0.27,0.45l-0.22,0.34c-1.02,1.56-2.25,3.43-3.44,5.1c-1.33,1.86-2.81,3.77-4.37,5.46
	c-1.58,1.71-3.21,3.16-4.99,4.44c-1.75,1.27-3.6,2.34-5.63,3.34c-1.99,0.98-4.17,1.9-6.46,2.76c-2.27,0.86-4.61,1.66-6.97,2.43
	c-1.62,0.53-3.17,1.01-4.69,1.49c-3.08,0.96-6.02,1.89-8.18,2.69c-1.57,0.58-2.85,1.14-3.89,1.78c-0.86,0.52-1.54,1.11-2.1,1.85
	c-0.6,0.79-1.09,1.76-1.46,2.78c-0.41,1.15-0.68,2.4-0.78,3.58c-0.15,1.71,0.08,3.33,0.31,4.94c0.09,0.67,0.19,1.34,0.26,1.94
	c0.14,1.27,0.21,2.64,0.25,4.04c0.03,0.92,0.04,1.64,0.04,2.26c1.58,0.24,3.26,0.38,4.99,0.39c2.25,0.01,4.62-0.18,7.06-0.64h0.01
	c3.68-0.69,7.61-2.01,11.52-3.33c1.72-0.58,3.44-1.16,4.84-1.6c2.87-0.9,5.74-1.68,8.43-2.3c2.71-0.62,5.22-1.08,7.35-1.32
	c2.28-0.26,4.16-0.28,5.97-0.07C143.46,56.42,144.64,56.67,145.88,57.03 M84.77,62.84c-0.03-1.05-0.1-2.12-0.22-3.23
	c-0.07-0.64-0.15-1.19-0.23-1.74c-0.29-2.04-0.58-4.1-0.36-6.56c0.15-1.71,0.56-3.58,1.21-5.39c0.62-1.72,1.45-3.35,2.48-4.71
	c1.13-1.5,2.48-2.66,4.11-3.67c1.45-0.89,3.14-1.63,5.14-2.38c2.6-0.97,5.5-1.88,8.55-2.83c1.54-0.48,3.12-0.98,4.6-1.46
	c2.3-0.75,4.56-1.52,6.66-2.31c2.08-0.79,4.05-1.61,5.81-2.48c1.72-0.84,3.23-1.72,4.61-2.72c1.35-0.98,2.62-2.1,3.89-3.48
	c1.29-1.39,2.59-3.09,3.8-4.77c1.35-1.88,2.42-3.5,3.27-4.82l0.22-0.34c2.33-3.57,3.65-5.59,6.24-5.92c1.94-0.24,3.52,0.61,4.8,2.41
	c0.66,0.93,1.26,2.19,1.82,3.74c0.51,1.42,1.02,3.12,1.48,5.24c0.45,2.08,0.88,4.61,1.26,7.76c0.39,3.27,0.74,7.32,0.92,11.5
	c0.16,3.54,0.19,7.14,0.03,10.36c-0.17,3.53-0.58,6.63-1.1,9.51c-0.33,1.81-0.7,3.51-1.09,5.18c0.37,0.18,0.74,0.36,1.13,0.56
	c2.28,1.15,4.88,2.63,7.91,4.54c3.03,1.92,6.56,4.33,10.02,6.85c3.25,2.37,6.38,4.79,8.89,6.93c2.71,2.32,4.81,4.37,6.44,6.17
	c1.66,1.84,2.88,3.48,3.8,4.89c1.01,1.55,1.68,2.89,2.06,4.18c0.46,1.57,0.5,2.98,0.16,4.44c-0.32,1.39-0.98,2.77-2.12,4.11
	c-0.99,1.17-2.35,2.31-4.2,3.4c-1.61,0.95-3.63,1.89-5.85,2.76c-2.23,0.87-4.75,1.69-7.29,2.39c-2.48,0.68-4.9,1.23-7.18,1.62
	c-2.34,0.4-4.64,0.67-6.81,0.78c-2.21,0.12-4.3,0.07-6.21-0.23c-1.51-0.23-2.9-0.62-4.15-1.2c-0.34,0.71-0.71,1.44-1.12,2.17
	c-0.82,1.47-1.83,2.96-3.21,4.51c-1.3,1.47-2.91,2.95-4.66,4.32c-1.75,1.38-3.66,2.65-5.55,3.71c-1.84,1.03-3.65,1.84-5.4,2.46
	c-1.89,0.67-3.76,1.14-5.56,1.43c-1.66,0.26-3.24,0.37-4.73,0.35c-1.65-0.02-3.18-0.21-4.54-0.51c-1.4-0.31-2.66-0.76-3.72-1.31
	c-1.26-0.66-2.28-1.49-3.02-2.47c-0.84-1.12-1.26-2.33-1.39-3.6c-0.11-1.05-0.02-2.07,0.18-3.1c0.18-0.92,0.44-1.86,0.85-2.92
	c0.39-1,0.91-2.09,1.63-3.37c0.61-1.09,1.48-2.49,2.47-4.05c0.5-0.78,1.04-1.61,1.59-2.44c-0.97-0.66-1.91-1.38-2.83-2.15
	c-1.4-1.19-2.81-2.57-4.26-4.11c-1.23-1.3-1.72-1.84-2.22-2.39c-1.9-2.09-3.83-4.19-5.42-5.47c-0.96-0.76-1.87-1.29-2.76-1.63
	c-0.82-0.31-1.6-0.46-2.36-0.48c-0.82-0.02-1.64,0.08-2.42,0.31c-0.77,0.22-1.5,0.56-2.15,1v0.01c-0.69,0.46-1.3,1.04-1.8,1.68
	c-0.52,0.66-0.94,1.42-1.25,2.24c-0.64,1.69-0.84,3.9-1.12,7.02l-0.09,0.96c-0.19,2.04-0.42,4.41-0.74,6.74
	c-0.34,2.48-0.77,5.01-1.34,7.3c-0.58,2.33-1.33,4.48-2.18,6.5c-0.86,2.03-1.78,3.84-2.74,5.55c-0.98,1.75-2.02,3.46-3.37,5.29
	c-1.32,1.8-2.91,3.69-4.99,5.79c-1.98,2.01-4.45,4.26-6.9,6.32c-2.47,2.08-4.89,3.94-6.72,5.13c-2.21,1.44-3.9,2.1-5.15,2.24
	c-0.83,0.09-1.59,0-2.28-0.25c-0.96-0.35-1.69-0.94-2.2-1.73c-0.4-0.62-0.63-1.3-0.71-2c-0.21-1.84,0.57-3.58,1.62-5.88l0.6-1.33
	c0.5-1.14,1.03-2.43,1.47-3.8c0.41-1.27,0.74-2.58,0.88-3.82c0.13-1.2,0.08-2.42-0.12-3.77c-0.22-1.46-0.62-3.11-1.19-5.07
	c-0.49-1.69-1.03-3.42-1.57-5.16c-0.93-2.98-1.87-5.97-2.4-8.22c-0.52-2.2-0.72-3.89-0.52-5.56c0.21-1.78,0.84-3.3,1.95-5.07
	c1.1-1.75,2.64-3.69,4.19-5.63c0.96-1.21,1.93-2.43,2.75-3.55c0.91-1.25,1.58-2.32,2.01-3.27c0.34-0.75,0.51-1.38,0.52-1.94
	c0.01-0.5-0.13-1.03-0.4-1.6c-0.34-0.7-0.89-1.42-1.64-2.16c-0.89-0.88-2.05-1.78-3.38-2.69c-1.41-0.97-2.96-1.92-4.55-2.84
	c-1.62-0.94-2.38-1.37-3.14-1.8l-0.01,0.01c-2.28-1.28-4.46-2.51-6.4-3.81c-1.48-1-2.75-2-3.86-3.19l-0.01,0.01
	c-1.16-1.24-2.1-2.63-2.87-4.34c-0.71-1.58-1.25-3.38-1.66-5.26c-0.39-1.78-0.67-3.68-0.88-5.56c-0.08-0.68-0.19-1.84-0.29-2.98
	c-0.21-2.25-0.4-4.38-0.85-6.1c-0.28-1.06-0.66-2-1.22-2.93c-0.6-0.99-1.44-2.02-2.59-3.2c-1.77-1.81-4.3-3.95-6.69-5.98
	c-0.85-0.72-1.69-1.43-2.84-2.44c-1.65-1.44-3.05-2.74-4.15-3.85c-1.19-1.21-2.09-2.27-2.66-3.14c-1.61-2.51-1.76-4.46,0.78-6.35
	c1.06-0.79,2.67-1.17,5.21-1.28c2.12-0.09,5.22-0.05,8.47,0.19c2.59,0.2,5.37,0.53,7.95,1.06c2.96,0.6,5.58,1.45,8.13,2.67
	c2.54,1.22,4.95,2.77,7.49,4.79c3.73,2.96,7.79,6.96,12.41,11.49c1.32,1.31,2.7,2.66,4.2,4.12c3.34,3.24,7.01,6.71,10.57,9.92
	c2.94,2.65,5.76,5.08,8.17,6.98C81.01,60.56,82.98,61.9,84.77,62.84 M113.56,122.24l-0.01,0l-0.01-0.01
	C113.53,122.22,113.55,122.23,113.56,122.24 M142.06,104.66c-0.73,0.17-1.55,0.35-2.47,0.51c-0.91,0.15-1.95,0.28-3.15,0.35
	c-1.31,0.07-2.83,0.07-4.46-0.02c-1.42-0.08-2.94-0.25-4.47-0.51c-1.66-0.29-3.31-0.69-4.85-1.21c-1.4-0.47-2.75-1.06-4.03-1.77
	c-1.31-0.73-2.51-1.6-3.68-2.59c-1.29-1.09-2.49-2.27-3.69-3.54c-0.2-0.21-1.16-1.26-2.11-2.3c-2.05-2.24-4.11-4.51-6.28-6.24
	c-1.61-1.29-3.17-2.18-4.69-2.77c-1.59-0.61-3.17-0.89-4.77-0.93c-1.55-0.04-3.11,0.16-4.6,0.59c-1.47,0.43-2.89,1.08-4.19,1.96
	l-0.01-0.01c-1.29,0.87-2.45,1.97-3.45,3.25c-0.97,1.25-1.77,2.65-2.33,4.14c-0.97,2.58-1.21,5.2-1.55,8.92l-0.09,0.96
	c-0.17,1.89-0.39,4.1-0.71,6.43c-0.3,2.19-0.68,4.44-1.2,6.51c-0.51,2.02-1.12,3.81-1.82,5.45c-0.69,1.63-1.51,3.23-2.4,4.82
	c-0.87,1.55-1.77,3.03-2.89,4.55c-1.14,1.55-2.51,3.17-4.31,5c-1.88,1.91-4.17,4-6.39,5.86c-0.86,0.72-1.7,1.41-2.52,2.05
	c0.24-0.62,0.46-1.26,0.68-1.9c0.55-1.69,0.99-3.48,1.19-5.29c0.2-1.85,0.14-3.65-0.15-5.59c-0.28-1.84-0.75-3.78-1.39-6.01
	c-0.45-1.55-1.04-3.44-1.63-5.33c-0.88-2.8-1.76-5.6-2.26-7.74c-0.33-1.37-0.46-2.32-0.38-3.03c0.07-0.61,0.35-1.24,0.88-2.07
	c0.85-1.36,2.3-3.17,3.73-4.98c1.04-1.31,2.09-2.62,2.95-3.81c1.18-1.63,2.1-3.11,2.74-4.54c0.74-1.63,1.12-3.21,1.14-4.83
	c0.02-1.67-0.34-3.29-1.11-4.86c-0.69-1.42-1.72-2.8-3.09-4.15c-1.23-1.21-2.73-2.38-4.37-3.51c-1.56-1.07-3.27-2.11-5.01-3.13
	c-0.5-0.29-1.89-1.07-3.23-1.83v-0.01c-2.22-1.25-4.35-2.46-5.92-3.5c-1.08-0.72-1.95-1.4-2.62-2.12v-0.01
	c-0.62-0.66-1.12-1.41-1.53-2.33c-0.47-1.05-0.86-2.38-1.17-3.84c-0.34-1.56-0.58-3.21-0.77-4.82c-0.15-1.29-0.22-2.07-0.29-2.84
	c-0.24-2.57-0.46-5-1.05-7.26c-0.45-1.72-1.09-3.29-2.05-4.86c-0.91-1.51-2.07-2.96-3.58-4.5c-2.04-2.09-4.69-4.34-7.2-6.47
	c-1.09-0.92-2.16-1.83-2.75-2.35c-0.8-0.7-1.53-1.36-2.2-1.97c1.37,0.03,2.92,0.09,4.54,0.22c2.4,0.18,4.88,0.48,7.04,0.92
	c2.39,0.49,4.48,1.15,6.46,2.1c1.99,0.95,3.96,2.23,6.11,3.93c3.48,2.76,7.39,6.61,11.84,10.98c1.38,1.36,2.82,2.77,4.23,4.14
	c3.5,3.4,7.26,6.95,10.77,10.12c3.06,2.76,6.01,5.3,8.54,7.29c2.85,2.24,5.24,3.84,7.58,5.04c2.41,1.24,4.65,1.99,7.13,2.52
	c2.48,0.53,5.26,0.84,8.22,0.86c2.71,0.02,5.55-0.22,8.42-0.75c4.2-0.79,8.36-2.18,12.5-3.58c1.46-0.49,2.93-0.99,4.7-1.54
	c2.73-0.86,5.42-1.59,7.89-2.16c2.44-0.56,4.67-0.97,6.53-1.18c1.71-0.19,3.07-0.22,4.33-0.07c1.25,0.15,2.46,0.47,3.87,0.97
	c1.54,0.54,3.27,1.28,5.3,2.31c2.1,1.06,4.5,2.43,7.32,4.2c3,1.9,6.39,4.2,9.62,6.56c3.02,2.2,5.97,4.49,8.43,6.59
	c2.43,2.07,4.3,3.91,5.76,5.52c1.42,1.57,2.41,2.89,3.12,3.99c0.62,0.96,1.01,1.69,1.18,2.27c0.09,0.3,0.1,0.55,0.04,0.78
	c-0.07,0.31-0.25,0.65-0.58,1.05c-0.48,0.57-1.24,1.18-2.36,1.84c-1.27,0.75-2.93,1.52-4.8,2.25c-2.09,0.82-4.35,1.56-6.56,2.16
	c-2.14,0.59-4.33,1.07-6.5,1.44c-2.12,0.36-4.13,0.6-5.95,0.7c-1.78,0.09-3.39,0.07-4.73-0.14c-1.12-0.17-2.05-0.47-2.73-0.93
	c-0.59-0.4-1.07-0.99-1.47-1.76c-0.52-1-0.95-2.31-1.34-3.88c-0.46-1.82-0.85-3.87-1.05-5.9c-0.17-1.71-0.21-3.44-0.05-5.04
	c0.29-2.97,0.93-4.94,2.24-7.63c1.62-3.85-4.3-7.1-6.72-2.69c-1.55,3.74-2.28,5.08-2.72,9.64c-0.2,2.09-0.16,4.27,0.05,6.4
	c0.24,2.5,0.69,4.9,1.22,6.98c0.29,1.16,0.62,2.25,1,3.28L142.06,104.66z"/>
<path class="st1" d="M158.65,83.65l5.81,0.46c3.62,0.29,3.15,6.23-0.47,5.94l-5.81-0.46C154.56,89.3,155.03,83.36,158.65,83.65"/>
<path class="st2" d="M35.61,63.55c0.41,0.92,0.92,1.67,1.54,2.33v0.01c0.67,0.71,1.54,1.39,2.62,2.12c1.56,1.05,3.69,2.25,5.92,3.5
	v0.01c1.34,0.76,2.73,1.54,3.23,1.83c1.74,1.01,3.45,2.06,5.01,3.13c1.64,1.13,3.14,2.3,4.37,3.51c1.37,1.35,2.39,2.73,3.09,4.15
	c0.76,1.56,1.13,3.18,1.11,4.86c-0.02,1.62-0.41,3.2-1.15,4.83c-0.65,1.43-1.56,2.92-2.74,4.54c-0.86,1.19-1.9,2.5-2.95,3.81
	c-1.43,1.81-2.88,3.62-3.73,4.98c-0.52,0.83-0.8,1.46-0.88,2.07c-0.09,0.72,0.05,1.66,0.38,3.03c0.51,2.13,1.39,4.94,2.26,7.74
	c0.59,1.89,1.18,3.78,1.63,5.33c0.64,2.24,1.11,4.17,1.39,6.01c0.29,1.94,0.35,3.74,0.15,5.59c-0.2,1.81-0.64,3.61-1.19,5.29
	c-0.21,0.65-0.44,1.29-0.68,1.9c0.81-0.64,1.66-1.33,2.52-2.05c2.21-1.86,4.5-3.95,6.39-5.86c1.8-1.83,3.17-3.45,4.31-5
	c1.11-1.52,2.02-3,2.89-4.55c0.89-1.59,1.71-3.18,2.4-4.82c0.69-1.64,1.31-3.43,1.82-5.45c0.52-2.07,0.9-4.32,1.2-6.51
	c0.32-2.34,0.54-4.54,0.71-6.43l0.09-0.96c0.34-3.71,0.58-6.34,1.55-8.92c0.56-1.49,1.36-2.89,2.33-4.14
	c0.99-1.27,2.16-2.37,3.45-3.25l0.01,0.01c1.3-0.88,2.72-1.54,4.19-1.96c1.49-0.43,3.05-0.63,4.6-0.59c1.6,0.04,3.18,0.32,4.77,0.93
	c1.52,0.58,3.07,1.48,4.69,2.77c2.16,1.73,4.23,3.99,6.28,6.24c0.95,1.04,1.91,2.09,2.11,2.3c1.2,1.27,2.4,2.45,3.69,3.54
	c1.17,0.99,2.38,1.85,3.68,2.59c1.27,0.71,2.63,1.3,4.03,1.77c1.55,0.52,3.19,0.92,4.86,1.21c1.53,0.26,3.05,0.43,4.47,0.51
	c1.63,0.1,3.15,0.09,4.46,0.02c1.2-0.07,2.24-0.19,3.15-0.35c0.93-0.15,1.74-0.34,2.47-0.51l0.89-0.21c-0.38-1.02-0.7-2.11-1-3.28
	c-0.52-2.07-0.97-4.47-1.22-6.98c-0.21-2.13-0.25-4.32-0.05-6.4c0.45-4.56,1.18-5.9,2.72-9.64c2.42-4.41,8.34-1.15,6.72,2.69
	c-1.31,2.69-1.95,4.66-2.24,7.63c-0.16,1.6-0.12,3.33,0.05,5.04c0.2,2.03,0.59,4.08,1.05,5.9c0.39,1.56,0.82,2.88,1.34,3.88
	c0.4,0.77,0.88,1.36,1.47,1.76c0.68,0.46,1.62,0.75,2.73,0.93c1.35,0.21,2.96,0.24,4.73,0.14c1.83-0.1,3.84-0.33,5.96-0.7
	c2.17-0.37,4.36-0.86,6.5-1.44c2.21-0.61,4.47-1.35,6.55-2.16c1.87-0.73,3.53-1.5,4.8-2.25c1.11-0.66,1.87-1.27,2.36-1.84
	c0.33-0.4,0.51-0.74,0.58-1.05c0.06-0.24,0.04-0.49-0.05-0.78c-0.17-0.58-0.56-1.32-1.18-2.27c-0.71-1.1-1.7-2.41-3.12-3.99
	c-1.46-1.61-3.33-3.45-5.76-5.52c-2.46-2.1-5.42-4.39-8.43-6.59c-3.24-2.36-6.63-4.67-9.62-6.56c-2.81-1.77-5.22-3.14-7.31-4.21
	c-2.03-1.03-3.77-1.76-5.3-2.31c-1.41-0.5-2.62-0.83-3.87-0.97c-1.26-0.15-2.62-0.13-4.33,0.07c-1.86,0.21-4.09,0.62-6.53,1.18
	c-2.47,0.57-5.16,1.3-7.89,2.16c-1.77,0.56-3.23,1.05-4.7,1.54c-4.15,1.39-8.3,2.79-12.5,3.58c-2.87,0.54-5.7,0.77-8.42,0.75
	c-2.96-0.02-5.74-0.33-8.22-0.86c-2.48-0.53-4.72-1.29-7.13-2.52c-2.33-1.2-4.73-2.8-7.58-5.04c-2.53-1.99-5.48-4.53-8.54-7.29
	c-3.51-3.17-7.27-6.72-10.77-10.12c-1.41-1.37-2.85-2.78-4.23-4.14c-4.44-4.37-8.35-8.22-11.84-10.98c-2.15-1.7-4.11-2.98-6.1-3.93
	c-1.98-0.95-4.07-1.62-6.46-2.1c-2.16-0.44-4.64-0.74-7.04-0.92c-1.62-0.12-3.17-0.19-4.55-0.22c0.66,0.62,1.4,1.28,2.2,1.98
	c0.6,0.52,1.67,1.43,2.76,2.35c2.51,2.13,5.15,4.38,7.2,6.47c1.51,1.54,2.67,2.99,3.58,4.5c0.95,1.57,1.59,3.14,2.04,4.86
	c0.59,2.27,0.82,4.69,1.05,7.26c0.07,0.76,0.14,1.55,0.29,2.84c0.18,1.61,0.43,3.26,0.77,4.82C34.76,61.17,35.14,62.5,35.61,63.55
	 M158.65,83.65l5.81,0.46c3.62,0.29,3.15,6.23-0.47,5.94l-5.81-0.46C154.56,89.3,155.03,83.36,158.65,83.65"/>
<path class="st3" d="M55.74,141.92l-0.09,0.3c-0.21,0.65-0.44,1.29-0.68,1.9c0.81-0.64,1.66-1.33,2.52-2.05
	c2.22-1.86,4.5-3.95,6.39-5.86c1.8-1.83,3.17-3.45,4.31-5c1.11-1.52,2.02-3,2.89-4.55c0.89-1.59,1.71-3.18,2.4-4.82
	c0.69-1.64,1.31-3.43,1.82-5.45c0.52-2.07,0.9-4.32,1.2-6.51c0.32-2.34,0.54-4.54,0.71-6.43l0.09-0.96
	c0.34-3.71,0.58-6.34,1.55-8.92c0.54-1.44,1.3-2.79,2.22-4c-1.41,0.35-2.8,1.01-4.16,2.03c-2.27,1.69-4.45,4.36-5.96,8.62
	c-1.51,4.26-2.36,10.13-3.33,14.85c-0.97,4.72-2.06,8.29-3.6,11.98c-1.54,3.69-3.54,7.5-5.45,10.59
	C57.56,139.25,56.6,140.66,55.74,141.92"/>
<path class="st3" d="M175.54,102.81c0.93-0.31,1.85-0.65,2.73-0.99c1.87-0.73,3.53-1.5,4.8-2.25c1.11-0.66,1.87-1.27,2.36-1.84
	c0.33-0.4,0.51-0.74,0.58-1.05c0.06-0.24,0.04-0.49-0.05-0.78c-0.17-0.58-0.56-1.32-1.18-2.27c-0.71-1.1-1.7-2.41-3.12-3.99
	c-1.46-1.62-3.33-3.45-5.76-5.52c-2.46-2.1-5.42-4.39-8.43-6.59c-3.24-2.36-6.63-4.67-9.62-6.56c-2.81-1.77-5.22-3.14-7.31-4.2
	c-2.03-1.03-3.77-1.76-5.3-2.31c-1.41-0.5-2.62-0.83-3.87-0.97c-1.26-0.15-2.62-0.13-4.33,0.07c-1.86,0.21-4.09,0.62-6.53,1.18
	c-2.47,0.57-5.16,1.3-7.89,2.16c-1.77,0.55-3.23,1.05-4.7,1.54c-4.14,1.39-8.3,2.79-12.5,3.58c-2.87,0.54-5.7,0.77-8.42,0.75
	c-2.96-0.02-5.74-0.33-8.22-0.86c-2.48-0.53-4.72-1.29-7.13-2.52c-2.33-1.2-4.73-2.8-7.58-5.04c-2.53-1.99-5.48-4.53-8.54-7.29
	c-3.51-3.17-7.27-6.72-10.77-10.12c-1.41-1.37-2.85-2.78-4.23-4.14c-4.44-4.37-8.35-8.22-11.84-10.98c-2.15-1.7-4.11-2.98-6.1-3.93
	c-1.98-0.95-4.07-1.62-6.46-2.1c-2.16-0.44-4.64-0.74-7.04-0.92c-1.62-0.12-3.17-0.19-4.54-0.22c0.66,0.62,1.4,1.28,2.2,1.97
	c0.6,0.52,1.67,1.43,2.76,2.35c2.51,2.13,5.15,4.38,7.2,6.47c1.51,1.54,2.67,2.99,3.58,4.5c0.95,1.57,1.59,3.13,2.04,4.86
	c0.24,0.94,0.43,1.91,0.57,2.9c1.08-0.29,1.83-0.57,2.82-0.8c1.63-0.36,3.93-0.54,6.87,0.24c2.93,0.79,6.5,2.54,11.89,6.65
	c5.39,4.11,12.59,10.59,18.6,15.25c6.02,4.66,10.86,7.5,16.52,9.74c5.66,2.24,12.13,3.87,17.85,4.27c5.72,0.39,10.68-0.45,14.7-1.85
	c4.02-1.39,7.11-3.33,10.77-4.69c3.66-1.36,7.9-2.15,11.59-2.15c3.69,0,6.84,0.79,10.25,1.88c3.42,1.09,7.11,2.48,10.35,4.63
	c3.24,2.15,6.02,5.05,8.08,8.26c2.06,3.21,3.39,6.72,3.51,9.35C176.77,100.2,176.33,101.55,175.54,102.81"/>
<path class="st2" d="M91.97,48.36c-0.42,1.15-0.68,2.4-0.78,3.58c-0.15,1.71,0.08,3.33,0.31,4.94c0.09,0.67,0.19,1.34,0.26,1.94
	c0.14,1.27,0.21,2.64,0.25,4.04c0.03,0.92,0.04,1.64,0.04,2.27c1.58,0.24,3.26,0.38,4.99,0.39c2.25,0.01,4.62-0.18,7.06-0.64h0.01
	c3.68-0.69,7.61-2.01,11.52-3.33c1.72-0.58,3.44-1.16,4.84-1.6c2.87-0.9,5.74-1.68,8.43-2.3c2.71-0.62,5.22-1.08,7.35-1.32
	c2.28-0.26,4.16-0.28,5.97-0.07c1.24,0.15,2.43,0.4,3.66,0.76c0.28-1.22,0.54-2.47,0.77-3.76c0.47-2.57,0.83-5.36,0.99-8.57
	c0.15-3,0.11-6.37-0.03-9.71c-0.17-3.85-0.5-7.72-0.89-10.96c-0.35-2.9-0.74-5.21-1.14-7.08c-0.31-1.42-0.62-2.56-0.93-3.51
	c-0.07,0.14-0.16,0.3-0.27,0.45l-0.22,0.34c-1.02,1.56-2.25,3.43-3.44,5.1c-1.33,1.86-2.81,3.77-4.37,5.46
	c-1.58,1.71-3.21,3.16-4.99,4.44c-1.75,1.27-3.6,2.34-5.63,3.34c-1.99,0.98-4.17,1.9-6.46,2.76c-2.27,0.86-4.61,1.66-6.97,2.43
	c-1.62,0.53-3.17,1.01-4.69,1.49c-3.08,0.96-6.02,1.89-8.18,2.69c-1.56,0.58-2.85,1.14-3.89,1.78c-0.86,0.52-1.54,1.11-2.1,1.85
	C92.83,46.37,92.34,47.34,91.97,48.36"/>
<path class="st3" d="M130.59,57.29c2.06-0.43,3.98-0.76,5.66-0.95c2.28-0.26,4.16-0.28,5.97-0.07c1.24,0.15,2.43,0.4,3.66,0.76
	c0.28-1.22,0.54-2.47,0.77-3.76c0.47-2.58,0.83-5.36,0.99-8.57c0.15-3,0.12-6.37-0.03-9.71c-0.17-3.85-0.5-7.72-0.89-10.96
	c-0.35-2.9-0.74-5.21-1.14-7.08c-0.31-1.42-0.62-2.56-0.93-3.51c-0.07,0.14-0.16,0.3-0.27,0.45l-0.22,0.34
	c-1.02,1.56-2.25,3.43-3.44,5.1c-1.33,1.86-2.81,3.77-4.37,5.46c-1.58,1.71-3.21,3.16-4.99,4.44c-1.75,1.27-3.6,2.34-5.63,3.34
	c-1.99,0.98-4.17,1.9-6.46,2.76c-2.27,0.86-4.61,1.66-6.97,2.43c-1.62,0.53-3.17,1.01-4.69,1.49c-3.08,0.96-6.02,1.89-8.18,2.69
	c-0.64,0.24-1.23,0.47-1.78,0.71c2.12-0.51,4.36-1.12,6.54-1.63c3.84-0.91,7.47-1.51,11.07-2.36c3.6-0.85,7.17-1.94,10.41-2.42
	c3.24-0.48,6.14-0.36,7.99,0.58c1.85,0.94,2.63,2.69,2.93,4.78c0.3,2.09,0.12,4.51-0.42,6.5c-0.54,2-1.45,3.57-2.24,4.78
	c-0.79,1.21-1.45,2.06-2.24,3.03C131.32,56.36,130.93,56.83,130.59,57.29"/>
<path class="st2" d="M120.35,110.64c-0.25-0.09-0.51-0.18-0.76-0.27c-0.68,1.04-1.36,2.06-1.99,3.06c-0.82,1.28-1.59,2.53-2.25,3.7
	c-0.55,0.99-0.94,1.79-1.2,2.47c-0.24,0.61-0.39,1.14-0.48,1.65c-0.08,0.4-0.12,0.75-0.09,1c0,0.01-0.01,0.01-0.01,0l-0.01,0
	c0.08,0.1,0.28,0.24,0.57,0.39c0.5,0.26,1.16,0.49,1.94,0.66c0.91,0.2,1.94,0.32,3.07,0.34c1.08,0.02,2.26-0.06,3.51-0.26
	c1.34-0.21,2.77-0.58,4.28-1.12c1.41-0.5,2.85-1.15,4.3-1.95c1.56-0.87,3.15-1.93,4.61-3.08c1.41-1.1,2.69-2.28,3.69-3.41
	c0.44-0.49,0.82-0.99,1.18-1.49c-1.11,0.18-2.38,0.34-3.87,0.42c-1.57,0.09-3.38,0.09-5.28-0.02c-1.71-0.1-3.5-0.29-5.26-0.6
	C124.31,111.79,122.31,111.3,120.35,110.64"/>
</svg>
