<?xml version="1.0" encoding="utf-8"?>
<!-- Generator: Adobe Illustrator 25.4.0, SVG Export Plug-In . SVG Version: 6.00 Build 0)  -->
<svg version="1.1" id="Layer_1" xmlns="http://www.w3.org/2000/svg" xmlns:xlink="http://www.w3.org/1999/xlink" x="0px" y="0px"
	 viewBox="0 0 393.32 96.77" style="enable-background:new 0 0 393.32 96.77;" xml:space="preserve">
<style type="text/css">
	.st0{fill-rule:evenodd;clip-rule:evenodd;fill:#FFFFFF;}
	.st1{fill-rule:evenodd;clip-rule:evenodd;fill:#0EF2A2;}
	.st2{fill:#FFFFFF;}
</style>
<g>
	<path class="st0" d="M15.52,49.72V31.2c8.5-0.08,15.37-6.99,15.37-15.51H15.52V0H0v50.57c0,12.05,8.72,19.55,20.74,19.76h8.31V56.8
		h-8.31C16.4,57.1,15.52,53.04,15.52,49.72 M103.48,0H87.97v68.9h15.51V0z M157.73,70.33c11.43,0,20.72-7.55,20.72-17.86
		c0-21.64-26.13-13.12-26.13-21.23c0-4.07,7.46-4.93,8.88-0.2h15.82C176,20.52,167.63,14.4,156.61,14.4
		c-11.02,0-20.42,7.15-20.42,17.64c0,21.64,26.13,13.03,26.13,21.23c0,4.89-9.36,5.23-10.41-1.1h-15.82
		C137.11,64.31,146.71,70.33,157.73,70.33 M128.23,23.27h-15.52V68.9h15.52V23.27z M112.72,0c0,8.57,6.95,15.51,15.51,15.51V0
		H112.72z M322.99,68.9V38.8c0-32.07,48.48-32.07,48.48,0v30.1h-15.32V38.8c0-11.71-17.84-11.71-17.84,0v30.1H322.99z M185.1,68.9
		V38.8c0-23.71,24.8-29.88,37.75-18.55c12.95-11.34,37.75-5.15,37.75,18.55v30.1h-15.32V38.8c0-11.66-14.65-11.71-14.77-0.14
		l0,30.24h-15.32l0-30.24c-0.11-11.57-14.76-11.52-14.76,0.14v30.1H185.1z M50.13,70.33c5.51,0,10.01-1.84,13.17-5.2v3.78h15.51
		V34.81c0-13.17-8.68-20.42-21.33-20.42c-12.66,0-20.93,7.15-22.66,18.27h16.64c0.92-2.55,3.16-3.78,6.02-3.78
		c5.25,0,5.82,3.32,5.82,7.55h-6.23c-16.13,0-23.78,7.45-23.78,17.25C33.29,63.5,39.92,70.33,50.13,70.33 M55.03,57.27
		c-3.47,0-6.23-1.43-6.23-4.8c0-6.17,9.96-4.8,14.49-4.8C63.3,53.28,61.82,57.27,55.03,57.27 M285.26,70.33
		c5.51,0,10-1.84,13.17-5.2v3.78h15.52V34.81c0-13.17-8.68-20.42-21.33-20.42c-12.66,0-20.92,7.15-22.66,18.27h16.64
		c0.92-2.55,3.16-3.78,6.02-3.78c5.25,0,5.82,3.32,5.82,7.55h-6.23c-16.13,0-23.78,7.45-23.78,17.25
		C268.41,63.5,275.05,70.33,285.26,70.33 M290.16,57.27c-3.47,0-6.23-1.43-6.23-4.8c0-6.17,9.96-4.8,14.49-4.8
		C298.42,53.28,296.95,57.27,290.16,57.27"/>
	<path class="st1" d="M385.56,54.8c4.29,0,7.77,3.48,7.77,7.76c0,4.29-3.48,7.76-7.77,7.76s-7.77-3.48-7.77-7.76
		C377.79,58.28,381.27,54.8,385.56,54.8"/>
	<path class="st2" d="M207.84,89.62c0-1.86,1.46-3.28,4.52-3.28h1.18v-0.31c0-0.76-0.41-1.12-1.1-1.12c-0.54,0-0.97,0.23-1.14,0.72
		h-3.16c0.33-2.11,1.9-3.47,4.31-3.47c2.41,0,4.05,1.38,4.05,3.88v6.48h-2.95v-0.72c-0.6,0.64-1.45,0.99-2.5,0.99
		C209.1,92.78,207.84,91.48,207.84,89.62 M213.55,88.94v-0.47h-1.18c-1.13,0-1.57,0.27-1.57,0.91c0,0.64,0.53,0.91,1.18,0.91
		C213.06,90.3,213.55,89.58,213.55,88.94"/>
	<path class="st2" d="M226.18,78.54h2.95v13.97h-2.95v-1.03c-0.74,0.85-1.79,1.3-3.12,1.3c-2.35,0-4.64-1.82-4.64-5.31
		c0-3.49,2.29-5.31,4.64-5.31c1.34,0,2.39,0.45,3.12,1.3V78.54z M226.18,87.46c0-1.63-0.93-2.56-2.35-2.56s-2.35,0.93-2.35,2.56
		c0,1.63,0.93,2.56,2.35,2.56S226.18,89.09,226.18,87.46"/>
	<polygon class="st2" points="235.73,92.78 230.49,82.42 233.71,82.42 235.82,86.8 237.94,82.42 240.96,82.42 	"/>
	<path class="st2" d="M242.07,79.96c0-0.95,0.72-1.69,1.73-1.69s1.72,0.74,1.72,1.69c0,0.95-0.71,1.69-1.72,1.69
		S242.07,80.91,242.07,79.96 M242.32,82.42h2.95v10.09h-2.95V82.42z"/>
	<path class="st2" d="M247.21,89.33h3.01c0.12,0.7,0.62,0.89,1.1,0.89c0.54,0,0.87-0.27,0.87-0.68c0-1.55-4.96,0.08-4.96-4.03
		c0-2,1.78-3.36,3.88-3.36c2.09,0,3.69,1.16,3.88,3.16h-3.01c-0.12-0.39-0.39-0.6-0.87-0.6s-0.81,0.27-0.81,0.64
		c0,1.55,4.97-0.08,4.97,4.03c0,1.96-1.77,3.39-3.94,3.39C249.22,92.78,247.4,91.63,247.21,89.33"/>
	<path class="st2" d="M256.71,87.46c0-3.49,2.68-5.31,5.41-5.31c2.74,0,5.41,1.82,5.41,5.31c0,3.49-2.68,5.31-5.41,5.31
		C259.38,92.78,256.71,90.95,256.71,87.46 M264.47,87.46c0-1.63-0.93-2.56-2.35-2.56c-1.42,0-2.35,0.93-2.35,2.56
		c0,1.63,0.93,2.56,2.35,2.56C263.53,90.02,264.47,89.09,264.47,87.46"/>
	<path class="st2" d="M272.43,83.62c0.74-0.97,1.84-1.47,3.05-1.47v3.03c-2.23-0.47-3.05,0.45-3.05,1.71v5.62h-2.95V82.42h2.95
		V83.62z"/>
	<polygon class="st2" points="277.74,96.77 279.99,91.23 276.15,82.42 279.37,82.42 281.54,87.6 283.56,82.42 286.62,82.42 
		280.8,96.77 	"/>
	<path class="st2" d="M304.51,87.46c0,3.49-2.29,5.31-4.64,5.31c-1.34,0-2.39-0.45-3.12-1.3v5.29h-2.95V82.42h2.95v1.03
		c0.74-0.85,1.78-1.3,3.12-1.3C302.22,82.15,304.51,83.97,304.51,87.46 M301.45,87.46c0-1.63-0.93-2.56-2.35-2.56
		c-1.42,0-2.35,0.93-2.35,2.56c0,1.63,0.93,2.56,2.35,2.56C300.52,90.02,301.45,89.09,301.45,87.46"/>
	<path class="st2" d="M306.06,89.62c0-1.86,1.46-3.28,4.52-3.28h1.18v-0.31c0-0.76-0.41-1.12-1.1-1.12c-0.54,0-0.97,0.23-1.14,0.72
		h-3.16c0.33-2.11,1.9-3.47,4.31-3.47c2.41,0,4.05,1.38,4.05,3.88v6.48h-2.95v-0.72c-0.6,0.64-1.45,0.99-2.5,0.99
		C307.33,92.78,306.06,91.48,306.06,89.62 M311.77,88.94v-0.47h-1.18c-1.13,0-1.57,0.27-1.57,0.91c0,0.64,0.53,0.91,1.18,0.91
		C311.28,90.3,311.77,89.58,311.77,88.94"/>
	<path class="st2" d="M319.99,83.62c0.74-0.97,1.84-1.47,3.05-1.47v3.03c-2.23-0.47-3.05,0.45-3.05,1.71v5.62h-2.95V82.42h2.95
		V83.62z"/>
	<path class="st2" d="M330.53,85.06h-2.15v4.07c0,0.37,0.23,0.56,0.54,0.56h1.42v2.81h-1.42c-2.15,0-3.49-1.4-3.49-3.38v-4.07h-1.51
		v-2.64h1.51V79.9h2.95v2.52h2.15V85.06z"/>
	<path class="st2" d="M342.07,86.3v6.21h-2.95v-5.62c0-1.26-0.66-1.98-1.71-1.98c-1.18,0-2,0.72-2,1.98v5.62h-2.95V82.42h2.95v1.2
		c0.74-0.97,1.84-1.47,3.04-1.47C340.67,82.15,342.07,83.66,342.07,86.3"/>
	<path class="st2" d="M354.42,88.47h-7.33c0.31,1.01,1.14,1.55,2.19,1.55c0.74,0,1.32-0.23,1.69-0.74h3.38
		c-0.79,2.43-3.01,3.49-5.06,3.49c-2.68,0-5.29-1.82-5.29-5.31c0-3.49,2.52-5.31,5.2-5.31c2.68,0,5.24,1.82,5.24,5.31V88.47z
		 M351.26,86.34c-0.25-1.18-1.12-1.63-2.07-1.63c-1.05,0-1.81,0.54-2.11,1.63H351.26z"/>
	<path class="st2" d="M359.31,83.62c0.74-0.97,1.84-1.47,3.05-1.47v3.03c-2.23-0.47-3.05,0.45-3.05,1.71v5.62h-2.95V82.42h2.95
		V83.62z"/>
	<path class="st2" d="M363.43,89.33h3.01c0.12,0.7,0.62,0.89,1.1,0.89c0.54,0,0.87-0.27,0.87-0.68c0-1.55-4.96,0.08-4.96-4.03
		c0-2,1.78-3.36,3.88-3.36c2.1,0,3.69,1.16,3.88,3.16h-3.01c-0.12-0.39-0.39-0.6-0.87-0.6s-0.81,0.27-0.81,0.64
		c0,1.55,4.96-0.08,4.96,4.03c0,1.96-1.77,3.39-3.94,3.39C365.44,92.78,363.62,91.63,363.43,89.33"/>
</g>
</svg>
