<?xml version="1.0" encoding="utf-8"?>
<!-- Generator: Adobe Illustrator 25.4.0, SVG Export Plug-In . SVG Version: 6.00 Build 0)  -->
<svg version="1.1" id="Layer_1" xmlns="http://www.w3.org/2000/svg" xmlns:xlink="http://www.w3.org/1999/xlink" x="0px" y="0px"
	 viewBox="0 0 528.5 509.58" style="enable-background:new 0 0 528.5 509.58;" xml:space="preserve">
<style type="text/css">
	.st0{fill-rule:evenodd;clip-rule:evenodd;fill:#203044;}
</style>
<path class="st0" d="M144.24,14.19c-3.93,0-7.09-3.17-7.09-7.09c0-3.93,3.17-7.09,7.09-7.09c3.93,0,7.09,3.17,7.09,7.09
	C151.34,11.02,148.17,14.19,144.24,14.19"/>
<path class="st0" d="M144.24,49.66c-3.93,0-7.09-3.17-7.09-7.09c0-3.9,3.17-7.09,7.09-7.09c3.93,0,7.09,3.2,7.09,7.09
	C151.34,46.49,148.17,49.66,144.24,49.66"/>
<path class="st0" d="M144.24,85.13c-3.93,0-7.09-3.17-7.09-7.1c0-3.92,3.17-7.09,7.09-7.09c3.93,0,7.09,3.17,7.09,7.09
	C151.34,81.96,148.17,85.13,144.24,85.13"/>
<path class="st0" d="M144.24,120.6c-3.93,0-7.09-3.17-7.09-7.09c0-3.9,3.17-7.09,7.09-7.09c3.93,0,7.09,3.2,7.09,7.09
	C151.34,117.43,148.17,120.6,144.24,120.6"/>
<path class="st0" d="M144.24,156.07c-3.93,0-7.09-3.17-7.09-7.09c0-3.92,3.17-7.09,7.09-7.09c3.93,0,7.09,3.17,7.09,7.09
	C151.34,152.9,148.17,156.07,144.24,156.07"/>
<path class="st0" d="M144.24,191.54c-3.93,0-7.09-3.17-7.09-7.09c0-3.9,3.17-7.1,7.09-7.1c3.93,0,7.09,3.2,7.09,7.1
	C151.34,188.37,148.17,191.54,144.24,191.54"/>
<path class="st0" d="M144.24,227.01c-3.93,0-7.09-3.17-7.09-7.09c0-3.9,3.17-7.09,7.09-7.09c3.93,0,7.09,3.19,7.09,7.09
	C151.34,223.84,148.17,227.01,144.24,227.01"/>
<path class="st0" d="M144.24,262.48c-3.93,0-7.09-3.17-7.09-7.09c0-3.93,3.17-7.09,7.09-7.09c3.93,0,7.09,3.17,7.09,7.09
	C151.34,259.31,148.17,262.48,144.24,262.48"/>
<path class="st0" d="M144.24,297.95c-3.93,0-7.09-3.17-7.09-7.1c0-3.9,3.17-7.09,7.09-7.09c3.93,0,7.09,3.19,7.09,7.09
	C151.34,294.78,148.17,297.95,144.24,297.95"/>
<path class="st0" d="M109.96,14.19c-3.92,0-7.09-3.17-7.09-7.09c0-3.93,3.17-7.09,7.09-7.09c3.93,0,7.1,3.17,7.1,7.09
	C117.05,11.02,113.88,14.19,109.96,14.19"/>
<path class="st0" d="M109.96,49.66c-3.92,0-7.09-3.17-7.09-7.09c0-3.9,3.17-7.09,7.09-7.09c3.93,0,7.1,3.2,7.1,7.09
	C117.05,46.49,113.88,49.66,109.96,49.66"/>
<path class="st0" d="M109.96,85.13c-3.92,0-7.09-3.17-7.09-7.1c0-3.92,3.17-7.09,7.09-7.09c3.93,0,7.1,3.17,7.1,7.09
	C117.05,81.96,113.88,85.13,109.96,85.13"/>
<path class="st0" d="M109.96,120.6c-3.92,0-7.09-3.17-7.09-7.09c0-3.9,3.17-7.09,7.09-7.09c3.93,0,7.1,3.2,7.1,7.09
	C117.05,117.43,113.88,120.6,109.96,120.6"/>
<path class="st0" d="M109.96,156.07c-3.92,0-7.09-3.17-7.09-7.09c0-3.92,3.17-7.09,7.09-7.09c3.93,0,7.1,3.17,7.1,7.09
	C117.05,152.9,113.88,156.07,109.96,156.07"/>
<path class="st0" d="M109.96,191.54c-3.92,0-7.09-3.17-7.09-7.09c0-3.9,3.17-7.1,7.09-7.1c3.93,0,7.1,3.2,7.1,7.1
	C117.05,188.37,113.88,191.54,109.96,191.54"/>
<path class="st0" d="M109.96,227.01c-3.92,0-7.09-3.17-7.09-7.09c0-3.9,3.17-7.09,7.09-7.09c3.93,0,7.1,3.19,7.1,7.09
	C117.05,223.84,113.88,227.01,109.96,227.01"/>
<path class="st0" d="M109.96,262.48c-3.92,0-7.09-3.17-7.09-7.09c0-3.93,3.17-7.09,7.09-7.09c3.93,0,7.1,3.17,7.1,7.09
	C117.05,259.31,113.88,262.48,109.96,262.48"/>
<path class="st0" d="M109.96,297.95c-3.92,0-7.09-3.17-7.09-7.1c0-3.9,3.17-7.09,7.09-7.09c3.93,0,7.1,3.19,7.1,7.09
	C117.05,294.78,113.88,297.95,109.96,297.95"/>
<path class="st0" d="M75.67,14.19c-3.93,0-7.09-3.17-7.09-7.09c0-3.93,3.17-7.09,7.09-7.09c3.93,0,7.09,3.17,7.09,7.09
	C82.76,11.02,79.59,14.19,75.67,14.19"/>
<path class="st0" d="M75.67,49.66c-3.93,0-7.09-3.17-7.09-7.09c0-3.9,3.17-7.09,7.09-7.09c3.93,0,7.09,3.2,7.09,7.09
	C82.76,46.49,79.59,49.66,75.67,49.66"/>
<path class="st0" d="M75.67,85.13c-3.93,0-7.09-3.17-7.09-7.1c0-3.92,3.17-7.09,7.09-7.09c3.93,0,7.09,3.17,7.09,7.09
	C82.76,81.96,79.59,85.13,75.67,85.13"/>
<path class="st0" d="M75.67,120.6c-3.93,0-7.09-3.17-7.09-7.09c0-3.9,3.17-7.09,7.09-7.09c3.93,0,7.09,3.2,7.09,7.09
	C82.76,117.43,79.59,120.6,75.67,120.6"/>
<path class="st0" d="M75.67,156.07c-3.93,0-7.09-3.17-7.09-7.09c0-3.92,3.17-7.09,7.09-7.09c3.93,0,7.09,3.17,7.09,7.09
	C82.76,152.9,79.59,156.07,75.67,156.07"/>
<path class="st0" d="M75.67,191.54c-3.93,0-7.09-3.17-7.09-7.09c0-3.9,3.17-7.1,7.09-7.1c3.93,0,7.09,3.2,7.09,7.1
	C82.76,188.37,79.59,191.54,75.67,191.54"/>
<path class="st0" d="M75.67,227.01c-3.93,0-7.09-3.17-7.09-7.09c0-3.9,3.17-7.09,7.09-7.09c3.93,0,7.09,3.19,7.09,7.09
	C82.76,223.84,79.59,227.01,75.67,227.01"/>
<path class="st0" d="M75.67,262.48c-3.93,0-7.09-3.17-7.09-7.09c0-3.93,3.17-7.09,7.09-7.09c3.93,0,7.09,3.17,7.09,7.09
	C82.76,259.31,79.59,262.48,75.67,262.48"/>
<path class="st0" d="M75.67,297.95c-3.93,0-7.09-3.17-7.09-7.1c0-3.9,3.17-7.09,7.09-7.09c3.93,0,7.09,3.19,7.09,7.09
	C82.76,294.78,79.59,297.95,75.67,297.95"/>
<path class="st0" d="M41.38,14.19c-3.93,0-7.09-3.17-7.09-7.09c0-3.93,3.17-7.09,7.09-7.09c3.93,0,7.09,3.17,7.09,7.09
	C48.48,11.02,45.31,14.19,41.38,14.19"/>
<path class="st0" d="M41.38,49.66c-3.93,0-7.09-3.17-7.09-7.09c0-3.9,3.17-7.09,7.09-7.09c3.93,0,7.09,3.2,7.09,7.09
	C48.48,46.49,45.31,49.66,41.38,49.66"/>
<path class="st0" d="M41.38,85.13c-3.93,0-7.09-3.17-7.09-7.1c0-3.92,3.17-7.09,7.09-7.09c3.93,0,7.09,3.17,7.09,7.09
	C48.48,81.96,45.31,85.13,41.38,85.13"/>
<path class="st0" d="M41.38,120.6c-3.93,0-7.09-3.17-7.09-7.09c0-3.9,3.17-7.09,7.09-7.09c3.93,0,7.09,3.2,7.09,7.09
	C48.48,117.43,45.31,120.6,41.38,120.6"/>
<path class="st0" d="M41.38,156.07c-3.93,0-7.09-3.17-7.09-7.09c0-3.92,3.17-7.09,7.09-7.09c3.93,0,7.09,3.17,7.09,7.09
	C48.48,152.9,45.31,156.07,41.38,156.07"/>
<path class="st0" d="M41.38,191.54c-3.93,0-7.09-3.17-7.09-7.09c0-3.9,3.17-7.1,7.09-7.1c3.93,0,7.09,3.2,7.09,7.1
	C48.48,188.37,45.31,191.54,41.38,191.54"/>
<path class="st0" d="M41.38,227.01c-3.93,0-7.09-3.17-7.09-7.09c0-3.9,3.17-7.09,7.09-7.09c3.93,0,7.09,3.19,7.09,7.09
	C48.48,223.84,45.31,227.01,41.38,227.01"/>
<path class="st0" d="M41.38,262.48c-3.93,0-7.09-3.17-7.09-7.09c0-3.93,3.17-7.09,7.09-7.09c3.93,0,7.09,3.17,7.09,7.09
	C48.48,259.31,45.31,262.48,41.38,262.48"/>
<path class="st0" d="M41.38,297.95c-3.93,0-7.09-3.17-7.09-7.1c0-3.9,3.17-7.09,7.09-7.09c3.93,0,7.09,3.19,7.09,7.09
	C48.48,294.78,45.31,297.95,41.38,297.95"/>
<path class="st0" d="M7.09,14.19C3.17,14.19,0,11.02,0,7.09C0,3.17,3.17,0,7.09,0c3.92,0,7.09,3.17,7.09,7.09
	C14.19,11.02,11.02,14.19,7.09,14.19"/>
<path class="st0" d="M7.09,49.66C3.17,49.66,0,46.49,0,42.56c0-3.9,3.17-7.09,7.09-7.09c3.92,0,7.09,3.2,7.09,7.09
	C14.19,46.49,11.02,49.66,7.09,49.66"/>
<path class="st0" d="M7.09,85.13c-3.93,0-7.09-3.17-7.09-7.1c0-3.92,3.17-7.09,7.09-7.09c3.92,0,7.09,3.17,7.09,7.09
	C14.19,81.96,11.02,85.13,7.09,85.13"/>
<path class="st0" d="M7.09,120.6c-3.93,0-7.09-3.17-7.09-7.09c0-3.9,3.17-7.09,7.09-7.09c3.92,0,7.09,3.2,7.09,7.09
	C14.19,117.43,11.02,120.6,7.09,120.6"/>
<path class="st0" d="M7.09,156.07c-3.93,0-7.09-3.17-7.09-7.09c0-3.92,3.17-7.09,7.09-7.09c3.92,0,7.09,3.17,7.09,7.09
	C14.19,152.9,11.02,156.07,7.09,156.07"/>
<path class="st0" d="M7.09,191.54c-3.93,0-7.09-3.17-7.09-7.09c0-3.9,3.17-7.1,7.09-7.1c3.92,0,7.09,3.2,7.09,7.1
	C14.19,188.37,11.02,191.54,7.09,191.54"/>
<path class="st0" d="M7.09,227.01c-3.93,0-7.09-3.17-7.09-7.09c0-3.9,3.17-7.09,7.09-7.09c3.92,0,7.09,3.19,7.09,7.09
	C14.19,223.84,11.02,227.01,7.09,227.01"/>
<path class="st0" d="M7.09,262.48c-3.93,0-7.09-3.17-7.09-7.09c0-3.93,3.17-7.09,7.09-7.09c3.92,0,7.09,3.17,7.09,7.09
	C14.19,259.31,11.02,262.48,7.09,262.48"/>
<path class="st0" d="M7.09,297.95c-3.93,0-7.09-3.17-7.09-7.1c0-3.9,3.17-7.09,7.09-7.09c3.92,0,7.09,3.19,7.09,7.09
	C14.19,294.78,11.02,297.95,7.09,297.95"/>
<path class="st0" d="M315.68,14.19c-3.93,0-7.09-3.17-7.09-7.09c0-3.93,3.17-7.09,7.09-7.09c3.92,0,7.09,3.17,7.09,7.09
	C322.77,11.02,319.61,14.19,315.68,14.19"/>
<path class="st0" d="M315.68,49.66c-3.93,0-7.09-3.17-7.09-7.09c0-3.9,3.17-7.09,7.09-7.09c3.92,0,7.09,3.2,7.09,7.09
	C322.77,46.49,319.61,49.66,315.68,49.66"/>
<path class="st0" d="M315.68,85.13c-3.93,0-7.09-3.17-7.09-7.1c0-3.92,3.17-7.09,7.09-7.09c3.92,0,7.09,3.17,7.09,7.09
	C322.77,81.96,319.61,85.13,315.68,85.13"/>
<path class="st0" d="M315.68,120.6c-3.93,0-7.09-3.17-7.09-7.09c0-3.9,3.17-7.09,7.09-7.09c3.92,0,7.09,3.2,7.09,7.09
	C322.77,117.43,319.61,120.6,315.68,120.6"/>
<path class="st0" d="M315.68,156.07c-3.93,0-7.09-3.17-7.09-7.09c0-3.92,3.17-7.09,7.09-7.09c3.92,0,7.09,3.17,7.09,7.09
	C322.77,152.9,319.61,156.07,315.68,156.07"/>
<path class="st0" d="M315.68,191.54c-3.93,0-7.09-3.17-7.09-7.09c0-3.9,3.17-7.1,7.09-7.1c3.92,0,7.09,3.2,7.09,7.1
	C322.77,188.37,319.61,191.54,315.68,191.54"/>
<path class="st0" d="M315.68,227.01c-3.93,0-7.09-3.17-7.09-7.09c0-3.9,3.17-7.09,7.09-7.09c3.92,0,7.09,3.19,7.09,7.09
	C322.77,223.84,319.61,227.01,315.68,227.01"/>
<path class="st0" d="M315.68,262.48c-3.93,0-7.09-3.17-7.09-7.09c0-3.93,3.17-7.09,7.09-7.09c3.92,0,7.09,3.17,7.09,7.09
	C322.77,259.31,319.61,262.48,315.68,262.48"/>
<path class="st0" d="M315.68,297.95c-3.93,0-7.09-3.17-7.09-7.1c0-3.9,3.17-7.09,7.09-7.09c3.92,0,7.09,3.19,7.09,7.09
	C322.77,294.78,319.61,297.95,315.68,297.95"/>
<path class="st0" d="M281.39,14.19c-3.93,0-7.09-3.17-7.09-7.09c0-3.93,3.17-7.09,7.09-7.09s7.1,3.17,7.1,7.09
	C288.49,11.02,285.32,14.19,281.39,14.19"/>
<path class="st0" d="M281.39,49.66c-3.93,0-7.09-3.17-7.09-7.09c0-3.9,3.17-7.09,7.09-7.09s7.1,3.2,7.1,7.09
	C288.49,46.49,285.32,49.66,281.39,49.66"/>
<path class="st0" d="M281.39,85.13c-3.93,0-7.09-3.17-7.09-7.1c0-3.92,3.17-7.09,7.09-7.09s7.1,3.17,7.1,7.09
	C288.49,81.96,285.32,85.13,281.39,85.13"/>
<path class="st0" d="M281.39,120.6c-3.93,0-7.09-3.17-7.09-7.09c0-3.9,3.17-7.09,7.09-7.09s7.1,3.2,7.1,7.09
	C288.49,117.43,285.32,120.6,281.39,120.6"/>
<path class="st0" d="M281.39,156.07c-3.93,0-7.09-3.17-7.09-7.09c0-3.92,3.17-7.09,7.09-7.09s7.1,3.17,7.1,7.09
	C288.49,152.9,285.32,156.07,281.39,156.07"/>
<path class="st0" d="M281.39,191.54c-3.93,0-7.09-3.17-7.09-7.09c0-3.9,3.17-7.1,7.09-7.1s7.1,3.2,7.1,7.1
	C288.49,188.37,285.32,191.54,281.39,191.54"/>
<path class="st0" d="M281.39,227.01c-3.93,0-7.09-3.17-7.09-7.09c0-3.9,3.17-7.09,7.09-7.09s7.1,3.19,7.1,7.09
	C288.49,223.84,285.32,227.01,281.39,227.01"/>
<path class="st0" d="M281.39,262.48c-3.93,0-7.09-3.17-7.09-7.09c0-3.93,3.17-7.09,7.09-7.09s7.1,3.17,7.1,7.09
	C288.49,259.31,285.32,262.48,281.39,262.48"/>
<path class="st0" d="M281.39,297.95c-3.93,0-7.09-3.17-7.09-7.1c0-3.9,3.17-7.09,7.09-7.09s7.1,3.19,7.1,7.09
	C288.49,294.78,285.32,297.95,281.39,297.95"/>
<path class="st0" d="M247.11,14.19c-3.93,0-7.09-3.17-7.09-7.09c0-3.93,3.17-7.09,7.09-7.09c3.93,0,7.09,3.17,7.09,7.09
	C254.2,11.02,251.03,14.19,247.11,14.19"/>
<path class="st0" d="M247.11,49.66c-3.93,0-7.09-3.17-7.09-7.09c0-3.9,3.17-7.09,7.09-7.09c3.93,0,7.09,3.2,7.09,7.09
	C254.2,46.49,251.03,49.66,247.11,49.66"/>
<path class="st0" d="M247.11,85.13c-3.93,0-7.09-3.17-7.09-7.1c0-3.92,3.17-7.09,7.09-7.09c3.93,0,7.09,3.17,7.09,7.09
	C254.2,81.96,251.03,85.13,247.11,85.13"/>
<path class="st0" d="M247.11,120.6c-3.93,0-7.09-3.17-7.09-7.09c0-3.9,3.17-7.09,7.09-7.09c3.93,0,7.09,3.2,7.09,7.09
	C254.2,117.43,251.03,120.6,247.11,120.6"/>
<path class="st0" d="M247.11,156.07c-3.93,0-7.09-3.17-7.09-7.09c0-3.92,3.17-7.09,7.09-7.09c3.93,0,7.09,3.17,7.09,7.09
	C254.2,152.9,251.03,156.07,247.11,156.07"/>
<path class="st0" d="M247.11,191.54c-3.93,0-7.09-3.17-7.09-7.09c0-3.9,3.17-7.1,7.09-7.1c3.93,0,7.09,3.2,7.09,7.1
	C254.2,188.37,251.03,191.54,247.11,191.54"/>
<path class="st0" d="M247.11,227.01c-3.93,0-7.09-3.17-7.09-7.09c0-3.9,3.17-7.09,7.09-7.09c3.93,0,7.09,3.19,7.09,7.09
	C254.2,223.84,251.03,227.01,247.11,227.01"/>
<path class="st0" d="M247.11,262.48c-3.93,0-7.09-3.17-7.09-7.09c0-3.93,3.17-7.09,7.09-7.09c3.93,0,7.09,3.17,7.09,7.09
	C254.2,259.31,251.03,262.48,247.11,262.48"/>
<path class="st0" d="M247.11,297.95c-3.93,0-7.09-3.17-7.09-7.1c0-3.9,3.17-7.09,7.09-7.09c3.93,0,7.09,3.19,7.09,7.09
	C254.2,294.78,251.03,297.95,247.11,297.95"/>
<path class="st0" d="M212.82,14.19c-3.93,0-7.09-3.17-7.09-7.09c0-3.93,3.17-7.09,7.09-7.09s7.09,3.17,7.09,7.09
	C219.91,11.02,216.74,14.19,212.82,14.19"/>
<path class="st0" d="M212.82,49.66c-3.93,0-7.09-3.17-7.09-7.09c0-3.9,3.17-7.09,7.09-7.09s7.09,3.2,7.09,7.09
	C219.91,46.49,216.74,49.66,212.82,49.66"/>
<path class="st0" d="M212.82,85.13c-3.93,0-7.09-3.17-7.09-7.1c0-3.92,3.17-7.09,7.09-7.09s7.09,3.17,7.09,7.09
	C219.91,81.96,216.74,85.13,212.82,85.13"/>
<path class="st0" d="M212.82,120.6c-3.93,0-7.09-3.17-7.09-7.09c0-3.9,3.17-7.09,7.09-7.09s7.09,3.2,7.09,7.09
	C219.91,117.43,216.74,120.6,212.82,120.6"/>
<path class="st0" d="M212.82,156.07c-3.93,0-7.09-3.17-7.09-7.09c0-3.92,3.17-7.09,7.09-7.09s7.09,3.17,7.09,7.09
	C219.91,152.9,216.74,156.07,212.82,156.07"/>
<path class="st0" d="M212.82,191.54c-3.93,0-7.09-3.17-7.09-7.09c0-3.9,3.17-7.1,7.09-7.1s7.09,3.2,7.09,7.1
	C219.91,188.37,216.74,191.54,212.82,191.54"/>
<path class="st0" d="M212.82,227.01c-3.93,0-7.09-3.17-7.09-7.09c0-3.9,3.17-7.09,7.09-7.09s7.09,3.19,7.09,7.09
	C219.91,223.84,216.74,227.01,212.82,227.01"/>
<path class="st0" d="M212.82,262.48c-3.93,0-7.09-3.17-7.09-7.09c0-3.93,3.17-7.09,7.09-7.09s7.09,3.17,7.09,7.09
	C219.91,259.31,216.74,262.48,212.82,262.48"/>
<path class="st0" d="M212.82,297.95c-3.93,0-7.09-3.17-7.09-7.1c0-3.9,3.17-7.09,7.09-7.09s7.09,3.19,7.09,7.09
	C219.91,294.78,216.74,297.95,212.82,297.95"/>
<path class="st0" d="M178.53,14.19c-3.93,0-7.09-3.17-7.09-7.09c0-3.93,3.17-7.09,7.09-7.09c3.92,0,7.09,3.17,7.09,7.09
	C185.62,11.02,182.46,14.19,178.53,14.19"/>
<path class="st0" d="M178.53,49.66c-3.93,0-7.09-3.17-7.09-7.09c0-3.9,3.17-7.09,7.09-7.09c3.92,0,7.09,3.2,7.09,7.09
	C185.62,46.49,182.46,49.66,178.53,49.66"/>
<path class="st0" d="M178.53,85.13c-3.93,0-7.09-3.17-7.09-7.1c0-3.92,3.17-7.09,7.09-7.09c3.92,0,7.09,3.17,7.09,7.09
	C185.62,81.96,182.46,85.13,178.53,85.13"/>
<path class="st0" d="M178.53,120.6c-3.93,0-7.09-3.17-7.09-7.09c0-3.9,3.17-7.09,7.09-7.09c3.92,0,7.09,3.2,7.09,7.09
	C185.62,117.43,182.46,120.6,178.53,120.6"/>
<path class="st0" d="M178.53,156.07c-3.93,0-7.09-3.17-7.09-7.09c0-3.92,3.17-7.09,7.09-7.09c3.92,0,7.09,3.17,7.09,7.09
	C185.62,152.9,182.46,156.07,178.53,156.07"/>
<path class="st0" d="M178.53,191.54c-3.93,0-7.09-3.17-7.09-7.09c0-3.9,3.17-7.1,7.09-7.1c3.92,0,7.09,3.2,7.09,7.1
	C185.62,188.37,182.46,191.54,178.53,191.54"/>
<path class="st0" d="M178.53,227.01c-3.93,0-7.09-3.17-7.09-7.09c0-3.9,3.17-7.09,7.09-7.09c3.92,0,7.09,3.19,7.09,7.09
	C185.62,223.84,182.46,227.01,178.53,227.01"/>
<path class="st0" d="M178.53,262.48c-3.93,0-7.09-3.17-7.09-7.09c0-3.93,3.17-7.09,7.09-7.09c3.92,0,7.09,3.17,7.09,7.09
	C185.62,259.31,182.46,262.48,178.53,262.48"/>
<path class="st0" d="M178.53,297.95c-3.93,0-7.09-3.17-7.09-7.1c0-3.9,3.17-7.09,7.09-7.09c3.92,0,7.09,3.19,7.09,7.09
	C185.62,294.78,182.46,297.95,178.53,297.95"/>
<path class="st0" d="M487.12,14.19c-3.92,0-7.09-3.17-7.09-7.09c0-3.93,3.17-7.09,7.09-7.09c3.93,0,7.09,3.17,7.09,7.09
	C494.21,11.02,491.04,14.19,487.12,14.19"/>
<path class="st0" d="M487.12,49.66c-3.92,0-7.09-3.17-7.09-7.09c0-3.9,3.17-7.09,7.09-7.09c3.93,0,7.09,3.2,7.09,7.09
	C494.21,46.49,491.04,49.66,487.12,49.66"/>
<path class="st0" d="M487.12,85.13c-3.92,0-7.09-3.17-7.09-7.1c0-3.92,3.17-7.09,7.09-7.09c3.93,0,7.09,3.17,7.09,7.09
	C494.21,81.96,491.04,85.13,487.12,85.13"/>
<path class="st0" d="M487.12,120.6c-3.92,0-7.09-3.17-7.09-7.09c0-3.9,3.17-7.09,7.09-7.09c3.93,0,7.09,3.2,7.09,7.09
	C494.21,117.43,491.04,120.6,487.12,120.6"/>
<path class="st0" d="M487.12,156.07c-3.92,0-7.09-3.17-7.09-7.09c0-3.92,3.17-7.09,7.09-7.09c3.93,0,7.09,3.17,7.09,7.09
	C494.21,152.9,491.04,156.07,487.12,156.07"/>
<path class="st0" d="M487.12,191.54c-3.92,0-7.09-3.17-7.09-7.09c0-3.9,3.17-7.1,7.09-7.1c3.93,0,7.09,3.2,7.09,7.1
	C494.21,188.37,491.04,191.54,487.12,191.54"/>
<path class="st0" d="M487.12,227.01c-3.92,0-7.09-3.17-7.09-7.09c0-3.9,3.17-7.09,7.09-7.09c3.93,0,7.09,3.19,7.09,7.09
	C494.21,223.84,491.04,227.01,487.12,227.01"/>
<path class="st0" d="M487.12,262.48c-3.92,0-7.09-3.17-7.09-7.09c0-3.93,3.17-7.09,7.09-7.09c3.93,0,7.09,3.17,7.09,7.09
	C494.21,259.31,491.04,262.48,487.12,262.48"/>
<path class="st0" d="M487.12,297.95c-3.92,0-7.09-3.17-7.09-7.1c0-3.9,3.17-7.09,7.09-7.09c3.93,0,7.09,3.19,7.09,7.09
	C494.21,294.78,491.04,297.95,487.12,297.95"/>
<path class="st0" d="M452.83,14.19c-3.92,0-7.09-3.17-7.09-7.09c0-3.93,3.17-7.09,7.09-7.09c3.93,0,7.1,3.17,7.1,7.09
	C459.92,11.02,456.75,14.19,452.83,14.19"/>
<path class="st0" d="M452.83,49.66c-3.92,0-7.09-3.17-7.09-7.09c0-3.9,3.17-7.09,7.09-7.09c3.93,0,7.1,3.2,7.1,7.09
	C459.92,46.49,456.75,49.66,452.83,49.66"/>
<path class="st0" d="M452.83,85.13c-3.92,0-7.09-3.17-7.09-7.1c0-3.92,3.17-7.09,7.09-7.09c3.93,0,7.1,3.17,7.1,7.09
	C459.92,81.96,456.75,85.13,452.83,85.13"/>
<path class="st0" d="M452.83,120.6c-3.92,0-7.09-3.17-7.09-7.09c0-3.9,3.17-7.09,7.09-7.09c3.93,0,7.1,3.2,7.1,7.09
	C459.92,117.43,456.75,120.6,452.83,120.6"/>
<path class="st0" d="M452.83,156.07c-3.92,0-7.09-3.17-7.09-7.09c0-3.92,3.17-7.09,7.09-7.09c3.93,0,7.1,3.17,7.1,7.09
	C459.92,152.9,456.75,156.07,452.83,156.07"/>
<path class="st0" d="M452.83,191.54c-3.92,0-7.09-3.17-7.09-7.09c0-3.9,3.17-7.1,7.09-7.1c3.93,0,7.1,3.2,7.1,7.1
	C459.92,188.37,456.75,191.54,452.83,191.54"/>
<path class="st0" d="M452.83,227.01c-3.92,0-7.09-3.17-7.09-7.09c0-3.9,3.17-7.09,7.09-7.09c3.93,0,7.1,3.19,7.1,7.09
	C459.92,223.84,456.75,227.01,452.83,227.01"/>
<path class="st0" d="M452.83,262.48c-3.92,0-7.09-3.17-7.09-7.09c0-3.93,3.17-7.09,7.09-7.09c3.93,0,7.1,3.17,7.1,7.09
	C459.92,259.31,456.75,262.48,452.83,262.48"/>
<path class="st0" d="M452.83,297.95c-3.92,0-7.09-3.17-7.09-7.1c0-3.9,3.17-7.09,7.09-7.09c3.93,0,7.1,3.19,7.1,7.09
	C459.92,294.78,456.75,297.95,452.83,297.95"/>
<path class="st0" d="M418.54,14.19c-3.92,0-7.09-3.17-7.09-7.09c0-3.93,3.17-7.09,7.09-7.09c3.93,0,7.1,3.17,7.1,7.09
	C425.64,11.02,422.47,14.19,418.54,14.19"/>
<path class="st0" d="M418.54,49.66c-3.92,0-7.09-3.17-7.09-7.09c0-3.9,3.17-7.09,7.09-7.09c3.93,0,7.1,3.2,7.1,7.09
	C425.64,46.49,422.47,49.66,418.54,49.66"/>
<path class="st0" d="M418.54,85.13c-3.92,0-7.09-3.17-7.09-7.1c0-3.92,3.17-7.09,7.09-7.09c3.93,0,7.1,3.17,7.1,7.09
	C425.64,81.96,422.47,85.13,418.54,85.13"/>
<path class="st0" d="M418.54,120.6c-3.92,0-7.09-3.17-7.09-7.09c0-3.9,3.17-7.09,7.09-7.09c3.93,0,7.1,3.2,7.1,7.09
	C425.64,117.43,422.47,120.6,418.54,120.6"/>
<path class="st0" d="M418.54,156.07c-3.92,0-7.09-3.17-7.09-7.09c0-3.92,3.17-7.09,7.09-7.09c3.93,0,7.1,3.17,7.1,7.09
	C425.64,152.9,422.47,156.07,418.54,156.07"/>
<path class="st0" d="M418.54,191.54c-3.92,0-7.09-3.17-7.09-7.09c0-3.9,3.17-7.1,7.09-7.1c3.93,0,7.1,3.2,7.1,7.1
	C425.64,188.37,422.47,191.54,418.54,191.54"/>
<path class="st0" d="M418.54,227.01c-3.92,0-7.09-3.17-7.09-7.09c0-3.9,3.17-7.09,7.09-7.09c3.93,0,7.1,3.19,7.1,7.09
	C425.64,223.84,422.47,227.01,418.54,227.01"/>
<path class="st0" d="M418.54,262.48c-3.92,0-7.09-3.17-7.09-7.09c0-3.93,3.17-7.09,7.09-7.09c3.93,0,7.1,3.17,7.1,7.09
	C425.64,259.31,422.47,262.48,418.54,262.48"/>
<path class="st0" d="M418.54,297.95c-3.92,0-7.09-3.17-7.09-7.1c0-3.9,3.17-7.09,7.09-7.09c3.93,0,7.1,3.19,7.1,7.09
	C425.64,294.78,422.47,297.95,418.54,297.95"/>
<path class="st0" d="M384.25,14.19c-3.93,0-7.1-3.17-7.1-7.09c0-3.93,3.17-7.09,7.1-7.09c3.92,0,7.09,3.17,7.09,7.09
	C391.35,11.02,388.18,14.19,384.25,14.19"/>
<path class="st0" d="M384.25,49.66c-3.93,0-7.1-3.17-7.1-7.09c0-3.9,3.17-7.09,7.1-7.09c3.92,0,7.09,3.2,7.09,7.09
	C391.35,46.49,388.18,49.66,384.25,49.66"/>
<path class="st0" d="M384.25,85.13c-3.93,0-7.1-3.17-7.1-7.1c0-3.92,3.17-7.09,7.1-7.09c3.92,0,7.09,3.17,7.09,7.09
	C391.35,81.96,388.18,85.13,384.25,85.13"/>
<path class="st0" d="M384.25,120.6c-3.93,0-7.1-3.17-7.1-7.09c0-3.9,3.17-7.09,7.1-7.09c3.92,0,7.09,3.2,7.09,7.09
	C391.35,117.43,388.18,120.6,384.25,120.6"/>
<path class="st0" d="M384.25,156.07c-3.93,0-7.1-3.17-7.1-7.09c0-3.92,3.17-7.09,7.1-7.09c3.92,0,7.09,3.17,7.09,7.09
	C391.35,152.9,388.18,156.07,384.25,156.07"/>
<path class="st0" d="M384.25,191.54c-3.93,0-7.1-3.17-7.1-7.09c0-3.9,3.17-7.1,7.1-7.1c3.92,0,7.09,3.2,7.09,7.1
	C391.35,188.37,388.18,191.54,384.25,191.54"/>
<path class="st0" d="M384.25,227.01c-3.93,0-7.1-3.17-7.1-7.09c0-3.9,3.17-7.09,7.1-7.09c3.92,0,7.09,3.19,7.09,7.09
	C391.35,223.84,388.18,227.01,384.25,227.01"/>
<path class="st0" d="M384.25,262.48c-3.93,0-7.1-3.17-7.1-7.09c0-3.93,3.17-7.09,7.1-7.09c3.92,0,7.09,3.17,7.09,7.09
	C391.35,259.31,388.18,262.48,384.25,262.48"/>
<path class="st0" d="M384.25,297.95c-3.93,0-7.1-3.17-7.1-7.1c0-3.9,3.17-7.09,7.1-7.09c3.92,0,7.09,3.19,7.09,7.09
	C391.35,294.78,388.18,297.95,384.25,297.95"/>
<path class="st0" d="M349.97,14.19c-3.93,0-7.1-3.17-7.1-7.09c0-3.93,3.17-7.09,7.1-7.09c3.92,0,7.09,3.17,7.09,7.09
	C357.06,11.02,353.89,14.19,349.97,14.19"/>
<path class="st0" d="M349.97,49.66c-3.93,0-7.1-3.17-7.1-7.09c0-3.9,3.17-7.09,7.1-7.09c3.92,0,7.09,3.2,7.09,7.09
	C357.06,46.49,353.89,49.66,349.97,49.66"/>
<path class="st0" d="M349.97,85.13c-3.93,0-7.1-3.17-7.1-7.1c0-3.92,3.17-7.09,7.1-7.09c3.92,0,7.09,3.17,7.09,7.09
	C357.06,81.96,353.89,85.13,349.97,85.13"/>
<path class="st0" d="M349.97,120.6c-3.93,0-7.1-3.17-7.1-7.09c0-3.9,3.17-7.09,7.1-7.09c3.92,0,7.09,3.2,7.09,7.09
	C357.06,117.43,353.89,120.6,349.97,120.6"/>
<path class="st0" d="M349.97,156.07c-3.93,0-7.1-3.17-7.1-7.09c0-3.92,3.17-7.09,7.1-7.09c3.92,0,7.09,3.17,7.09,7.09
	C357.06,152.9,353.89,156.07,349.97,156.07"/>
<path class="st0" d="M349.97,191.54c-3.93,0-7.1-3.17-7.1-7.09c0-3.9,3.17-7.1,7.1-7.1c3.92,0,7.09,3.2,7.09,7.1
	C357.06,188.37,353.89,191.54,349.97,191.54"/>
<path class="st0" d="M349.97,227.01c-3.93,0-7.1-3.17-7.1-7.09c0-3.9,3.17-7.09,7.1-7.09c3.92,0,7.09,3.19,7.09,7.09
	C357.06,223.84,353.89,227.01,349.97,227.01"/>
<path class="st0" d="M349.97,262.48c-3.93,0-7.1-3.17-7.1-7.09c0-3.93,3.17-7.09,7.1-7.09c3.92,0,7.09,3.17,7.09,7.09
	C357.06,259.31,353.89,262.48,349.97,262.48"/>
<path class="st0" d="M349.97,297.95c-3.93,0-7.1-3.17-7.1-7.1c0-3.9,3.17-7.09,7.1-7.09c3.92,0,7.09,3.19,7.09,7.09
	C357.06,294.78,353.89,297.95,349.97,297.95"/>
<path class="st0" d="M521.4,14.19c-3.93,0-7.09-3.17-7.09-7.09c0-3.93,3.17-7.09,7.09-7.09c3.92,0,7.09,3.17,7.09,7.09
	C528.5,11.02,525.33,14.19,521.4,14.19"/>
<path class="st0" d="M521.4,49.66c-3.93,0-7.09-3.17-7.09-7.09c0-3.9,3.17-7.09,7.09-7.09c3.92,0,7.09,3.2,7.09,7.09
	C528.5,46.49,525.33,49.66,521.4,49.66"/>
<path class="st0" d="M521.4,85.13c-3.93,0-7.09-3.17-7.09-7.1c0-3.92,3.17-7.09,7.09-7.09c3.92,0,7.09,3.17,7.09,7.09
	C528.5,81.96,525.33,85.13,521.4,85.13"/>
<path class="st0" d="M521.4,120.6c-3.93,0-7.09-3.17-7.09-7.09c0-3.9,3.17-7.09,7.09-7.09c3.92,0,7.09,3.2,7.09,7.09
	C528.5,117.43,525.33,120.6,521.4,120.6"/>
<path class="st0" d="M521.4,156.07c-3.93,0-7.09-3.17-7.09-7.09c0-3.92,3.17-7.09,7.09-7.09c3.92,0,7.09,3.17,7.09,7.09
	C528.5,152.9,525.33,156.07,521.4,156.07"/>
<path class="st0" d="M521.4,191.54c-3.93,0-7.09-3.17-7.09-7.09c0-3.9,3.17-7.1,7.09-7.1c3.92,0,7.09,3.2,7.09,7.1
	C528.5,188.37,525.33,191.54,521.4,191.54"/>
<path class="st0" d="M521.4,227.01c-3.93,0-7.09-3.17-7.09-7.09c0-3.9,3.17-7.09,7.09-7.09c3.92,0,7.09,3.19,7.09,7.09
	C528.5,223.84,525.33,227.01,521.4,227.01"/>
<path class="st0" d="M521.4,262.48c-3.93,0-7.09-3.17-7.09-7.09c0-3.93,3.17-7.09,7.09-7.09c3.92,0,7.09,3.17,7.09,7.09
	C528.5,259.31,525.33,262.48,521.4,262.48"/>
<path class="st0" d="M521.4,297.95c-3.93,0-7.09-3.17-7.09-7.1c0-3.9,3.17-7.09,7.09-7.09c3.92,0,7.09,3.19,7.09,7.09
	C528.5,294.78,525.33,297.95,521.4,297.95"/>
<path class="st0" d="M144.24,332.23c-3.93,0-7.09-3.17-7.09-7.09c0-3.93,3.17-7.1,7.09-7.1c3.93,0,7.09,3.17,7.09,7.1
	C151.34,329.07,148.17,332.23,144.24,332.23"/>
<path class="st0" d="M144.24,367.7c-3.93,0-7.09-3.17-7.09-7.1c0-3.9,3.17-7.09,7.09-7.09c3.93,0,7.09,3.2,7.09,7.09
	C151.34,364.54,148.17,367.7,144.24,367.7"/>
<path class="st0" d="M144.24,403.17c-3.93,0-7.09-3.17-7.09-7.1c0-3.92,3.17-7.09,7.09-7.09c3.93,0,7.09,3.17,7.09,7.09
	C151.34,400.01,148.17,403.17,144.24,403.17"/>
<path class="st0" d="M144.24,438.64c-3.93,0-7.09-3.17-7.09-7.09c0-3.9,3.17-7.09,7.09-7.09c3.93,0,7.09,3.2,7.09,7.09
	C151.34,435.47,148.17,438.64,144.24,438.64"/>
<path class="st0" d="M144.24,474.11c-3.93,0-7.09-3.17-7.09-7.09c0-3.93,3.17-7.1,7.09-7.1c3.93,0,7.09,3.17,7.09,7.1
	C151.34,470.95,148.17,474.11,144.24,474.11"/>
<path class="st0" d="M144.24,509.58c-3.93,0-7.09-3.17-7.09-7.09c0-3.9,3.17-7.09,7.09-7.09c3.93,0,7.09,3.2,7.09,7.09
	C151.34,506.41,148.17,509.58,144.24,509.58"/>
<path class="st0" d="M109.96,332.23c-3.92,0-7.09-3.17-7.09-7.09c0-3.93,3.17-7.1,7.09-7.1c3.93,0,7.1,3.17,7.1,7.1
	C117.05,329.07,113.88,332.23,109.96,332.23"/>
<path class="st0" d="M109.96,367.7c-3.92,0-7.09-3.17-7.09-7.1c0-3.9,3.17-7.09,7.09-7.09c3.93,0,7.1,3.2,7.1,7.09
	C117.05,364.54,113.88,367.7,109.96,367.7"/>
<path class="st0" d="M109.96,403.17c-3.92,0-7.09-3.17-7.09-7.1c0-3.92,3.17-7.09,7.09-7.09c3.93,0,7.1,3.17,7.1,7.09
	C117.05,400.01,113.88,403.17,109.96,403.17"/>
<path class="st0" d="M109.96,438.64c-3.92,0-7.09-3.17-7.09-7.09c0-3.9,3.17-7.09,7.09-7.09c3.93,0,7.1,3.2,7.1,7.09
	C117.05,435.47,113.88,438.64,109.96,438.64"/>
<path class="st0" d="M109.96,474.11c-3.92,0-7.09-3.17-7.09-7.09c0-3.93,3.17-7.1,7.09-7.1c3.93,0,7.1,3.17,7.1,7.1
	C117.05,470.95,113.88,474.11,109.96,474.11"/>
<path class="st0" d="M109.96,509.58c-3.92,0-7.09-3.17-7.09-7.09c0-3.9,3.17-7.09,7.09-7.09c3.93,0,7.1,3.2,7.1,7.09
	C117.05,506.41,113.88,509.58,109.96,509.58"/>
<path class="st0" d="M75.67,332.23c-3.93,0-7.09-3.17-7.09-7.09c0-3.93,3.17-7.1,7.09-7.1c3.93,0,7.09,3.17,7.09,7.1
	C82.76,329.07,79.59,332.23,75.67,332.23"/>
<path class="st0" d="M75.67,367.7c-3.93,0-7.09-3.17-7.09-7.1c0-3.9,3.17-7.09,7.09-7.09c3.93,0,7.09,3.2,7.09,7.09
	C82.76,364.54,79.59,367.7,75.67,367.7"/>
<path class="st0" d="M75.67,403.17c-3.93,0-7.09-3.17-7.09-7.1c0-3.92,3.17-7.09,7.09-7.09c3.93,0,7.09,3.17,7.09,7.09
	C82.76,400.01,79.59,403.17,75.67,403.17"/>
<path class="st0" d="M75.67,438.64c-3.93,0-7.09-3.17-7.09-7.09c0-3.9,3.17-7.09,7.09-7.09c3.93,0,7.09,3.2,7.09,7.09
	C82.76,435.47,79.59,438.64,75.67,438.64"/>
<path class="st0" d="M75.67,474.11c-3.93,0-7.09-3.17-7.09-7.09c0-3.93,3.17-7.1,7.09-7.1c3.93,0,7.09,3.17,7.09,7.1
	C82.76,470.95,79.59,474.11,75.67,474.11"/>
<path class="st0" d="M75.67,509.58c-3.93,0-7.09-3.17-7.09-7.09c0-3.9,3.17-7.09,7.09-7.09c3.93,0,7.09,3.2,7.09,7.09
	C82.76,506.41,79.59,509.58,75.67,509.58"/>
<path class="st0" d="M41.38,332.23c-3.93,0-7.09-3.17-7.09-7.09c0-3.93,3.17-7.1,7.09-7.1c3.93,0,7.09,3.17,7.09,7.1
	C48.48,329.07,45.31,332.23,41.38,332.23"/>
<path class="st0" d="M41.38,367.7c-3.93,0-7.09-3.17-7.09-7.1c0-3.9,3.17-7.09,7.09-7.09c3.93,0,7.09,3.2,7.09,7.09
	C48.48,364.54,45.31,367.7,41.38,367.7"/>
<path class="st0" d="M41.38,403.17c-3.93,0-7.09-3.17-7.09-7.1c0-3.92,3.17-7.09,7.09-7.09c3.93,0,7.09,3.17,7.09,7.09
	C48.48,400.01,45.31,403.17,41.38,403.17"/>
<path class="st0" d="M41.38,438.64c-3.93,0-7.09-3.17-7.09-7.09c0-3.9,3.17-7.09,7.09-7.09c3.93,0,7.09,3.2,7.09,7.09
	C48.48,435.47,45.31,438.64,41.38,438.64"/>
<path class="st0" d="M41.38,474.11c-3.93,0-7.09-3.17-7.09-7.09c0-3.93,3.17-7.1,7.09-7.1c3.93,0,7.09,3.17,7.09,7.1
	C48.48,470.95,45.31,474.11,41.38,474.11"/>
<path class="st0" d="M41.38,509.58c-3.93,0-7.09-3.17-7.09-7.09c0-3.9,3.17-7.09,7.09-7.09c3.93,0,7.09,3.2,7.09,7.09
	C48.48,506.41,45.31,509.58,41.38,509.58"/>
<path class="st0" d="M7.09,332.23c-3.93,0-7.09-3.17-7.09-7.09c0-3.93,3.17-7.1,7.09-7.1c3.92,0,7.09,3.17,7.09,7.1
	C14.19,329.07,11.02,332.23,7.09,332.23"/>
<path class="st0" d="M7.09,367.7c-3.93,0-7.09-3.17-7.09-7.1c0-3.9,3.17-7.09,7.09-7.09c3.92,0,7.09,3.2,7.09,7.09
	C14.19,364.54,11.02,367.7,7.09,367.7"/>
<path class="st0" d="M7.09,403.17c-3.93,0-7.09-3.17-7.09-7.1c0-3.92,3.17-7.09,7.09-7.09c3.92,0,7.09,3.17,7.09,7.09
	C14.19,400.01,11.02,403.17,7.09,403.17"/>
<path class="st0" d="M7.09,438.64c-3.93,0-7.09-3.17-7.09-7.09c0-3.9,3.17-7.09,7.09-7.09c3.92,0,7.09,3.2,7.09,7.09
	C14.19,435.47,11.02,438.64,7.09,438.64"/>
<path class="st0" d="M7.09,474.11c-3.93,0-7.09-3.17-7.09-7.09c0-3.93,3.17-7.1,7.09-7.1c3.92,0,7.09,3.17,7.09,7.1
	C14.19,470.95,11.02,474.11,7.09,474.11"/>
<path class="st0" d="M7.09,509.58c-3.93,0-7.09-3.17-7.09-7.09c0-3.9,3.17-7.09,7.09-7.09c3.92,0,7.09,3.2,7.09,7.09
	C14.19,506.41,11.02,509.58,7.09,509.58"/>
<path class="st0" d="M315.68,332.23c-3.93,0-7.09-3.17-7.09-7.09c0-3.93,3.17-7.1,7.09-7.1c3.92,0,7.09,3.17,7.09,7.1
	C322.77,329.07,319.61,332.23,315.68,332.23"/>
<path class="st0" d="M315.68,367.7c-3.93,0-7.09-3.17-7.09-7.1c0-3.9,3.17-7.09,7.09-7.09c3.92,0,7.09,3.2,7.09,7.09
	C322.77,364.54,319.61,367.7,315.68,367.7"/>
<path class="st0" d="M315.68,403.17c-3.93,0-7.09-3.17-7.09-7.1c0-3.92,3.17-7.09,7.09-7.09c3.92,0,7.09,3.17,7.09,7.09
	C322.77,400.01,319.61,403.17,315.68,403.17"/>
<path class="st0" d="M315.68,438.64c-3.93,0-7.09-3.17-7.09-7.09c0-3.9,3.17-7.09,7.09-7.09c3.92,0,7.09,3.2,7.09,7.09
	C322.77,435.47,319.61,438.64,315.68,438.64"/>
<path class="st0" d="M315.68,474.11c-3.93,0-7.09-3.17-7.09-7.09c0-3.93,3.17-7.1,7.09-7.1c3.92,0,7.09,3.17,7.09,7.1
	C322.77,470.95,319.61,474.11,315.68,474.11"/>
<path class="st0" d="M315.68,509.58c-3.93,0-7.09-3.17-7.09-7.09c0-3.9,3.17-7.09,7.09-7.09c3.92,0,7.09,3.2,7.09,7.09
	C322.77,506.41,319.61,509.58,315.68,509.58"/>
<path class="st0" d="M281.39,332.23c-3.93,0-7.09-3.17-7.09-7.09c0-3.93,3.17-7.1,7.09-7.1s7.1,3.17,7.1,7.1
	C288.49,329.07,285.32,332.23,281.39,332.23"/>
<path class="st0" d="M281.39,367.7c-3.93,0-7.09-3.17-7.09-7.1c0-3.9,3.17-7.09,7.09-7.09s7.1,3.2,7.1,7.09
	C288.49,364.54,285.32,367.7,281.39,367.7"/>
<path class="st0" d="M281.39,403.17c-3.93,0-7.09-3.17-7.09-7.1c0-3.92,3.17-7.09,7.09-7.09s7.1,3.17,7.1,7.09
	C288.49,400.01,285.32,403.17,281.39,403.17"/>
<path class="st0" d="M281.39,438.64c-3.93,0-7.09-3.17-7.09-7.09c0-3.9,3.17-7.09,7.09-7.09s7.1,3.2,7.1,7.09
	C288.49,435.47,285.32,438.64,281.39,438.64"/>
<path class="st0" d="M281.39,474.11c-3.93,0-7.09-3.17-7.09-7.09c0-3.93,3.17-7.1,7.09-7.1s7.1,3.17,7.1,7.1
	C288.49,470.95,285.32,474.11,281.39,474.11"/>
<path class="st0" d="M281.39,509.58c-3.93,0-7.09-3.17-7.09-7.09c0-3.9,3.17-7.09,7.09-7.09s7.1,3.2,7.1,7.09
	C288.49,506.41,285.32,509.58,281.39,509.58"/>
<path class="st0" d="M247.11,332.23c-3.93,0-7.09-3.17-7.09-7.09c0-3.93,3.17-7.1,7.09-7.1c3.93,0,7.09,3.17,7.09,7.1
	C254.2,329.07,251.03,332.23,247.11,332.23"/>
<path class="st0" d="M247.11,367.7c-3.93,0-7.09-3.17-7.09-7.1c0-3.9,3.17-7.09,7.09-7.09c3.93,0,7.09,3.2,7.09,7.09
	C254.2,364.54,251.03,367.7,247.11,367.7"/>
<path class="st0" d="M247.11,403.17c-3.93,0-7.09-3.17-7.09-7.1c0-3.92,3.17-7.09,7.09-7.09c3.93,0,7.09,3.17,7.09,7.09
	C254.2,400.01,251.03,403.17,247.11,403.17"/>
<path class="st0" d="M247.11,438.64c-3.93,0-7.09-3.17-7.09-7.09c0-3.9,3.17-7.09,7.09-7.09c3.93,0,7.09,3.2,7.09,7.09
	C254.2,435.47,251.03,438.64,247.11,438.64"/>
<path class="st0" d="M247.11,474.11c-3.93,0-7.09-3.17-7.09-7.09c0-3.93,3.17-7.1,7.09-7.1c3.93,0,7.09,3.17,7.09,7.1
	C254.2,470.95,251.03,474.11,247.11,474.11"/>
<path class="st0" d="M247.11,509.58c-3.93,0-7.09-3.17-7.09-7.09c0-3.9,3.17-7.09,7.09-7.09c3.93,0,7.09,3.2,7.09,7.09
	C254.2,506.41,251.03,509.58,247.11,509.58"/>
<path class="st0" d="M212.82,332.23c-3.93,0-7.09-3.17-7.09-7.09c0-3.93,3.17-7.1,7.09-7.1s7.09,3.17,7.09,7.1
	C219.91,329.07,216.74,332.23,212.82,332.23"/>
<path class="st0" d="M212.82,367.7c-3.93,0-7.09-3.17-7.09-7.1c0-3.9,3.17-7.09,7.09-7.09s7.09,3.2,7.09,7.09
	C219.91,364.54,216.74,367.7,212.82,367.7"/>
<path class="st0" d="M212.82,403.17c-3.93,0-7.09-3.17-7.09-7.1c0-3.92,3.17-7.09,7.09-7.09s7.09,3.17,7.09,7.09
	C219.91,400.01,216.74,403.17,212.82,403.17"/>
<path class="st0" d="M212.82,438.64c-3.93,0-7.09-3.17-7.09-7.09c0-3.9,3.17-7.09,7.09-7.09s7.09,3.2,7.09,7.09
	C219.91,435.47,216.74,438.64,212.82,438.64"/>
<path class="st0" d="M212.82,474.11c-3.93,0-7.09-3.17-7.09-7.09c0-3.93,3.17-7.1,7.09-7.1s7.09,3.17,7.09,7.1
	C219.91,470.95,216.74,474.11,212.82,474.11"/>
<path class="st0" d="M212.82,509.58c-3.93,0-7.09-3.17-7.09-7.09c0-3.9,3.17-7.09,7.09-7.09s7.09,3.2,7.09,7.09
	C219.91,506.41,216.74,509.58,212.82,509.58"/>
<path class="st0" d="M178.53,332.23c-3.93,0-7.09-3.17-7.09-7.09c0-3.93,3.17-7.1,7.09-7.1c3.92,0,7.09,3.17,7.09,7.1
	C185.62,329.07,182.46,332.23,178.53,332.23"/>
<path class="st0" d="M178.53,367.7c-3.93,0-7.09-3.17-7.09-7.1c0-3.9,3.17-7.09,7.09-7.09c3.92,0,7.09,3.2,7.09,7.09
	C185.62,364.54,182.46,367.7,178.53,367.7"/>
<path class="st0" d="M178.53,403.17c-3.93,0-7.09-3.17-7.09-7.1c0-3.92,3.17-7.09,7.09-7.09c3.92,0,7.09,3.17,7.09,7.09
	C185.62,400.01,182.46,403.17,178.53,403.17"/>
<path class="st0" d="M178.53,438.64c-3.93,0-7.09-3.17-7.09-7.09c0-3.9,3.17-7.09,7.09-7.09c3.92,0,7.09,3.2,7.09,7.09
	C185.62,435.47,182.46,438.64,178.53,438.64"/>
<path class="st0" d="M178.53,474.11c-3.93,0-7.09-3.17-7.09-7.09c0-3.93,3.17-7.1,7.09-7.1c3.92,0,7.09,3.17,7.09,7.1
	C185.62,470.95,182.46,474.11,178.53,474.11"/>
<path class="st0" d="M178.53,509.58c-3.93,0-7.09-3.17-7.09-7.09c0-3.9,3.17-7.09,7.09-7.09c3.92,0,7.09,3.2,7.09,7.09
	C185.62,506.41,182.46,509.58,178.53,509.58"/>
<path class="st0" d="M487.12,332.23c-3.92,0-7.09-3.17-7.09-7.09c0-3.93,3.17-7.1,7.09-7.1c3.93,0,7.09,3.17,7.09,7.1
	C494.21,329.07,491.04,332.23,487.12,332.23"/>
<path class="st0" d="M487.12,367.7c-3.92,0-7.09-3.17-7.09-7.1c0-3.9,3.17-7.09,7.09-7.09c3.93,0,7.09,3.2,7.09,7.09
	C494.21,364.54,491.04,367.7,487.12,367.7"/>
<path class="st0" d="M487.12,403.17c-3.92,0-7.09-3.17-7.09-7.1c0-3.92,3.17-7.09,7.09-7.09c3.93,0,7.09,3.17,7.09,7.09
	C494.21,400.01,491.04,403.17,487.12,403.17"/>
<path class="st0" d="M487.12,438.64c-3.92,0-7.09-3.17-7.09-7.09c0-3.9,3.17-7.09,7.09-7.09c3.93,0,7.09,3.2,7.09,7.09
	C494.21,435.47,491.04,438.64,487.12,438.64"/>
<path class="st0" d="M487.12,474.11c-3.92,0-7.09-3.17-7.09-7.09c0-3.93,3.17-7.1,7.09-7.1c3.93,0,7.09,3.17,7.09,7.1
	C494.21,470.95,491.04,474.11,487.12,474.11"/>
<path class="st0" d="M487.12,509.58c-3.92,0-7.09-3.17-7.09-7.09c0-3.9,3.17-7.09,7.09-7.09c3.93,0,7.09,3.2,7.09,7.09
	C494.21,506.41,491.04,509.58,487.12,509.58"/>
<path class="st0" d="M452.83,332.23c-3.92,0-7.09-3.17-7.09-7.09c0-3.93,3.17-7.1,7.09-7.1c3.93,0,7.1,3.17,7.1,7.1
	C459.92,329.07,456.75,332.23,452.83,332.23"/>
<path class="st0" d="M452.83,367.7c-3.92,0-7.09-3.17-7.09-7.1c0-3.9,3.17-7.09,7.09-7.09c3.93,0,7.1,3.2,7.1,7.09
	C459.92,364.54,456.75,367.7,452.83,367.7"/>
<path class="st0" d="M452.83,403.17c-3.92,0-7.09-3.17-7.09-7.1c0-3.92,3.17-7.09,7.09-7.09c3.93,0,7.1,3.17,7.1,7.09
	C459.92,400.01,456.75,403.17,452.83,403.17"/>
<path class="st0" d="M452.83,438.64c-3.92,0-7.09-3.17-7.09-7.09c0-3.9,3.17-7.09,7.09-7.09c3.93,0,7.1,3.2,7.1,7.09
	C459.92,435.47,456.75,438.64,452.83,438.64"/>
<path class="st0" d="M452.83,474.11c-3.92,0-7.09-3.17-7.09-7.09c0-3.93,3.17-7.1,7.09-7.1c3.93,0,7.1,3.17,7.1,7.1
	C459.92,470.95,456.75,474.11,452.83,474.11"/>
<path class="st0" d="M452.83,509.58c-3.92,0-7.09-3.17-7.09-7.09c0-3.9,3.17-7.09,7.09-7.09c3.93,0,7.1,3.2,7.1,7.09
	C459.92,506.41,456.75,509.58,452.83,509.58"/>
<path class="st0" d="M418.54,332.23c-3.92,0-7.09-3.17-7.09-7.09c0-3.93,3.17-7.1,7.09-7.1c3.93,0,7.1,3.17,7.1,7.1
	C425.64,329.07,422.47,332.23,418.54,332.23"/>
<path class="st0" d="M418.54,367.7c-3.92,0-7.09-3.17-7.09-7.1c0-3.9,3.17-7.09,7.09-7.09c3.93,0,7.1,3.2,7.1,7.09
	C425.64,364.54,422.47,367.7,418.54,367.7"/>
<path class="st0" d="M418.54,403.17c-3.92,0-7.09-3.17-7.09-7.1c0-3.92,3.17-7.09,7.09-7.09c3.93,0,7.1,3.17,7.1,7.09
	C425.64,400.01,422.47,403.17,418.54,403.17"/>
<path class="st0" d="M418.54,438.64c-3.92,0-7.09-3.17-7.09-7.09c0-3.9,3.17-7.09,7.09-7.09c3.93,0,7.1,3.2,7.1,7.09
	C425.64,435.47,422.47,438.64,418.54,438.64"/>
<path class="st0" d="M418.54,474.11c-3.92,0-7.09-3.17-7.09-7.09c0-3.93,3.17-7.1,7.09-7.1c3.93,0,7.1,3.17,7.1,7.1
	C425.64,470.95,422.47,474.11,418.54,474.11"/>
<path class="st0" d="M418.54,509.58c-3.92,0-7.09-3.17-7.09-7.09c0-3.9,3.17-7.09,7.09-7.09c3.93,0,7.1,3.2,7.1,7.09
	C425.64,506.41,422.47,509.58,418.54,509.58"/>
<path class="st0" d="M384.25,332.23c-3.93,0-7.1-3.17-7.1-7.09c0-3.93,3.17-7.1,7.1-7.1c3.92,0,7.09,3.17,7.09,7.1
	C391.35,329.07,388.18,332.23,384.25,332.23"/>
<path class="st0" d="M384.25,367.7c-3.93,0-7.1-3.17-7.1-7.1c0-3.9,3.17-7.09,7.1-7.09c3.92,0,7.09,3.2,7.09,7.09
	C391.35,364.54,388.18,367.7,384.25,367.7"/>
<path class="st0" d="M384.25,403.17c-3.93,0-7.1-3.17-7.1-7.1c0-3.92,3.17-7.09,7.1-7.09c3.92,0,7.09,3.17,7.09,7.09
	C391.35,400.01,388.18,403.17,384.25,403.17"/>
<path class="st0" d="M384.25,438.64c-3.93,0-7.1-3.17-7.1-7.09c0-3.9,3.17-7.09,7.1-7.09c3.92,0,7.09,3.2,7.09,7.09
	C391.35,435.47,388.18,438.64,384.25,438.64"/>
<path class="st0" d="M384.25,474.11c-3.93,0-7.1-3.17-7.1-7.09c0-3.93,3.17-7.1,7.1-7.1c3.92,0,7.09,3.17,7.09,7.1
	C391.35,470.95,388.18,474.11,384.25,474.11"/>
<path class="st0" d="M384.25,509.58c-3.93,0-7.1-3.17-7.1-7.09c0-3.9,3.17-7.09,7.1-7.09c3.92,0,7.09,3.2,7.09,7.09
	C391.35,506.41,388.18,509.58,384.25,509.58"/>
<path class="st0" d="M349.97,332.23c-3.93,0-7.1-3.17-7.1-7.09c0-3.93,3.17-7.1,7.1-7.1c3.92,0,7.09,3.17,7.09,7.1
	C357.06,329.07,353.89,332.23,349.97,332.23"/>
<path class="st0" d="M349.97,367.7c-3.93,0-7.1-3.17-7.1-7.1c0-3.9,3.17-7.09,7.1-7.09c3.92,0,7.09,3.2,7.09,7.09
	C357.06,364.54,353.89,367.7,349.97,367.7"/>
<path class="st0" d="M349.97,403.17c-3.93,0-7.1-3.17-7.1-7.1c0-3.92,3.17-7.09,7.1-7.09c3.92,0,7.09,3.17,7.09,7.09
	C357.06,400.01,353.89,403.17,349.97,403.17"/>
<path class="st0" d="M349.97,438.64c-3.93,0-7.1-3.17-7.1-7.09c0-3.9,3.17-7.09,7.1-7.09c3.92,0,7.09,3.2,7.09,7.09
	C357.06,435.47,353.89,438.64,349.97,438.64"/>
<path class="st0" d="M349.97,474.11c-3.93,0-7.1-3.17-7.1-7.09c0-3.93,3.17-7.1,7.1-7.1c3.92,0,7.09,3.17,7.09,7.1
	C357.06,470.95,353.89,474.11,349.97,474.11"/>
<path class="st0" d="M349.97,509.58c-3.93,0-7.1-3.17-7.1-7.09c0-3.9,3.17-7.09,7.1-7.09c3.92,0,7.09,3.2,7.09,7.09
	C357.06,506.41,353.89,509.58,349.97,509.58"/>
<path class="st0" d="M521.4,332.23c-3.93,0-7.09-3.17-7.09-7.09c0-3.93,3.17-7.1,7.09-7.1c3.92,0,7.09,3.17,7.09,7.1
	C528.5,329.07,525.33,332.23,521.4,332.23"/>
<path class="st0" d="M521.4,367.7c-3.93,0-7.09-3.17-7.09-7.1c0-3.9,3.17-7.09,7.09-7.09c3.92,0,7.09,3.2,7.09,7.09
	C528.5,364.54,525.33,367.7,521.4,367.7"/>
<path class="st0" d="M521.4,403.17c-3.93,0-7.09-3.17-7.09-7.1c0-3.92,3.17-7.09,7.09-7.09c3.92,0,7.09,3.17,7.09,7.09
	C528.5,400.01,525.33,403.17,521.4,403.17"/>
<path class="st0" d="M521.4,438.64c-3.93,0-7.09-3.17-7.09-7.09c0-3.9,3.17-7.09,7.09-7.09c3.92,0,7.09,3.2,7.09,7.09
	C528.5,435.47,525.33,438.64,521.4,438.64"/>
<path class="st0" d="M521.4,474.11c-3.93,0-7.09-3.17-7.09-7.09c0-3.93,3.17-7.1,7.09-7.1c3.92,0,7.09,3.17,7.09,7.1
	C528.5,470.95,525.33,474.11,521.4,474.11"/>
<path class="st0" d="M521.4,509.58c-3.93,0-7.09-3.17-7.09-7.09c0-3.9,3.17-7.09,7.09-7.09c3.92,0,7.09,3.2,7.09,7.09
	C528.5,506.41,525.33,509.58,521.4,509.58"/>
</svg>
