<?xml version="1.0" encoding="utf-8"?>
<!-- Generator: Adobe Illustrator 25.4.0, SVG Export Plug-In . SVG Version: 6.00 Build 0)  -->
<svg version="1.1" id="Layer_1" xmlns="http://www.w3.org/2000/svg" xmlns:xlink="http://www.w3.org/1999/xlink" x="0px" y="0px"
	 viewBox="0 0 151.39 181.49" style="enable-background:new 0 0 151.39 181.49;" xml:space="preserve">
<style type="text/css">
	.st0{fill-rule:evenodd;clip-rule:evenodd;fill:#FFFFFF;}
	.st1{fill-rule:evenodd;clip-rule:evenodd;fill:#F58EC8;}
	.st2{fill-rule:evenodd;clip-rule:evenodd;}
	.st3{fill-rule:evenodd;clip-rule:evenodd;fill:#FFDB29;}
	.st4{fill-rule:evenodd;clip-rule:evenodd;fill:#0EF2A2;}
	.st5{fill-rule:evenodd;clip-rule:evenodd;fill:#6F00FF;}
</style>
<path class="st0" d="M75.69,181.49c-28.57,0-51.81-23.24-51.81-51.81v-8.46c0-9.42-5.92-17.98-14.73-21.31l-5-1.89
	c-2.05-0.77-3.55-2.52-4.01-4.66c-0.46-2.15,0.19-4.35,1.74-5.9l6.4-6.4c6.15-6.15,14.36-9.53,23.12-9.53c0.28,0,0.56,0,0.84,0.01
	V32.48c0-10.35,8.42-18.77,18.77-18.77c2.18,0,4.32,0.38,6.33,1.1C59.17,6.35,66.7,0,75.69,0c8.99,0,16.53,6.35,18.35,14.81
	c2.02-0.72,4.15-1.1,6.33-1.1c10.35,0,18.77,8.42,18.77,18.77v39.06c0.28-0.01,0.56-0.01,0.84-0.01c8.77,0,16.98,3.38,23.12,9.53
	l6.4,6.4c1.55,1.55,2.2,3.75,1.74,5.9c-0.46,2.14-1.96,3.89-4.01,4.66l-4.99,1.89c-8.81,3.33-14.73,11.89-14.73,21.31v8.46
	C127.51,158.25,104.26,181.49,75.69,181.49 M17.81,89.73c5.03,2.66,9.34,6.48,12.61,11.22c4.14,5.98,6.32,12.99,6.32,20.26v8.46
	c0,21.48,17.48,38.95,38.96,38.95c10.39,0,20.17-4.06,27.53-11.42c7.37-7.37,11.42-17.14,11.42-27.53v-8.46
	c0-7.27,2.18-14.28,6.32-20.26c3.28-4.74,7.58-8.56,12.61-11.22c-3.67-3.46-8.48-5.36-13.6-5.36c-3.89,0-7.65,1.13-10.88,3.26
	c-1.05,0.7-2.28,1.06-3.54,1.06c-2.17,0-4.17-1.08-5.37-2.89c-0.95-1.43-1.28-3.15-0.93-4.83c0.34-1.68,1.32-3.13,2.76-4.08
	c1.36-0.9,2.79-1.69,4.27-2.38V32.48c0-3.26-2.65-5.91-5.91-5.91c-3.26,0-5.91,2.65-5.91,5.91v50.01c0,3.55-2.88,6.43-6.43,6.43
	c-3.54,0-6.43-2.88-6.43-6.43V18.77c0-3.26-2.65-5.91-5.91-5.91c-3.26,0-5.91,2.65-5.91,5.91v63.86c0,3.54-2.88,6.43-6.43,6.43
	c-3.55,0-6.43-2.88-6.43-6.43V32.48c0-3.26-2.65-5.91-5.91-5.91c-3.26,0-5.91,2.65-5.91,5.91v42.04c1.48,0.69,2.91,1.48,4.27,2.37
	c1.43,0.95,2.41,2.39,2.76,4.08c0.34,1.68,0.01,3.4-0.93,4.83c-1.2,1.81-3.2,2.89-5.37,2.89c-1.26,0-2.48-0.37-3.54-1.06
	c-3.22-2.13-6.99-3.26-10.88-3.26C26.29,84.37,21.48,86.27,17.81,89.73"/>
<path class="st0" d="M147.38,89.58l-6.4-6.4c-6.66-6.66-15.93-9.56-24.84-8.4V32.48c0-8.69-7.07-15.77-15.77-15.77
	c-3.3,0-6.38,1.03-8.91,2.77v-0.71C91.46,10.08,84.39,3,75.69,3C67,3,59.93,10.08,59.93,18.77v0.71c-2.54-1.74-5.61-2.77-8.91-2.77
	c-8.69,0-15.77,7.07-15.77,15.77v42.3c-8.91-1.15-18.18,1.74-24.84,8.4l-6.4,6.4c-0.82,0.82-1.17,2.01-0.93,3.14
	c0.24,1.14,1.05,2.07,2.14,2.48l4.99,1.89c9.97,3.77,16.67,13.46,16.67,24.12v8.46c0,26.91,21.9,48.81,48.81,48.81
	c26.92,0,48.81-21.9,48.81-48.81v-8.46c0-10.66,6.7-20.35,16.67-24.12l4.99-1.89c1.09-0.41,1.89-1.35,2.14-2.48
	S148.2,90.4,147.38,89.58"/>
<path class="st1" d="M108.29,80.74c-1.04-1.58-0.61-3.71,0.97-4.75c1.79-1.18-2.05,0.72-0.11-0.03V61.55
	c-0.21,0.15-0.42,0.29-0.64,0.42c-0.86,0.53-1.8,0.95-2.86,1.29c-1.02,0.32-2.16,0.54-3.38,0.66c-1.16,0.11-2.38,0.13-3.6,0.05
	c-1.3-0.09-2.63-0.3-3.93-0.7v-0.01c-1.18-0.36-2.33-0.86-3.41-1.57v20.25c0,1.89-1.4,3.7-3.29,3.7c-1.89,0-3.43-1.53-3.43-3.43
	v-47.4c-0.08,0.05-0.16,0.1-0.24,0.15c-0.86,0.53-1.8,0.95-2.86,1.29c-1.02,0.32-2.16,0.54-3.38,0.66c-1.16,0.11-2.38,0.13-3.6,0.05
	c-1.3-0.09-2.63-0.3-3.93-0.7v-0.01c-1.32-0.4-2.62-0.99-3.82-1.84v47.95c0,1.89-1.4,3.15-3.29,3.15c-1.89,0-3.43-1.53-3.43-3.43
	V61.86c-0.13,0.08-0.25,0.17-0.38,0.25c-0.86,0.53-1.8,0.95-2.86,1.29c-1.02,0.32-6.11,1.91-7.33,2.03
	c-1.16,0.11-2.38,0.13-3.6,0.05c-1.3-0.09-2.63-0.3-3.93-0.7v-0.01c-1.27-0.38-2.51-0.95-3.67-1.74v14.31
	c1.94,0.75,3.83,1.71,5.61,2.89c3.76,2.48,0.12,4.11-3.64,1.63c-9-5.94-21.2-0.63-28.82,6.99l-2.65,2.65l0.03,0.01
	c6.23,2.36,11.53,6.5,15.31,11.97c3.79,5.48,5.79,11.9,5.79,18.56v8.46c0,23.13,18.82,41.96,41.96,41.96
	c23.14,0,41.96-18.82,41.96-41.96v-8.46c0.18-3.76,0.76-8.6,1.26-12.38c2.08-13.91,10.44-10.79,12.95-19.15
	c1.32-4.39-2.84-10.42-7.68-10.44c-5.66-0.03-7.18,2.39-9.67,2.21C109.66,82.18,108.93,81.47,108.29,80.74"/>
<path class="st2" d="M75.69,110.61c-12.78,0-24.67,5.75-32.62,15.77c-0.99,1.25-0.99,3.01,0,4.26
	c7.95,10.02,19.84,15.77,32.62,15.77s24.67-5.75,32.62-15.77c0.99-1.25,0.99-3.01,0-4.26C100.36,116.36,88.47,110.61,75.69,110.61
	 M86.74,128.52c0,6.09-4.96,11.05-11.05,11.05c-6.09,0-11.05-4.96-11.05-11.05s4.96-11.05,11.05-11.05
	C81.78,117.47,86.74,122.42,86.74,128.52 M50.28,128.52c2.6-2.8,5.61-5.11,8.89-6.89c-0.89,2.12-1.38,4.45-1.38,6.89
	s0.49,4.77,1.38,6.89C55.88,133.63,52.88,131.31,50.28,128.52 M92.22,135.4c0.89-2.12,1.38-4.45,1.38-6.89s-0.49-4.76-1.38-6.89
	c3.28,1.78,6.29,4.09,8.89,6.89C98.51,131.31,95.5,133.63,92.22,135.4"/>
<path class="st2" d="M111.21,109.8c-9.9-8.32-22.51-12.9-35.52-12.9c-13.01,0-25.62,4.58-35.52,12.9c-1.45,1.22-1.64,3.38-0.42,4.83
	c1.22,1.45,3.38,1.64,4.83,0.42c8.66-7.28,19.71-11.29,31.11-11.29c11.4,0,22.45,4.01,31.11,11.29c0.64,0.54,1.42,0.8,2.2,0.8
	c0.98,0,1.95-0.41,2.63-1.22C112.85,113.18,112.66,111.02,111.21,109.8"/>
<path class="st2" d="M89.76,56.02c0.72,1.06,1.44,2.11,2.25,3.13c0.69,0.87,1.4,1.62,2.12,2.15c0.7,0.51,1.49,0.87,2.31,1.12l0-0.01
	c0.9,0.27,1.83,0.42,2.73,0.48c0.95,0.07,1.85,0.06,2.68-0.02c0.83-0.08,1.6-0.24,2.29-0.45h0.01c0.61-0.19,1.15-0.43,1.64-0.73
	c0.49-0.3,0.95-0.67,1.39-1.11c0.48-0.47,0.98-1.06,1.48-1.7c0.53-0.68,1.06-1.4,1.58-2.12l4.41,3.2c-0.57,0.78-1.13,1.56-1.71,2.29
	c-0.61,0.78-1.25,1.52-1.95,2.21c-0.74,0.72-1.51,1.35-2.37,1.87c-0.86,0.53-1.8,0.95-2.86,1.29l0,0c-1.02,0.32-2.16,0.54-3.38,0.66
	c-1.16,0.11-2.38,0.14-3.6,0.05c-1.3-0.09-2.63-0.3-3.93-0.7v-0.01c-1.37-0.41-2.7-1.03-3.94-1.93c-1.2-0.88-2.24-1.96-3.19-3.15
	c-0.83-1.04-1.66-2.26-2.48-3.47L89.76,56.02z"/>
<path class="st2" d="M40.66,56.02c0.72,1.06,1.44,2.11,2.25,3.13c0.69,0.87,1.4,1.62,2.12,2.15c0.7,0.51,1.49,0.87,2.31,1.12l0-0.01
	c0.9,0.27,1.83,0.42,2.73,0.48c0.95,0.07,1.85,0.06,2.68-0.02c0.83-0.08,1.6-0.24,2.29-0.45h0.01c0.61-0.19,1.15-0.43,1.64-0.73
	c0.49-0.3,0.95-0.67,1.39-1.11c0.48-0.47,0.98-1.06,1.48-1.7c0.53-0.68,1.06-1.4,1.58-2.12l4.41,3.2c-0.57,0.78-1.13,1.56-1.71,2.29
	c-0.61,0.78-1.25,1.52-1.95,2.21c-0.74,0.72-1.51,1.35-2.37,1.87c-0.86,0.53-1.8,0.95-2.86,1.29v0c-1.02,0.32-2.16,0.54-3.38,0.66
	c-1.16,0.11-2.38,0.14-3.6,0.05c-1.3-0.09-2.63-0.3-3.93-0.7v-0.01c-1.37-0.41-2.7-1.03-3.93-1.93c-1.2-0.88-2.24-1.96-3.19-3.15
	c-0.83-1.04-1.66-2.26-2.48-3.47L40.66,56.02z"/>
<path class="st2" d="M65.48,28.19c0.72,1.06,1.44,2.12,2.25,3.13c0.69,0.87,1.4,1.62,2.12,2.15c0.7,0.51,1.49,0.87,2.31,1.12l0-0.01
	c0.9,0.27,1.83,0.42,2.73,0.48c0.95,0.07,1.85,0.06,2.68-0.02c0.83-0.08,1.6-0.24,2.29-0.45h0.01c0.61-0.19,1.15-0.43,1.64-0.73
	c0.49-0.3,0.95-0.67,1.39-1.1c0.48-0.47,0.98-1.06,1.48-1.7c0.53-0.68,1.06-1.4,1.59-2.12l4.41,3.2c-0.57,0.78-1.13,1.56-1.71,2.29
	c-0.61,0.78-1.25,1.52-1.95,2.21c-0.74,0.72-1.51,1.35-2.37,1.87c-0.86,0.53-1.8,0.95-2.86,1.29l0,0c-1.02,0.32-2.16,0.54-3.38,0.66
	c-1.16,0.11-2.38,0.13-3.6,0.05c-1.3-0.09-2.63-0.3-3.93-0.7V39.8c-1.37-0.41-2.7-1.03-3.93-1.93c-1.21-0.88-2.24-1.96-3.19-3.15
	c-0.83-1.04-1.66-2.26-2.48-3.47L65.48,28.19z"/>
<path class="st2" d="M75.69,132.54c2.22,0,4.03-1.81,4.03-4.03c0-2.22-1.81-4.03-4.03-4.03s-4.03,1.81-4.03,4.03
	C71.66,130.73,73.47,132.54,75.69,132.54"/>
<path class="st3" d="M59.17,121.63c-3.28,1.78-6.29,4.09-8.89,6.89c2.6,2.8,5.61,5.11,8.89,6.89c-0.89-2.12-1.38-4.45-1.38-6.89
	S58.28,123.75,59.17,121.63"/>
<path class="st3" d="M92.22,121.63c0.89,2.12,1.38,4.45,1.38,6.89s-0.49,4.77-1.38,6.89c3.28-1.78,6.29-4.09,8.89-6.89
	C98.51,125.72,95.5,123.41,92.22,121.63"/>
<path class="st4" d="M86.74,128.52c0-6.09-4.96-11.05-11.05-11.05c-6.09,0-11.05,4.96-11.05,11.05c0,6.09,4.96,11.05,11.05,11.05
	C81.78,139.56,86.74,134.61,86.74,128.52 M75.69,124.49c2.23,0,4.03,1.8,4.03,4.03c0,2.23-1.8,4.03-4.03,4.03
	c-2.22,0-4.03-1.8-4.03-4.03C71.66,126.29,73.47,124.49,75.69,124.49"/>
<path class="st1" d="M59.93,58.44V32.48c0-4.91-4-8.91-8.91-8.91c-4.91,0-8.91,4-8.91,8.91v25.61c0.26,0.36,0.53,0.71,0.81,1.06
	c0.69,0.87,1.4,1.62,2.12,2.15c0.7,0.51,1.49,0.87,2.31,1.12l0-0.01c0.9,0.27,1.83,0.42,2.73,0.48c0.95,0.07,1.85,0.06,2.68-0.02
	c0.83-0.08,1.6-0.24,2.29-0.45h0.01c0.61-0.19,1.15-0.43,1.64-0.73c0.49-0.3,0.95-0.67,1.39-1.1c0.48-0.47,0.98-1.06,1.48-1.7
	C59.7,58.74,59.81,58.59,59.93,58.44"/>
<path class="st0" d="M69.86,33.48c0.7,0.51,1.49,0.87,2.31,1.12l0-0.01c0.9,0.27,1.83,0.42,2.73,0.48c0.95,0.07,1.85,0.06,2.68-0.03
	c0.83-0.08,1.6-0.23,2.29-0.45h0.01c0.61-0.19,1.15-0.43,1.64-0.73c0.49-0.3,0.95-0.67,1.39-1.11c0.48-0.47,0.98-1.06,1.48-1.7
	c0.07-0.09,0.13-0.17,0.2-0.26V18.77c0-4.91-4-8.91-8.91-8.91s-8.91,4-8.91,8.91v11.3c0.31,0.43,0.62,0.85,0.95,1.26
	C68.42,32.19,69.13,32.95,69.86,33.48"/>
<path class="st1" d="M91.46,32.48v25.96c0.18,0.24,0.36,0.48,0.55,0.71c0.69,0.87,1.4,1.62,2.12,2.15c0.7,0.51,1.49,0.87,2.31,1.12
	l0-0.01c0.9,0.27,1.83,0.42,2.73,0.48c0.95,0.07,1.85,0.06,2.68-0.03c0.83-0.08,1.6-0.23,2.29-0.45h0.01
	c0.61-0.19,1.15-0.43,1.64-0.73c0.49-0.3,0.95-0.67,1.39-1.11c0.48-0.47,0.98-1.06,1.48-1.7c0.2-0.26,0.4-0.52,0.6-0.78V32.48
	c0-4.91-4-8.91-8.91-8.91C95.46,23.57,91.46,27.56,91.46,32.48"/>
<path class="st0" d="M90.17,43.74c0.72,1.06,1.44,2.12,2.25,3.13c0.69,0.87,1.4,1.62,2.12,2.15c0.7,0.51,1.49,0.87,2.31,1.12l0-0.01
	c0.9,0.27,1.83,0.42,2.73,0.48c0.95,0.07,1.85,0.06,2.68-0.02c0.83-0.08,1.6-0.23,2.29-0.45h0.01c0.61-0.19,1.15-0.43,1.64-0.74
	c0.49-0.3,0.95-0.67,1.39-1.11c0.48-0.47,0.98-1.06,1.48-1.7c0.53-0.68,1.06-1.4,1.58-2.12l4.41,3.2c-0.57,0.78-1.13,1.55-1.71,2.29
	c-0.61,0.77-1.25,1.52-1.95,2.21c-0.74,0.72-1.51,1.35-2.37,1.87c-0.86,0.53-1.8,0.95-2.86,1.28l0,0c-1.02,0.32-2.16,0.54-3.38,0.66
	c-1.16,0.11-2.38,0.13-3.6,0.05c-1.3-0.09-2.63-0.3-3.93-0.7v-0.01c-1.37-0.41-2.7-1.03-3.93-1.93c-1.2-0.88-2.24-1.97-3.19-3.15
	c-0.83-1.04-1.66-2.26-2.48-3.47L90.17,43.74z"/>
<path class="st5" d="M90.17,30.38c0.72,1.06,1.44,2.12,2.25,3.13c0.69,0.87,1.4,1.62,2.12,2.15c0.7,0.51,1.49,0.87,2.31,1.12l0-0.01
	c0.9,0.27,1.83,0.42,2.73,0.48c0.95,0.07,1.85,0.06,2.68-0.02c0.83-0.08,1.6-0.23,2.29-0.45h0.01c0.61-0.19,1.15-0.43,1.64-0.73
	c0.49-0.3,0.95-0.67,1.39-1.11c0.48-0.47,0.98-1.06,1.48-1.7c0.53-0.68,1.06-1.4,1.58-2.12l4.41,3.2c-0.57,0.78-1.13,1.55-1.71,2.29
	c-0.61,0.77-1.25,1.52-1.95,2.21c-0.74,0.72-1.51,1.34-2.37,1.87c-0.86,0.53-1.8,0.95-2.86,1.29l0,0c-1.02,0.32-2.16,0.54-3.38,0.66
	c-1.16,0.11-2.38,0.13-3.6,0.05c-1.3-0.09-2.63-0.3-3.93-0.69v-0.01c-1.37-0.41-2.7-1.03-3.93-1.93c-1.2-0.88-2.24-1.96-3.19-3.15
	c-0.83-1.04-1.66-2.26-2.48-3.47L90.17,30.38z"/>
<path class="st0" d="M40.8,43.74c0.72,1.06,1.44,2.12,2.25,3.13c0.69,0.87,1.4,1.62,2.12,2.15c0.7,0.51,1.49,0.87,2.31,1.12l0-0.01
	c0.9,0.27,1.83,0.42,2.73,0.48c0.95,0.07,1.85,0.06,2.68-0.02c0.83-0.08,1.6-0.23,2.29-0.45h0.01c0.61-0.19,1.15-0.43,1.64-0.74
	c0.49-0.3,0.95-0.67,1.39-1.11c0.48-0.47,0.98-1.06,1.48-1.7c0.53-0.68,1.06-1.4,1.58-2.12l4.41,3.2c-0.57,0.78-1.13,1.55-1.71,2.29
	c-0.61,0.77-1.25,1.52-1.95,2.21c-0.74,0.72-1.51,1.35-2.37,1.87c-0.86,0.53-1.8,0.95-2.86,1.28l0,0c-1.02,0.32-2.16,0.54-3.38,0.66
	c-1.16,0.11-2.38,0.13-3.6,0.05c-1.3-0.09-2.63-0.3-3.93-0.7v-0.01c-1.37-0.41-2.7-1.03-3.94-1.93c-1.2-0.88-2.24-1.97-3.19-3.15
	c-0.83-1.04-1.66-2.26-2.49-3.47L40.8,43.74z"/>
<path class="st5" d="M40.8,30.38c0.72,1.06,1.44,2.12,2.25,3.13c0.69,0.87,1.4,1.62,2.12,2.15c0.7,0.51,1.49,0.87,2.31,1.12l0-0.01
	c0.9,0.27,1.83,0.42,2.73,0.48c0.95,0.07,1.85,0.06,2.68-0.02c0.83-0.08,1.6-0.23,2.29-0.45h0.01c0.61-0.19,1.15-0.43,1.64-0.73
	c0.49-0.3,0.95-0.67,1.39-1.11c0.48-0.47,0.98-1.06,1.48-1.7c0.53-0.68,1.06-1.4,1.58-2.12l4.41,3.2c-0.57,0.78-1.13,1.55-1.71,2.29
	c-0.61,0.77-1.25,1.52-1.95,2.21c-0.74,0.72-1.51,1.34-2.37,1.87c-0.86,0.53-1.8,0.95-2.86,1.29l0,0c-1.02,0.32-2.16,0.54-3.38,0.66
	c-1.16,0.11-2.38,0.13-3.6,0.05c-1.3-0.09-2.63-0.3-3.93-0.69v-0.01c-1.37-0.41-2.7-1.03-3.94-1.93c-1.2-0.88-2.24-1.96-3.19-3.15
	c-0.83-1.04-1.66-2.26-2.49-3.47L40.8,30.38z"/>
<path class="st1" d="M65.62,15.1c0.72,1.06,1.44,2.12,2.25,3.13c0.69,0.87,1.4,1.62,2.12,2.15c0.7,0.51,1.49,0.87,2.31,1.12l0-0.01
	c0.9,0.27,1.83,0.42,2.73,0.48c0.95,0.07,1.85,0.06,2.68-0.03c0.83-0.08,1.6-0.23,2.29-0.45h0.01c0.61-0.19,1.15-0.43,1.64-0.74
	c0.49-0.3,0.95-0.67,1.39-1.11c0.48-0.47,0.98-1.06,1.48-1.7c0.53-0.68,1.06-1.4,1.58-2.12l4.41,3.2c-0.57,0.78-1.13,1.56-1.71,2.29
	c-0.61,0.77-1.25,1.52-1.95,2.21c-0.74,0.72-1.51,1.35-2.37,1.87c-0.86,0.53-1.8,0.95-2.86,1.28l0,0c-1.02,0.32-2.16,0.54-3.38,0.66
	c-1.16,0.11-2.38,0.14-3.6,0.05c-1.3-0.09-2.63-0.3-3.93-0.7V26.7c-1.37-0.41-2.7-1.03-3.93-1.93c-1.2-0.88-2.24-1.96-3.19-3.15
	c-0.83-1.04-1.66-2.26-2.48-3.47L65.62,15.1z"/>
<path class="st3" d="M65.35,66.93c0.72,1.06,1.44,2.12,2.25,3.13c0.69,0.87,1.4,1.62,2.12,2.15c0.7,0.51,1.49,0.87,2.31,1.12l0-0.01
	c0.9,0.27,1.83,0.42,2.73,0.48c0.95,0.07,1.85,0.06,2.68-0.03c0.83-0.08,1.6-0.23,2.29-0.45h0.01c0.61-0.19,1.15-0.43,1.64-0.73
	c0.49-0.3,0.95-0.67,1.39-1.11c0.48-0.47,0.98-1.06,1.48-1.7c0.53-0.68,1.06-1.4,1.58-2.12l4.41,3.2c-0.57,0.78-1.13,1.55-1.71,2.29
	c-0.61,0.77-1.25,1.52-1.95,2.21c-0.74,0.72-1.51,1.34-2.37,1.87c-0.86,0.53-1.8,0.95-2.86,1.28v0c-1.02,0.32-2.16,0.54-3.38,0.66
	c-1.16,0.11-2.38,0.13-3.6,0.05c-1.3-0.09-2.63-0.3-3.93-0.69v-0.01c-1.37-0.41-2.7-1.03-3.93-1.93c-1.2-0.88-2.24-1.96-3.19-3.15
	c-0.83-1.04-1.66-2.26-2.48-3.47L65.35,66.93z"/>
<path class="st4" d="M65.35,45.65c0.72,1.06,1.44,2.12,2.25,3.13c0.69,0.87,1.4,1.62,2.12,2.15c0.7,0.51,1.49,0.87,2.31,1.12l0-0.01
	c0.9,0.27,1.83,0.42,2.73,0.48c0.95,0.07,1.85,0.06,2.68-0.02c0.83-0.08,1.6-0.23,2.29-0.45h0.01c0.61-0.19,1.15-0.43,1.64-0.73
	c0.49-0.3,0.95-0.67,1.39-1.11c0.48-0.47,0.98-1.06,1.48-1.7c0.53-0.68,1.06-1.4,1.58-2.12l4.41,3.2c-0.57,0.78-1.13,1.56-1.71,2.29
	c-0.61,0.77-1.25,1.52-1.95,2.21c-0.74,0.72-1.51,1.35-2.37,1.87c-0.86,0.53-1.8,0.95-2.86,1.29v0c-1.02,0.32-2.16,0.54-3.38,0.66
	c-1.16,0.11-2.38,0.13-3.6,0.05c-1.3-0.09-2.63-0.3-3.93-0.69v-0.01c-1.37-0.41-2.7-1.03-3.93-1.93c-1.2-0.88-2.24-1.97-3.19-3.15
	c-0.83-1.04-1.66-2.26-2.48-3.47L65.35,45.65z"/>
<path class="st2" d="M147.38,89.58l-6.4-6.4c-6.66-6.66-15.93-9.56-24.84-8.4V32.48c0-8.69-7.07-15.77-15.77-15.77
	c-3.31,0-6.37,1.02-8.91,2.77v-0.71C91.46,10.07,84.39,3,75.69,3C67,3,59.93,10.07,59.93,18.77v0.71c-2.54-1.74-5.61-2.77-8.91-2.77
	c-8.69,0-15.77,7.07-15.77,15.77v42.3c-8.91-1.15-18.18,1.74-24.84,8.4l-6.4,6.4c-0.82,0.82-1.17,2.01-0.93,3.14
	c0.25,1.14,1.05,2.07,2.14,2.48l5,1.89c9.97,3.77,16.67,13.46,16.67,24.12v8.46c0,26.91,21.9,48.81,48.81,48.81
	c26.92,0,48.81-21.9,48.81-48.81v-8.46c0-10.66,6.7-20.35,16.67-24.12l4.99-1.89c1.09-0.41,1.89-1.35,2.14-2.48
	C148.55,91.58,148.2,90.4,147.38,89.58 M138.75,90.68c-6.23,2.35-11.52,6.5-15.31,11.97c-3.79,5.48-5.79,11.9-5.79,18.56v8.46
	c0,23.13-18.82,41.96-41.96,41.96c-23.13,0-41.96-18.82-41.96-41.96v-8.46c0-6.66-2-13.08-5.79-18.56
	c-3.79-5.48-9.08-9.62-15.31-11.97l-0.03-0.01l2.65-2.65c7.62-7.62,19.69-8.85,28.68-2.9c1.58,1.04,3.71,0.61,4.75-0.97
	c1.04-1.58,0.61-3.71-0.97-4.75c-1.79-1.18-3.67-2.14-5.61-2.89V32.48c0-4.91,4-8.91,8.91-8.91c4.91,0,8.91,4,8.91,8.91v50.16
	c0,1.89,1.53,3.43,3.43,3.43c1.89,0,3.43-1.53,3.43-3.43V18.77c0-4.91,4-8.91,8.91-8.91c4.91,0,8.91,4,8.91,8.91v63.72
	c0,1.89,1.53,3.43,3.43,3.43c1.89,0,3.43-1.54,3.43-3.43V32.48c0-4.91,4-8.91,8.91-8.91c4.91,0,8.91,4,8.91,8.91v44.03
	c-1.94,0.75-3.82,1.71-5.61,2.89c-1.58,1.04-2.02,3.17-0.97,4.75c1.04,1.58,3.17,2.01,4.75,0.97c9-5.94,21.06-4.72,28.69,2.9
	l2.65,2.65L138.75,90.68z"/>
</svg>
