<?xml version="1.0" encoding="utf-8"?>
<!-- Generator: Adobe Illustrator 25.4.0, SVG Export Plug-In . SVG Version: 6.00 Build 0)  -->
<svg version="1.1" id="Layer_1" xmlns="http://www.w3.org/2000/svg" xmlns:xlink="http://www.w3.org/1999/xlink" x="0px" y="0px"
	 viewBox="0 0 136.92 204.88" style="enable-background:new 0 0 136.92 204.88;" xml:space="preserve">
<style type="text/css">
	.st0{fill-rule:evenodd;clip-rule:evenodd;fill:#FFFFFF;}
	.st1{fill-rule:evenodd;clip-rule:evenodd;fill:#FC2658;}
	.st2{fill-rule:evenodd;clip-rule:evenodd;fill:#FFDB29;}
	.st3{fill-rule:evenodd;clip-rule:evenodd;fill:#0EF2A2;}
	.st4{fill-rule:evenodd;clip-rule:evenodd;}
</style>
<path class="st0" d="M55.59,204.88c-5.06,0-9.82-0.78-14.13-2.31c-0.2-0.07-0.4-0.14-0.59-0.22c-0.2,0.09-0.4,0.18-0.6,0.26
	c-1.07,0.43-2.25,0.72-3.61,0.89c-0.87,0.11-1.93,0.17-3.43,0.2c-0.63,0.01-1.34,0.02-2.15,0.02c-0.54,0-1.1,0-1.67-0.01
	c-1.37-0.01-2.75-0.04-4.09-0.06c-1.47-0.02-2.98-0.05-4.27-0.14c-1.79-0.13-3.34-0.38-4.74-0.76c-1.44-0.39-2.83-0.96-4.12-1.69
	c-1.3-0.74-2.51-1.63-3.58-2.66c-1.24-1.19-2.08-2.34-2.74-3.74l-0.32-0.67v-0.07c-0.48-1.21-0.8-2.54-1-4.13
	c-0.15-1.24-0.26-2.91-0.31-5.1c-0.05-2.15-0.05-3.43-0.05-4.38c0-0.99,0-1.73-0.01-1.98c-0.1-0.42-0.37-1.27-0.72-2.42l-0.23-0.73
	c-0.32-1.04-0.69-2.26-1.07-3.63c-0.46-1.65-0.82-3.14-1.11-4.54c-0.34-1.65-0.58-3.25-0.75-4.9c-0.17-1.61-0.26-3.32-0.29-5.22
	c-0.03-2.17,0.03-4.3,0.17-6.17c0.15-1.99,0.39-3.82,0.73-5.46c0.39-1.9,0.94-3.68,1.64-5.28c0.66-1.53,1.49-2.95,2.45-4.23
	c0.22-0.29,0.44-0.57,0.67-0.85c-0.61-0.94-1.16-1.89-1.65-2.85c-1.04-2.04-1.75-4.06-2.17-6.16c-0.45-2.21-0.57-4.49-0.39-6.99
	c0.21-2.89,0.84-5.89,1.81-8.7c0.98-2.83,2.3-5.47,3.92-7.84c2.25-3.28,5.16-6.21,8.18-8.89c-0.45-0.5-0.89-1.01-1.3-1.54
	c-1.48-1.89-2.66-3.92-3.61-6.2c-0.84-2.01-1.52-4.31-2.03-6.81c-0.49-2.4-0.81-4.99-0.93-7.49c-0.1-2.23-0.05-4.53,0.16-6.82
	c0.19-2.07,0.5-4.11,0.95-6.24c0.34-1.61,0.69-3,1.02-4.35l0.02-0.07c0.51-2.01,0.98-3.9,1.26-5.7c0.23-1.44,0.38-3.07,0.47-4.99
	c0.07-1.56,0.1-3.5,0.1-6.49c0-1.37,0-3.05,0-3.05c0-0.04,0-0.16,0-0.16c-0.02-4.49-0.03-9.1,0.18-12.68
	c0.15-2.45,0.4-4.53,0.79-6.36c0.39-1.87,0.92-3.53,1.63-5.08c0.69-1.52,1.53-2.9,2.49-4.11c1.04-1.31,2.24-2.43,3.57-3.32
	c1.84-1.24,3.66-1.87,5.72-2.01C26.11,0.01,26.37,0,26.62,0c1.83,0,3.74,0.43,5.82,1.32c1.93,0.82,4.2,2.13,6.55,3.78
	c2.22,1.56,4.48,3.38,6.71,5.41c3.8,3.46,7.57,7.6,11.69,12.24c0.62-0.03,1.29-0.06,2-0.07c0.6-0.02,1.22-0.02,1.83-0.02
	c0.57,0,1.12,0.01,1.67,0.02c0.5,0.01,0.98,0.03,1.43,0.05c4.1-4.62,7.86-8.75,11.66-12.21c2.23-2.03,4.49-3.85,6.71-5.41
	c2.35-1.65,4.62-2.96,6.55-3.78C91.3,0.43,93.21,0,95.04,0c0.25,0,0.51,0.01,0.75,0.02c2.07,0.14,3.88,0.77,5.72,2.01
	c1.32,0.89,2.52,2.01,3.56,3.32c0.96,1.21,1.8,2.6,2.49,4.11c0.7,1.54,1.23,3.2,1.63,5.08c0.38,1.83,0.64,3.91,0.79,6.36
	c0.16,2.62,0.19,5.8,0.19,9.07c0.86-0.16,1.76-0.28,2.68-0.36c1.08-0.1,2.17-0.15,3.24-0.15c0.86,0,1.69,0.03,2.47,0.1
	c1.89,0.16,3.62,0.51,5.3,1.07c1.66,0.55,3.16,1.28,4.59,2.23c1.47,0.97,2.78,2.13,3.9,3.43c1.16,1.35,2.1,2.83,2.8,4.41
	c0.64,1.45,1.12,3.07,1.42,4.8c0.28,1.63,0.38,3.33,0.31,5.03c-0.07,1.55-0.28,3.05-0.65,4.47c-0.4,1.57-0.97,2.99-1.68,4.22
	c-0.67,1.18-1.52,2.27-2.53,3.26c-0.52,0.51-1.1,1-1.71,1.45c0,0.69,0,1.55,0.01,2.65l0,0.29c0.03,3.89,0.08,10.4-0.3,15.92
	c-0.22,3.19-0.56,5.95-1.05,8.42c-0.56,2.85-1.32,5.36-2.33,7.68c-0.96,2.21-2.22,4.37-3.73,6.42c-1.18,1.58-2.53,3.14-4.14,4.77
	c-1.3,1.32-2.62,2.52-3.92,3.58c-1.38,1.12-2.71,2.07-3.97,2.82c-0.7,0.42-1.36,0.76-1.96,1.05c0.07,1.6,0.19,3.89,0.33,6.29
	c0.14,2.36,0.29,4.58,0.43,6.25c0,0.02,0,0.03,0.01,0.05c1.1,0.56,2.35,1.3,3.58,2.37c1.36,1.18,2.48,2.58,3.42,4.27
	c0.85,1.54,1.53,3.28,2.09,5.32c0.52,1.93,0.95,4.21,1.23,6.6c0.27,2.34,0.42,4.74,0.42,7.13c0,2.05-0.11,4.36-0.34,6.87
	c-0.22,2.43-0.55,4.93-0.92,7.02c-0.23,1.3-0.46,2.32-0.66,3.23c-0.29,1.3-0.5,2.24-0.6,3.64c-0.15,2.02-0.11,4.92-0.07,7.25l0,0.11
	c0.01,0.69,0.02,1.34,0.03,1.99c0.01,1.84-0.02,3-0.12,4c-0.15,1.49-0.46,2.76-0.98,4c-0.62,1.51-1.49,2.8-2.64,3.97
	c-1.17,1.18-2.59,2.17-4.35,3.02c-1.54,0.75-3.47,1.44-5.56,1.99c-1.98,0.53-4.11,0.93-6.16,1.18c-1.74,0.21-3.7,0.33-5.8,0.35
	c-0.27,0-0.53,0-0.79,0c-1.83,0-3.64-0.07-5.23-0.21c-1.57-0.14-2.93-0.34-4.14-0.61c-0.09-0.02-0.17-0.04-0.26-0.06l-0.16,0.36
	l-3.05-1.48c-0.84-0.41-1.45-0.87-1.9-1.22C68.94,203.68,62.01,204.88,55.59,204.88 M30.44,152c0.06,0.74,0.15,1.54,0.3,2.42
	c0.31,1.9,0.85,4.17,1.61,6.74c0.77,2.62,1.74,5.47,2.89,8.48c1.16,3.04,2.43,6.04,3.67,8.68c1.22,2.6,2.39,4.85,3.41,6.51
	c0.81,1.33,1.51,2.26,2.14,2.85l0.21,0.2l0.18,0.24c1.56,2.1,5.43,3.35,10.33,3.35c7.66,0,14.54-2.85,16.16-5.51
	c0.41-0.67,0.77-1.48,1.05-2.34c0.3-0.92,0.5-1.89,0.59-2.87c0.11-1.14,0.07-2.27-0.13-3.69c-0.26-1.8-0.81-4.11-1.68-7.05
	c-1-3.38-2.45-7.7-3.98-11.84c-1.5-4.05-2.96-7.63-4.22-10.34c-1.23-2.64-2.35-4.65-3.44-6.15c-0.72-1-1.41-1.73-2.1-2.25
	l-0.18,0.65l-0.31-0.08c-0.42,0.82-0.9,1.62-1.47,2.39c-1.09,1.49-2.41,2.86-4.05,4.18c-1.78,1.43-3.71,2.64-5.74,3.59
	c-2.08,0.98-4.21,1.65-6.32,2.01c-1.26,0.21-2.58,0.32-3.92,0.32c-1.13,0-2.29-0.08-3.45-0.23C31.46,152.18,30.95,152.1,30.44,152
	 M84.59,190.52c0.09,0.03,0.23,0.07,0.45,0.12c0.53,0.12,1.33,0.23,2.37,0.32c0.97,0.08,2.49,0.19,4.24,0.19c0.17,0,0.33,0,0.5,0
	c1.49-0.02,2.95-0.11,4.35-0.28c1.48-0.18,2.98-0.46,4.34-0.82c1.26-0.33,2.39-0.73,3.17-1.11c0.24-0.12,0.41-0.21,0.52-0.28
	c0-0.03,0.01-0.06,0.01-0.09c0.05-0.53,0.07-1.29,0.06-2.54c0-0.55-0.02-1.24-0.03-1.97l0-0.08c-0.04-2.81-0.1-5.99,0.09-8.41
	c0.17-2.24,0.52-3.83,0.9-5.52c0.18-0.82,0.37-1.66,0.56-2.7c0.31-1.74,0.58-3.82,0.77-5.85c0.17-1.93,0.26-3.85,0.26-5.7
	c0-1.92-0.11-3.8-0.32-5.6c-0.2-1.73-0.5-3.34-0.86-4.67c-0.27-1.01-0.56-1.79-0.86-2.33c-0.17-0.3-0.33-0.52-0.5-0.67
	c-0.42-0.36-1.28-0.77-1.91-1.06c-0.41-0.19-0.83-0.39-1.24-0.61c-1.85-0.99-3.26-2.18-4.17-4.8c-0.46-1.32-0.65-2.76-0.83-4.94
	c-0.12-1.46-0.27-3.78-0.44-6.53c-0.03-0.58-0.07-1.17-0.1-1.75c-0.28,1.39-0.61,2.69-0.98,3.91c-0.83,2.75-1.88,5.12-3.21,7.24
	c-1.33,2.13-2.99,4.02-4.92,5.62c-1.73,1.43-3.63,2.64-5.81,3.68l-2.95,1.41l-0.07-0.14c-0.53,0.2-1.07,0.39-1.64,0.58
	c1.06,2.47,2.19,5.32,3.32,8.39c1.6,4.34,3.15,8.96,4.26,12.68c1.07,3.61,1.73,6.44,2.09,8.91c0.36,2.46,0.42,4.65,0.2,6.89
	c-0.19,1.92-0.58,3.81-1.17,5.63c-0.28,0.86-0.59,1.69-0.94,2.49c0.14,0.12,0.3,0.27,0.38,0.31L84.59,190.52z M17.87,188.87
	c0.26,0.24,0.56,0.46,0.88,0.64c0.34,0.2,0.7,0.34,1.05,0.44c0.49,0.13,1.23,0.24,2.19,0.31c1.24,0.09,2.41,0.11,3.55,0.13
	c1.35,0.02,2.74,0.05,3.98,0.06c0.23,0,0.45,0,0.67,0.01c-1.04-1.82-2.17-4.04-3.33-6.5c-1.44-3.08-2.85-6.39-4.06-9.56
	c-1.24-3.25-2.33-6.44-3.22-9.48c-0.9-3.08-1.57-5.89-1.97-8.33c-0.7-4.23-0.62-7.4-0.41-10.15c-0.76-0.51-1.52-1.05-2.25-1.62
	c-0.08,0.16-0.16,0.32-0.23,0.49c-0.33,0.76-0.6,1.65-0.8,2.63c-0.21,1.01-0.37,2.29-0.48,3.8c-0.12,1.62-0.17,3.35-0.15,5
	c0.02,1.43,0.1,2.75,0.23,4.05c0.13,1.23,0.31,2.4,0.55,3.59c0.22,1.07,0.51,2.26,0.9,3.65c0.32,1.16,0.66,2.25,0.97,3.27l0.21,0.7
	c0.5,1.63,0.81,2.61,1.01,3.52c0.34,1.51,0.34,2.27,0.34,4.83c0,1.29,0,3.05,0.02,4.06c0.04,1.58,0.12,2.85,0.24,3.8
	C17.8,188.5,17.84,188.73,17.87,188.87 M21.97,105.48c-1.43,1.4-2.79,2.9-3.81,4.4c-0.98,1.43-1.77,3-2.34,4.67
	c-0.59,1.7-0.96,3.54-1.1,5.33c-0.1,1.33-0.05,2.44,0.15,3.41c0.18,0.88,0.5,1.76,1.01,2.77c0.55,1.08,1.27,2.19,2.15,3.3
	c0.93,1.18,1.97,2.29,3.1,3.32c1.27,1.15,2.65,2.19,4.11,3.12c1.4,0.88,2.82,1.61,4.21,2.16c1.45,0.57,2.87,0.95,4.21,1.12
	c0.58,0.08,1.15,0.11,1.7,0.11c0.62,0,1.22-0.05,1.79-0.14c0.94-0.16,1.91-0.47,2.89-0.93c1.03-0.49,2.09-1.15,3.05-1.92
	c0.73-0.59,1.29-1.14,1.65-1.63c0.25-0.34,0.42-0.68,0.54-1.05l0.04-0.14c0.13-0.46,0.17-0.92,0.11-1.35
	c-0.05-0.35-0.17-0.7-0.38-1.02c-0.23-0.37-0.73-1-1.81-1.89c-0.89-0.74-2.02-1.54-3.55-2.52c-1.07-0.68-2.08-1.3-3.06-1.89
	c-1.91-1.16-3.71-2.25-5.22-3.35c-1.71-1.25-2.96-2.44-4.07-3.85c-1.21-1.54-2.22-3.32-3.15-5.58
	C23.41,110.07,22.67,107.84,21.97,105.48 M63.49,127.51c0.62,0.36,1.21,0.76,1.8,1.19c1.66,1.23,3.16,2.72,4.56,4.56
	c0.4-0.12,0.82-0.24,1.24-0.37c1.44-0.45,2.65-0.89,3.66-1.34l0.52-0.25c1.23-0.59,2.23-1.21,3.05-1.89
	c0.87-0.72,1.57-1.52,2.16-2.45c0.65-1.04,1.23-2.39,1.72-4.02c0.54-1.81,0.96-3.87,1.28-6.3c0.41-3.12,0.63-6.76,0.79-10.34
	c-0.11,0.03-0.21,0.07-0.32,0.1c-2.15,0.65-4.37,1.17-6.6,1.55c-1.93,0.33-3.89,0.55-5.68,0.71c1.14,1.9,1.8,4.12,1.8,6.47
	c0,5.57-3.73,10.56-9.08,12.12L63.49,127.51z M36.09,105.88c0.13,0.34,0.25,0.65,0.37,0.94c0.45,1.09,0.88,1.89,1.33,2.45
	c0.35,0.44,0.79,0.84,1.48,1.35c1.18,0.86,2.66,1.76,4.22,2.71c1.05,0.64,2.23,1.35,3.34,2.06c0.51,0.32,0.98,0.64,1.44,0.94
	c-0.04-0.4-0.06-0.79-0.06-1.2c0-2.35,0.65-4.57,1.8-6.47c-1.8-0.16-3.75-0.38-5.68-0.71c-2.23-0.38-4.45-0.9-6.6-1.55
	C37.18,106.24,36.64,106.07,36.09,105.88 M97.76,100.23c-0.09,2.93-0.18,5.89-0.33,8.76c0.74-0.89,1.61-1.48,2.44-1.94
	c0.68-0.38,1.28-0.63,1.91-0.89c0.72-0.3,1.53-0.64,2.35-1.13c0.72-0.43,1.51-0.99,2.35-1.67c0.92-0.75,1.89-1.64,2.88-2.64
	c1.16-1.17,2.11-2.26,2.9-3.32c0.94-1.27,1.67-2.51,2.22-3.78c0.6-1.37,1.07-3,1.46-4.96c0.38-1.95,0.66-4.16,0.83-6.76
	c0.36-5.22,0.31-11.3,0.28-14.94l0-0.29c-0.02-2.11-0.02-3.46,0.02-4.48c0.07-1.75,0.31-2.99,0.78-4.15
	c0.4-0.97,0.87-1.72,1.38-2.32l-0.23-0.36l3.3-2.02c0.15-0.1,0.29-0.22,0.42-0.34c0.12-0.12,0.22-0.25,0.3-0.39
	c0.14-0.25,0.26-0.56,0.35-0.91c0.13-0.5,0.21-1.08,0.24-1.71c0.03-0.75-0.02-1.54-0.14-2.28c-0.1-0.61-0.27-1.18-0.47-1.64
	c-0.18-0.4-0.41-0.78-0.7-1.1c-0.32-0.38-0.72-0.72-1.18-1.03c-0.47-0.31-0.95-0.54-1.47-0.72c-0.6-0.2-1.35-0.34-2.2-0.41
	c-0.49-0.04-1.01-0.06-1.54-0.06c-0.62,0-1.24,0.03-1.84,0.08c-1.07,0.1-2.07,0.28-2.82,0.51c-0.33,0.1-0.64,0.23-0.96,0.39
	c0.09,1.72,0.24,3.21,0.45,4.53c0.29,1.79,0.76,3.68,1.26,5.68l0.02,0.06c0.34,1.36,0.69,2.76,1.03,4.37
	c0.45,2.12,0.76,4.17,0.95,6.24c0.21,2.29,0.27,4.59,0.16,6.82c-0.12,2.5-0.44,5.09-0.93,7.49c-0.51,2.51-1.19,4.8-2.03,6.81
	c-0.95,2.28-2.13,4.31-3.61,6.2c-1.39,1.77-3.01,3.38-4.96,4.93C101.2,98.02,99.56,99.15,97.76,100.23 M27.09,13.49
	c-0.04,0.04-0.07,0.08-0.11,0.13c-0.28,0.36-0.55,0.8-0.78,1.32c-0.31,0.68-0.54,1.42-0.73,2.31c-0.25,1.19-0.42,2.64-0.53,4.43
	c-0.2,3.36-0.18,7.88-0.17,11.87c0,1.38,0.01,1.54,0.01,1.62c0.01,0.17,0.01,0.26,0.01,1.6c0,2.06-0.02,4.51-0.14,7.09
	c-0.11,2.45-0.31,4.51-0.63,6.48c-0.4,2.53-0.95,4.72-1.49,6.84l-0.02,0.09c-0.33,1.3-0.66,2.64-0.91,3.81
	c-0.35,1.67-0.59,3.22-0.73,4.74c-0.15,1.67-0.19,3.36-0.12,5.01c0.08,1.82,0.32,3.7,0.67,5.43c0.34,1.64,0.77,3.11,1.29,4.37
	c0.49,1.18,1.08,2.2,1.79,3.11c0.71,0.9,1.61,1.79,2.77,2.7c1.16,0.92,2.54,1.85,4.09,2.75c1.64,0.95,3.39,1.83,5.19,2.62
	c1.66,0.72,3.3,1.32,5.01,1.84c1.68,0.51,3.31,0.89,4.98,1.18c3.51,0.6,7.25,0.78,9.48,0.89l0.13,0.01
	c1.94,0.09,3.33,0.15,4.66,0.15s2.72-0.05,4.67-0.15l0.11-0.01c2.24-0.11,5.98-0.29,9.49-0.89c1.67-0.29,3.3-0.67,4.98-1.18
	c1.71-0.52,3.35-1.12,5.01-1.84c1.8-0.78,3.55-1.66,5.19-2.62c1.55-0.9,2.93-1.83,4.09-2.75c1.15-0.91,2.06-1.8,2.77-2.7
	c0.71-0.91,1.3-1.93,1.79-3.11c0.52-1.26,0.96-2.73,1.29-4.37c0.35-1.73,0.58-3.61,0.67-5.43c0.08-1.66,0.04-3.35-0.12-5.01
	c-0.14-1.51-0.38-3.06-0.73-4.74c-0.24-1.17-0.58-2.51-0.91-3.81l-0.02-0.09c-0.53-2.12-1.09-4.32-1.49-6.84
	c-0.31-1.95-0.51-4.07-0.63-6.48c-0.12-2.57-0.14-5.03-0.14-7.09c0-1.34,0-1.43,0.01-1.6c0-0.09,0.01-0.25,0.01-1.62
	c0.02-3.99,0.03-8.51-0.17-11.87c-0.11-1.8-0.28-3.25-0.53-4.43c-0.19-0.9-0.42-1.63-0.73-2.31c-0.24-0.52-0.5-0.97-0.78-1.32
	c-0.04-0.05-0.08-0.09-0.11-0.13c-0.04,0.02-0.09,0.04-0.13,0.06c-1.06,0.45-2.52,1.32-4.11,2.43c-1.74,1.22-3.6,2.73-5.4,4.36
	c-3.48,3.17-7.09,7.15-10.22,10.68c-0.06,0.11-0.12,0.22-0.19,0.35c-0.52,0.95-1,1.79-1.51,2.5c-0.38,6.27-5.6,11.25-11.95,11.25
	c-6.47,0-11.75-5.15-11.97-11.57c-0.1-0.13-0.2-0.26-0.3-0.39c-0.28-0.35-0.56-0.72-0.92-1.13c-3.49-3.94-7.1-8.02-10.98-11.56
	l-0.14-0.13c-1.79-1.63-3.66-3.14-5.39-4.36c-1.59-1.11-3.05-1.98-4.11-2.43C27.18,13.53,27.14,13.51,27.09,13.49"/>
<path class="st0" d="M133.32,46.06c-0.24-1.39-0.62-2.76-1.18-4.02c-0.59-1.32-1.36-2.52-2.29-3.59c-0.95-1.1-2.04-2.04-3.23-2.83
	c-1.15-0.76-2.4-1.38-3.81-1.85c-1.39-0.46-2.88-0.77-4.53-0.91c-1.57-0.13-3.35-0.11-5.12,0.05c-1.72,0.16-3.41,0.46-4.84,0.9
	c-0.52,0.16-1.01,0.34-1.47,0.53c0-1.27-0.01-0.28,0-0.77c0.02-4.33,0.03-8.99-0.18-12.47c-0.14-2.35-0.38-4.26-0.72-5.88
	c-0.36-1.73-0.83-3.14-1.4-4.39c-0.59-1.29-1.29-2.44-2.07-3.42c-0.84-1.05-1.79-1.94-2.82-2.63c-1.18-0.79-2.46-1.35-4.09-1.45
	c-1.45-0.1-3.08,0.19-5.05,1.03c-1.71,0.73-3.75,1.91-5.94,3.45c-2.02,1.42-4.19,3.16-6.38,5.15c-4.12,3.75-8.3,8.43-12.48,13.16
	l-0.01,0c-0.8-0.06-1.77-0.11-2.91-0.13c-1.07-0.03-2.2-0.03-3.33,0c-1.2,0.03-2.3,0.08-3.22,0.15l-0.26,0.02
	c-4.19-4.74-8.38-9.44-12.52-13.2c-2.18-1.99-4.36-3.73-6.38-5.15c-2.19-1.54-4.24-2.72-5.94-3.45c-1.98-0.84-3.61-1.13-5.05-1.03
	c-1.64,0.11-2.91,0.66-4.09,1.45c-1.03,0.69-1.98,1.57-2.82,2.63c-0.78,0.98-1.48,2.13-2.07,3.42c-0.57,1.25-1.04,2.65-1.4,4.39
	c-0.34,1.62-0.58,3.53-0.72,5.88c-0.21,3.48-0.19,8.14-0.18,12.47c0,0.66-0.01-1.42-0.01,3.21c0,2.59-0.02,4.82-0.11,6.65
	c-0.09,1.94-0.25,3.69-0.51,5.36c-0.31,1.95-0.82,3.96-1.32,5.98c-0.34,1.36-0.68,2.72-1.01,4.29c-0.39,1.86-0.7,3.8-0.89,5.87
	c-0.19,2.05-0.26,4.17-0.15,6.36c0.11,2.29,0.39,4.68,0.86,6.98c0.45,2.2,1.06,4.32,1.84,6.21c0.84,2.03,1.88,3.8,3.16,5.43
	c1.06,1.35,2.26,2.57,3.61,3.72c-3.97,3.34-7.72,6.77-10.36,10.63c-1.56,2.28-2.71,4.69-3.52,7.05c-0.97,2.8-1.46,5.51-1.63,7.86
	c-0.16,2.23-0.05,4.21,0.33,6.09c0.38,1.9,1.02,3.61,1.88,5.31c0.81,1.58,1.81,3.16,2.98,4.69c-0.78,0.7-1.56,1.5-2.31,2.51
	c-0.76,1.01-1.46,2.19-2.06,3.56c-0.58,1.33-1.07,2.86-1.43,4.62c-0.33,1.59-0.54,3.32-0.67,5.05c-0.14,1.91-0.18,3.95-0.16,5.87
	c0.03,1.79,0.11,3.42,0.27,4.94c0.16,1.55,0.39,3.05,0.7,4.57c0.31,1.5,0.68,2.97,1.06,4.32c0.38,1.35,0.75,2.56,1.05,3.54l0.21,0.7
	c0.44,1.43,0.7,2.27,0.82,2.78c0.08,0.34,0.08,0.71,0.08,2.63c0,0.91,0,2.19,0.05,4.29c0.04,1.73,0.12,3.48,0.28,4.77
	c0.2,1.6,0.53,2.81,1.02,3.86v0.01c0.54,1.14,1.2,1.95,2.04,2.76c0.79,0.75,1.76,1.52,2.92,2.17c0.98,0.55,2.1,1.04,3.36,1.38
	c1.32,0.36,2.69,0.55,4.1,0.65c1.18,0.08,2.62,0.11,4.09,0.14c1.33,0.02,2.7,0.05,4.06,0.06c1.35,0.01,2.62,0.01,3.72-0.01
	c1.25-0.03,2.28-0.08,3.09-0.18c1.04-0.13,1.95-0.34,2.78-0.68c0.67-0.27,1.19-0.57,1.63-0.87c0.49,0.23,1.11,0.5,1.9,0.77
	c10.97,3.89,23.11,1.87,33.84-1.62h0.01c1.59-0.51,1.89,0.75,3.68,1.62l0.01-0.01c0.77,0.37,1.64,0.69,2.75,0.94
	c1.03,0.23,2.23,0.42,3.7,0.54c1.52,0.13,3.48,0.22,5.69,0.2c1.82-0.02,3.68-0.12,5.44-0.33c1.98-0.24,3.93-0.62,5.71-1.09
	c1.91-0.5,3.62-1.12,4.97-1.77c1.5-0.73,2.6-1.52,3.44-2.37c0.94-0.95,1.53-1.92,1.94-2.91c0.39-0.94,0.62-1.88,0.74-3.06
	c0.1-0.95,0.12-2.1,0.11-3.64c-0.01-0.67-0.02-1.36-0.03-2.07c-0.04-2.45-0.09-5.38,0.08-7.56c0.12-1.64,0.37-2.77,0.67-4.11
	c0.2-0.89,0.41-1.86,0.64-3.1c0.33-1.82,0.65-4.18,0.88-6.74c0.2-2.21,0.33-4.48,0.33-6.57c0-2.34-0.14-4.62-0.39-6.74
	c-0.27-2.29-0.66-4.37-1.14-6.12c-0.49-1.8-1.08-3.31-1.79-4.58c-0.76-1.38-1.66-2.47-2.69-3.37c-1.45-1.25-3-1.98-4.21-2.55
	l-0.32-0.15c-0.06-0.41-0.11-1.05-0.19-1.96c-0.14-1.77-0.3-4.08-0.43-6.32c-0.16-2.64-0.29-5.21-0.36-6.88
	c-0.03-0.74-0.05-1.32-0.05-1.74l0.07-0.03c0.95-0.4,2.17-0.91,3.58-1.74c1.11-0.66,2.3-1.5,3.56-2.53
	c1.18-0.97,2.42-2.09,3.66-3.35c1.28-1.29,2.6-2.74,3.83-4.41c1.25-1.69,2.42-3.6,3.36-5.76c0.94-2.15,1.62-4.48,2.12-7
	c0.48-2.45,0.79-5.12,0.99-8.01c0.37-5.39,0.32-11.7,0.29-15.67l0-0.29c-0.01-1.85-0.02-3.11,0.02-4.02l0.02-0.49
	c0,0.02,0.01,0.02,0.02,0.01h0.01c0.12-0.07,0.25-0.15,0.64-0.41c0.62-0.41,1.31-0.93,1.98-1.59c0.71-0.7,1.4-1.54,1.98-2.54
	c0.56-0.97,1.01-2.11,1.34-3.4c0.3-1.17,0.49-2.44,0.55-3.78C133.65,48.99,133.57,47.51,133.32,46.06"/>
<path class="st1" d="M33.72,190.78v-7.62c0-0.97-0.79-1.76-1.76-1.76h-0.35c-0.97,0-1.76,0.79-1.76,1.76v7.62
	c0,0.97,0.79,1.76,1.76,1.76h0.35C32.92,192.54,33.72,191.75,33.72,190.78"/>
<path class="st2" d="M69.82,170.26c-1.01-3.42-2.46-7.76-4.05-12.06c-1.43-3.86-2.95-7.63-4.32-10.59c-1.39-2.99-2.62-5.13-3.76-6.7
	c-1.04-1.43-1.97-2.34-2.85-3c-0.84-0.62-1.69-1.04-2.54-1.35c-0.55-0.2-1.08-0.36-1.61-0.51c-0.08,0.41-0.17,0.82-0.28,1.21
	c-0.44,1.58-1.15,3.01-2.13,4.36c-0.93,1.28-2.08,2.44-3.45,3.54c-1.42,1.14-3.14,2.27-5.07,3.17c-1.69,0.79-3.45-0.99-5.39-0.67
	c-2.05,0.35-3.98-0.7-6.17-0.98c-1.77-0.23-3.17-0.65-4.9-1.24c-0.13,2.08-0.8,7.81-0.33,10.7c0.34,2.07,0.93,4.49,1.7,7.13
	c0.79,2.71,1.81,5.67,2.98,8.73c1.19,3.11,2.49,6.19,3.76,8.9c1.23,2.63,2.47,5.01,3.58,6.83c1.01,1.66,1.88,2.76,2.7,3.54
	c5.99,8.03,27.62,4.75,31.98-2.42c0.53-0.86,1-1.9,1.37-3.05c0.35-1.1,0.61-2.3,0.74-3.56c0.13-1.3,0.11-2.68-0.15-4.49
	C71.32,175.83,70.76,173.45,69.82,170.26"/>
<path class="st3" d="M83.08,101.84c-1.62,0.66-3.2,1.23-4.77,1.7c-14.25,0.36-24-4.22-47.31-4.22c-1.99-0.6-1,2.86-3.09,1.96
	c-0.59-0.25-1.17-0.52-1.76-0.79c0.87,3.09,1.74,5.89,2.57,7.91c0.59,1.43,1.16,2.44,1.78,3.23c0.59,0.75,1.28,1.36,2.12,1.97
	c1.3,0.95,2.83,1.88,4.48,2.88c1.08,0.65,2.2,1.34,3.26,2.01c7.7,4.92,6.37,8.08,14.06,10.91c1.37,0.5,2.77,1.2,4.21,2.27
	c1.4,1.04,2.82,2.4,4.29,4.43c0.29,0.4,0.58,0.83,0.88,1.28c1.2-0.32,2.4-0.66,3.59-1.03c1.65-0.52,3.22-1.08,4.62-1.75v-0.01
	c1.39-0.66,2.65-1.42,3.74-2.33c1.08-0.9,2.05-1.97,2.85-3.24c0.83-1.32,1.51-2.92,2.09-4.82c0.61-2.01,1.06-4.28,1.39-6.83
	C82.68,112.85,82.91,107.41,83.08,101.84"/>
<path class="st1" d="M74.7,30.77c0.19-0.24,0.41-0.51,0.67-0.82c2.6-2.93,5.29-5.96,8.17-8.6l0.1-0.09
	c1.44-1.31,2.86-2.45,4.17-3.36c1.32-0.93,2.5-1.62,3.43-2.01c0.68-0.29,1.14-0.39,1.47-0.37c0.19,0.01,0.38,0.11,0.58,0.24
	c0.32,0.22,0.64,0.52,0.95,0.91c0.32,0.41,0.62,0.9,0.88,1.46c0.28,0.62,0.51,1.32,0.7,2.18c0.2,0.95,0.34,2.11,0.43,3.57
	c0.15,2.51,0.14,5.77,0.13,8.79c-0.01,2.08-0.02,0.47-0.02,2.34c0,1.76,0.02,3.39,0.1,5.04c0.01,0.3,0.03,0.6,0.05,0.9
	C87.71,40.46,79.92,36.6,74.7,30.77"/>
<path class="st4" d="M106.86,34.34c0.46-0.19,0.94-0.36,1.47-0.52c1.43-0.44,3.12-0.75,4.84-0.91c1.77-0.16,3.55-0.18,5.12-0.05
	c1.65,0.14,3.14,0.45,4.53,0.91c1.41,0.47,2.66,1.09,3.81,1.85c1.19,0.79,2.28,1.73,3.22,2.83c0.92,1.07,1.7,2.27,2.29,3.59
	c0.56,1.25,0.94,2.63,1.18,4.02c0.24,1.45,0.32,2.93,0.26,4.33c-0.06,1.34-0.24,2.61-0.55,3.78c-0.33,1.29-0.78,2.43-1.34,3.4
	c-0.58,1.01-1.27,1.85-1.98,2.54c-0.67,0.66-1.36,1.18-1.98,1.59c-0.4,0.26-0.52,0.34-0.64,0.41h-0.01c-0.01,0.01-0.02,0-0.02-0.01
	l-0.02,0.48c-0.04,0.91-0.03,2.17-0.02,4.02l0,0.28c0.03,3.97,0.08,10.29-0.29,15.68c-0.2,2.89-0.51,5.56-0.99,8.01
	c-0.49,2.52-1.18,4.84-2.11,7c-0.94,2.17-2.1,4.07-3.36,5.76c-1.23,1.66-2.55,3.12-3.83,4.41c-1.24,1.26-2.48,2.38-3.66,3.34
	c-1.26,1.03-2.46,1.88-3.56,2.53c-1.41,0.84-2.63,1.35-3.58,1.74l-0.07,0.03c0,0.42,0.02,0.99,0.05,1.74
	c0.07,1.66,0.2,4.23,0.36,6.88c0.13,2.24,0.29,4.55,0.43,6.32c0.07,0.91,0.13,1.55,0.19,1.96l0.32,0.15
	c1.21,0.57,2.77,1.29,4.22,2.55c1.03,0.9,1.93,1.98,2.69,3.36c0.71,1.28,1.3,2.78,1.79,4.58c0.47,1.75,0.87,3.83,1.14,6.12
	c0.25,2.12,0.39,4.41,0.39,6.74c0,2.09-0.13,4.36-0.33,6.57c-0.23,2.55-0.56,4.91-0.88,6.74c-0.22,1.23-0.44,2.2-0.64,3.09
	c-0.3,1.34-0.55,2.46-0.67,4.11c-0.16,2.17-0.12,5.1-0.08,7.56c0.01,0.72,0.02,1.4,0.03,2.07c0.01,1.54-0.01,2.68-0.11,3.64
	c-0.12,1.19-0.35,2.12-0.74,3.06c-0.41,0.99-1,1.96-1.94,2.91c-0.84,0.85-1.94,1.64-3.44,2.37c-1.35,0.65-3.06,1.27-4.97,1.77
	c-1.78,0.47-3.73,0.86-5.71,1.09c-1.75,0.21-3.62,0.31-5.44,0.33c-2.21,0.03-4.17-0.06-5.69-0.2c-1.47-0.13-2.67-0.31-3.7-0.54
	c-1.11-0.25-1.98-0.57-2.75-0.94l0,0.01c-1.79-0.87-2.09-2.13-3.68-1.62H76.4c-10.74,3.48-22.87,5.51-33.84,1.62
	c-0.78-0.28-1.4-0.55-1.9-0.78c-0.44,0.3-0.97,0.6-1.63,0.87c-0.84,0.33-1.74,0.55-2.78,0.67c-0.81,0.1-1.84,0.15-3.09,0.18
	c-1.09,0.02-2.37,0.02-3.72,0.01c-1.36-0.01-2.73-0.04-4.06-0.06c-1.47-0.03-2.91-0.05-4.09-0.14c-1.41-0.1-2.79-0.29-4.1-0.65
	c-1.26-0.34-2.38-0.83-3.36-1.38c-1.16-0.66-2.14-1.42-2.92-2.17c-0.84-0.8-1.5-1.62-2.04-2.76v-0.01
	c-0.49-1.05-0.82-2.26-1.02-3.86c-0.16-1.29-0.24-3.04-0.29-4.77c-0.05-2.11-0.05-3.38-0.05-4.29c0-1.92,0-2.3-0.08-2.63
	c-0.11-0.51-0.38-1.35-0.82-2.78l-0.22-0.7c-0.3-0.98-0.67-2.18-1.05-3.54c-0.38-1.35-0.75-2.82-1.06-4.31
	c-0.31-1.52-0.54-3.02-0.7-4.57c-0.16-1.52-0.24-3.14-0.27-4.93c-0.03-1.92,0.01-3.96,0.16-5.87c0.13-1.73,0.35-3.45,0.67-5.05
	c0.36-1.76,0.85-3.29,1.43-4.62c0.6-1.37,1.3-2.55,2.06-3.56c0.75-1,1.53-1.8,2.31-2.51c-1.18-1.53-2.17-3.1-2.98-4.69
	c-0.86-1.7-1.5-3.41-1.88-5.31c-0.38-1.88-0.5-3.86-0.33-6.09c0.17-2.35,0.67-5.06,1.63-7.86c0.82-2.36,1.96-4.77,3.52-7.05
	c2.64-3.86,6.39-7.29,10.36-10.63c-1.35-1.15-2.55-2.37-3.61-3.72c-1.28-1.63-2.32-3.4-3.16-5.43c-0.78-1.88-1.4-4-1.84-6.21
	c-0.47-2.3-0.76-4.69-0.86-6.98c-0.1-2.19-0.04-4.31,0.15-6.36c0.19-2.06,0.5-4.01,0.89-5.87c0.33-1.57,0.67-2.93,1.01-4.29
	c0.51-2.02,1.01-4.04,1.32-5.98c0.26-1.66,0.42-3.42,0.51-5.36c0.08-1.83,0.11-4.06,0.11-6.65c0-4.63,0.01-2.55,0-3.21
	c-0.02-4.33-0.03-8.99,0.18-12.47c0.14-2.35,0.38-4.26,0.72-5.88c0.36-1.73,0.83-3.14,1.4-4.39c0.59-1.29,1.29-2.44,2.07-3.42
	c0.84-1.05,1.79-1.94,2.82-2.63c1.18-0.79,2.46-1.35,4.09-1.45c1.45-0.1,3.08,0.19,5.05,1.03c1.71,0.73,3.75,1.91,5.94,3.45
	c2.02,1.42,4.19,3.16,6.38,5.15c4.13,3.76,8.32,8.46,12.52,13.2l0.27-0.02c0.93-0.07,2.03-0.12,3.22-0.15
	c1.13-0.03,2.26-0.03,3.33,0c1.14,0.03,2.11,0.07,2.91,0.14h0.01c4.18-4.73,8.36-9.41,12.48-13.16c2.19-1.99,4.36-3.73,6.38-5.15
	c2.19-1.54,4.24-2.72,5.94-3.45c1.98-0.84,3.61-1.13,5.05-1.03c1.64,0.11,2.91,0.66,4.09,1.45c1.03,0.69,1.98,1.57,2.82,2.63
	c0.78,0.98,1.48,2.13,2.07,3.42c0.57,1.25,1.04,2.65,1.4,4.39c0.34,1.62,0.58,3.53,0.72,5.88c0.21,3.48,0.19,8.14,0.18,12.47
	C106.86,34.06,106.86,33.06,106.86,34.34 M69.71,32.62v0.52c0,4.76-3.9,8.66-8.66,8.66s-8.66-3.9-8.66-8.66v-0.86
	c-0.57-0.51-1.06-1.31-2.04-2.43c-3.57-4.03-7.27-8.2-11.24-11.82l-0.14-0.12c-1.98-1.8-3.93-3.37-5.73-4.62
	c-1.82-1.28-3.44-2.23-4.72-2.77c-0.93-0.4-1.57-0.54-2.03-0.51c-0.26,0.02-0.53,0.14-0.81,0.33c-0.44,0.3-0.88,0.72-1.3,1.24
	c-0.45,0.56-0.85,1.23-1.21,2.01c-0.39,0.85-0.71,1.81-0.96,3c-0.27,1.31-0.47,2.9-0.59,4.91c-0.21,3.46-0.19,7.93-0.18,12.08
	c0.01,2.86,0.02,0.65,0.02,3.21c0,2.42-0.03,4.66-0.13,6.93c-0.1,2.17-0.28,4.18-0.59,6.11c-0.38,2.38-0.9,4.46-1.43,6.56
	c-0.35,1.38-0.7,2.77-0.96,4.03c-0.35,1.67-0.62,3.38-0.79,5.11c-0.16,1.74-0.22,3.56-0.13,5.47c0.09,1.95,0.33,3.99,0.73,5.94
	c0.36,1.77,0.85,3.47,1.48,4.98c0.62,1.48,1.35,2.75,2.24,3.89c0.9,1.15,2,2.21,3.31,3.25c1.33,1.05,2.86,2.07,4.49,3.02
	c1.78,1.04,3.67,1.98,5.53,2.79c1.76,0.76,3.54,1.42,5.37,1.97c1.8,0.54,3.59,0.97,5.39,1.27c3.69,0.63,7.53,0.82,9.88,0.93
	L56,99.05c4.21,0.21,5.45,0.21,9.66,0l0.12-0.01c2.35-0.11,6.19-0.3,9.88-0.93c1.8-0.31,3.59-0.73,5.38-1.27
	c1.83-0.56,3.61-1.21,5.37-1.97c1.86-0.81,3.75-1.76,5.53-2.79c1.63-0.95,3.16-1.96,4.48-3.02c1.32-1.05,2.41-2.11,3.32-3.25
	c0.89-1.13,1.63-2.4,2.24-3.89c0.62-1.51,1.12-3.21,1.48-4.98c0.4-1.95,0.64-3.98,0.73-5.94c0.09-1.91,0.04-3.73-0.13-5.47
	c-0.16-1.73-0.44-3.44-0.79-5.11c-0.26-1.26-0.61-2.65-0.96-4.03c-0.53-2.09-1.05-4.18-1.43-6.56c-0.31-1.94-0.49-3.94-0.59-6.11
	c-0.11-2.28-0.13-4.51-0.13-6.93c0-2.57,0.01-0.35,0.02-3.21c0.02-4.15,0.03-8.62-0.18-12.08c-0.12-2.02-0.32-3.61-0.59-4.91
	c-0.25-1.19-0.57-2.15-0.96-3c-0.36-0.78-0.76-1.45-1.21-2.01c-0.42-0.53-0.86-0.95-1.3-1.24c-0.28-0.19-0.54-0.31-0.8-0.33
	c-0.45-0.03-1.09,0.11-2.03,0.51c-1.28,0.54-2.9,1.49-4.72,2.77c-1.8,1.26-3.75,2.82-5.73,4.62c-3.53,3.21-7.11,7.14-10.7,11.19
	C71.47,29.98,70.47,32,69.71,32.62 M23.7,99.44c-3.27,2.79-6.26,5.62-8.28,8.56c-1.23,1.79-2.12,3.65-2.74,5.46
	c-0.75,2.16-1.13,4.29-1.27,6.16c-0.12,1.66-0.05,3.06,0.2,4.31c0.25,1.23,0.69,2.41,1.31,3.62c0.64,1.26,1.48,2.56,2.5,3.85
	c1.03,1.3,2.19,2.56,3.49,3.72c1.37,1.24,2.91,2.41,4.57,3.46c1.52,0.96,3.13,1.8,4.77,2.44c1.68,0.66,3.37,1.11,4.99,1.32
	c1.53,0.2,3.04,0.19,4.46-0.05c1.32-0.22,2.58-0.65,3.74-1.19c1.39-0.65,2.65-1.48,3.72-2.34c0.95-0.76,1.7-1.51,2.25-2.27
	c0.5-0.69,0.87-1.43,1.09-2.23v-0.01c0.24-0.85,0.33-1.77,0.2-2.68c-0.11-0.78-0.38-1.58-0.85-2.34c-0.58-0.92-1.46-1.82-2.5-2.68
	c-1.17-0.97-2.53-1.9-3.88-2.77c-1.11-0.71-2.14-1.33-3.13-1.94c-1.85-1.12-3.58-2.17-4.97-3.19c-1.31-0.96-2.41-1.93-3.43-3.22
	c-0.99-1.26-1.85-2.77-2.7-4.8C26.03,107.73,24.86,103.7,23.7,99.44 M127.07,62.05c0.02-0.15,0.13-0.49,0.02-0.21
	C127.08,61.85,127.08,61.91,127.07,62.05 M27.12,147.72c-0.13,2.08-0.13,4.35,0.35,7.24c0.34,2.07,0.92,4.5,1.7,7.13
	c0.8,2.71,1.81,5.68,2.98,8.73c1.19,3.11,2.49,6.19,3.76,8.9c1.23,2.63,2.47,5.01,3.58,6.83c1.01,1.66,1.88,2.77,2.7,3.54
	c5.99,8.03,27.62,4.75,31.98-2.42c0.53-0.86,1-1.9,1.37-3.05c0.35-1.1,0.61-2.3,0.74-3.56c0.13-1.3,0.11-2.69-0.15-4.5
	c-0.28-1.94-0.84-4.32-1.78-7.51c-1.01-3.42-2.46-7.76-4.05-12.05c-1.43-3.86-2.94-7.63-4.32-10.59c-1.39-2.99-2.62-5.13-3.76-6.7
	c-1.04-1.43-1.97-2.34-2.85-3c-0.84-0.62-1.69-1.04-2.54-1.35c-0.55-0.2-1.09-0.36-1.62-0.51c-0.08,0.41-0.17,0.82-0.28,1.21l0,0
	c-0.44,1.58-1.15,3.01-2.13,4.36c-0.93,1.28-2.08,2.44-3.45,3.54c-1.42,1.14-3.14,2.27-5.07,3.17c-1.69,0.79-3.53,1.42-5.46,1.74
	c-2.05,0.35-4.21,0.36-6.39,0.08C30.63,148.73,28.85,148.31,27.12,147.72 M36.22,193.45c-0.79-0.93-1.58-2.06-2.43-3.44
	c-1.21-1.98-2.56-4.58-3.92-7.48c-1.41-3.01-2.78-6.24-3.97-9.34c-1.2-3.14-2.26-6.27-3.13-9.23c-0.85-2.89-1.49-5.58-1.88-7.94
	c-0.8-4.84-0.5-8.09-0.2-11.33c-0.26-0.15-0.51-0.31-0.77-0.47c-1.93-1.22-3.77-2.62-5.43-4.12c-0.55,0.49-1.07,1.02-1.53,1.63
	c-0.46,0.61-0.89,1.34-1.27,2.23c-0.4,0.93-0.75,2.02-1.01,3.29c-0.25,1.23-0.43,2.68-0.54,4.21c-0.14,1.84-0.18,3.67-0.16,5.3
	c0.02,1.52,0.1,2.95,0.24,4.34c0.14,1.36,0.34,2.64,0.6,3.92c0.27,1.3,0.61,2.63,0.95,3.87c0.34,1.23,0.7,2.4,1,3.36l0.22,0.7
	c0.49,1.57,0.77,2.49,0.95,3.27c0.26,1.14,0.26,1.63,0.26,4.1c0,1.29,0,3.09,0.03,4.14c0.03,1.42,0.11,2.91,0.26,4.12
	c0.11,0.9,0.24,1.46,0.42,1.84l0.01,0c0.13,0.28,0.34,0.53,0.63,0.8c0.43,0.41,0.96,0.82,1.59,1.18c0.54,0.31,1.15,0.57,1.82,0.75
	c0.78,0.21,1.75,0.34,2.82,0.41c1.3,0.09,2.5,0.12,3.73,0.14c1.36,0.02,2.75,0.05,4.01,0.06c1.27,0.01,2.48,0.01,3.53-0.01
	c0.89-0.02,1.68-0.06,2.41-0.15C35.75,193.55,36.01,193.5,36.22,193.45 M94.49,98.74L94.49,98.74c-0.19,6.78-0.39,13.54-1.12,19.19
	c-0.38,2.95-0.91,5.57-1.6,7.87c-0.73,2.42-1.66,4.56-2.84,6.44c-1.2,1.92-2.63,3.51-4.23,4.84c-1.6,1.33-3.32,2.38-5.12,3.24
	l-0.01-0.01c-1.8,0.86-3.64,1.53-5.5,2.11c-0.75,0.23-1.51,0.46-2.28,0.67c0.08,0.17,0.16,0.35,0.25,0.53
	c1.46,3.14,3.05,7.09,4.53,11.08c1.61,4.36,3.12,8.86,4.18,12.47c1.04,3.52,1.66,6.2,1.99,8.44c0.35,2.37,0.36,4.26,0.18,6.09
	c-0.17,1.75-0.53,3.42-1.02,4.94c-0.54,1.68-1.24,3.2-2.02,4.49l-0.02,0.03c0.74,0.31,1.2,0.68,1.7,1.14l0.18,0.17
	c0.34,0.31,0.77,0.71,1.3,0.97v0.01c0.31,0.15,0.71,0.29,1.29,0.42c0.66,0.15,1.56,0.28,2.81,0.39c1.48,0.13,3.26,0.22,5.06,0.2
	c1.47-0.02,3.07-0.11,4.71-0.3c1.7-0.2,3.33-0.52,4.79-0.91c1.49-0.4,2.79-0.86,3.77-1.33c0.77-0.37,1.28-0.72,1.61-1.06
	c0.23-0.24,0.39-0.5,0.5-0.77c0.13-0.33,0.22-0.69,0.27-1.18c0.08-0.73,0.09-1.65,0.08-2.9c0-0.57-0.02-1.27-0.03-2.02
	c-0.04-2.68-0.1-5.88,0.08-8.16c0.15-2,0.46-3.39,0.83-5.05c0.18-0.83,0.39-1.73,0.58-2.83c0.3-1.66,0.6-3.81,0.8-6.13
	c0.17-1.86,0.28-3.9,0.28-6c0-2.12-0.12-4.14-0.34-5.99c-0.23-1.94-0.56-3.7-0.95-5.15c-0.35-1.3-0.73-2.3-1.16-3.07
	c-0.37-0.67-0.78-1.17-1.23-1.57c-0.76-0.66-1.84-1.17-2.67-1.56c-0.39-0.18-0.75-0.35-1.08-0.53c-1.27-0.68-2.03-1.31-2.61-2.96
	c-0.33-0.95-0.49-2.13-0.65-4.12c-0.12-1.53-0.28-3.93-0.43-6.45c-0.15-2.48-0.28-5.09-0.36-7.01c-0.08-1.98-0.08-3.16,0.09-4.07
	c0.36-1.9,1.1-2.64,2.44-3.38c0.52-0.29,1.01-0.49,1.59-0.74c0.76-0.32,1.73-0.72,2.75-1.33c0.85-0.51,1.78-1.16,2.75-1.96
	c0.99-0.81,2.05-1.77,3.14-2.87c1.09-1.1,2.2-2.32,3.21-3.68c0.99-1.33,1.89-2.81,2.6-4.43c0.71-1.64,1.26-3.52,1.67-5.64
	c0.43-2.19,0.71-4.58,0.89-7.18c0.37-5.33,0.32-11.38,0.29-15.19l0-0.29c-0.02-2.01-0.02-3.37,0.02-4.32
	c0.06-1.35,0.21-2.23,0.54-3.02c0.68-1.64,1.54-2.17,2.71-2.87l0-0.01l0.46-0.28c0.29-0.19,0.62-0.44,0.96-0.78
	c0.3-0.29,0.6-0.66,0.85-1.11c0.29-0.51,0.52-1.09,0.69-1.73c0.18-0.72,0.3-1.52,0.34-2.4c0.04-0.95-0.02-1.96-0.19-2.97
	c-0.14-0.85-0.38-1.68-0.71-2.43c-0.32-0.72-0.73-1.36-1.21-1.92c-0.54-0.62-1.17-1.17-1.87-1.63c-0.69-0.45-1.43-0.82-2.25-1.1
	c-0.85-0.28-1.82-0.47-2.96-0.57c-1.27-0.11-2.65-0.1-3.97,0.02c-1.26,0.12-2.48,0.33-3.49,0.64c-0.9,0.28-1.65,0.65-2.32,1.08
	c-0.37,0.24-0.72,0.48-1.05,0.74c0.01,0.5,0.03,0.98,0.05,1.44c0.09,1.94,0.25,3.69,0.51,5.36c0.31,1.95,0.82,3.96,1.32,5.98
	c0.34,1.36,0.68,2.72,1.01,4.29c0.39,1.86,0.7,3.8,0.89,5.87c0.19,2.05,0.25,4.17,0.15,6.36c-0.11,2.29-0.39,4.68-0.86,6.98
	c-0.45,2.2-1.06,4.32-1.84,6.21c-0.84,2.02-1.88,3.8-3.16,5.43c-1.26,1.61-2.72,3.04-4.41,4.38c-1.58,1.26-3.38,2.46-5.29,3.57
	C94.72,98.18,94.3,98.17,94.49,98.74 M61.47,105.85c4.84,0.33,8.67,4.36,8.67,9.29c0,4.23-2.83,7.81-6.7,8.94v-5.47
	c0-1.31-1.07-2.38-2.38-2.38H60.6c-1.31,0-2.38,1.07-2.38,2.38v5.47c-3.87-1.13-6.7-4.7-6.7-8.94c0-4.92,3.83-8.96,8.67-9.29
	c-1.37-0.01-2.78-0.06-4.5-0.14l-0.12-0.01c-2.54-0.12-6.68-0.33-10.69-1.01c-2.11-0.36-4.17-0.85-6.2-1.46
	c-1.99-0.6-4.02-1.35-6.1-2.26c-0.58-0.25-1.17-0.52-1.76-0.8c0.87,3.09,1.74,5.89,2.57,7.91c0.59,1.43,1.16,2.44,1.78,3.23
	c0.6,0.75,1.28,1.36,2.12,1.97c1.3,0.95,2.83,1.88,4.48,2.88c1.08,0.65,2.2,1.34,3.26,2.01c1.55,0.99,3.13,2.07,4.56,3.26
	c1.56,1.3,2.93,2.71,3.91,4.27c0.51,0.81,1.03,2.09,1.91,2.34c1.23,0.29,2.47,0.59,3.68,1.04c1.37,0.5,2.76,1.2,4.21,2.27
	c1.4,1.04,2.82,2.4,4.29,4.43c0.29,0.4,0.58,0.83,0.88,1.28c1.2-0.32,2.4-0.66,3.59-1.03c1.65-0.52,3.22-1.08,4.62-1.75v-0.01
	c1.39-0.66,2.65-1.42,3.74-2.33c1.08-0.9,2.05-1.97,2.85-3.24c0.83-1.32,1.51-2.92,2.08-4.82c0.61-2.01,1.06-4.29,1.39-6.83
	c0.59-4.52,0.82-9.96,0.99-15.54c-1.62,0.66-3.2,1.22-4.77,1.7c-2.02,0.61-4.08,1.1-6.19,1.46c-4.01,0.68-8.15,0.89-10.69,1.01
	l-0.12,0.01C64.26,105.79,62.84,105.84,61.47,105.85"/>
<path class="st4" d="M38.08,53.41h10.28c1.31,0,2.38,1.07,2.38,2.38v0.47c0,1.31-1.07,2.38-2.38,2.38H38.08
	c-1.31,0-2.38-1.07-2.38-2.38v-0.47C35.7,54.48,36.77,53.41,38.08,53.41"/>
<path class="st4" d="M73.02,53.41h10.28c1.31,0,2.38,1.07,2.38,2.38v0.47c0,1.31-1.07,2.38-2.38,2.38H73.02
	c-1.31,0-2.38-1.07-2.38-2.38v-0.47C70.64,54.48,71.71,53.41,73.02,53.41"/>
<path class="st1" d="M63.49,74.19v10.16c0,1.31-1.07,2.38-2.38,2.38h-0.47c-1.31,0-2.38-1.07-2.38-2.38v-9.74
	c-1.04-1.36-1.96-2.57-3.17-3.9c-2.07-2.27-3.1-3.59,0.92-3.39c2.77,0.14,5.68,0.19,8.45,0.09l0.21-0.01
	c2.53-0.12,4.92-0.31,2.31,2.6c-0.96,1.07-1.8,2.02-2.71,3.15C64.07,73.4,63.79,73.77,63.49,74.19"/>
<path class="st4" d="M37.04,153.03l18.56-6.25c3.02-1.02,4.69,3.94,1.67,4.95l-18.56,6.25C35.69,158.99,34.02,154.04,37.04,153.03"
	/>
<path class="st4" d="M41.62,166.2l18.56-6.25c3.02-1.02,4.69,3.94,1.67,4.95l-18.56,6.25C40.27,172.17,38.61,167.21,41.62,166.2"/>
<path class="st4" d="M46.21,179.37l18.56-6.25c3.02-1.02,4.69,3.94,1.67,4.95l-18.56,6.25C44.86,185.34,43.19,180.39,46.21,179.37"
	/>
<path class="st1" d="M46.19,30.77c-0.19-0.24-0.41-0.51-0.67-0.82c-2.6-2.93-5.29-5.96-8.17-8.6l-0.1-0.09
	c-1.44-1.31-2.86-2.45-4.16-3.36c-1.32-0.93-2.5-1.62-3.43-2.01c-0.68-0.29-1.14-0.39-1.47-0.37c-0.19,0.01-0.38,0.11-0.59,0.24
	c-0.32,0.22-0.64,0.52-0.95,0.91c-0.32,0.41-0.62,0.9-0.88,1.46c-0.28,0.62-0.51,1.32-0.7,2.18c-0.2,0.95-0.34,2.11-0.43,3.57
	c-0.15,2.51-0.14,5.77-0.13,8.79c0.01,2.08,0.01,0.47,0.01,2.34c0,1.76-0.02,3.39-0.1,5.04c-0.01,0.3-0.03,0.6-0.05,0.9
	C33.18,40.46,40.97,36.6,46.19,30.77"/>
<path class="st0" d="M38.34,121.86c-1.85-1.12-3.58-2.17-4.97-3.19c-1.31-0.96-2.41-1.93-3.43-3.22c-0.99-1.26-1.85-2.77-2.69-4.8
	c-1.21-2.92-2.38-6.95-3.54-11.21c-3.27,2.79-6.26,5.62-8.28,8.56c-1.23,1.79-2.12,3.65-2.74,5.46c-0.75,2.16-1.13,4.29-1.27,6.16
	c-0.12,1.66-0.05,3.06,0.2,4.31c0.25,1.23,0.69,2.4,1.31,3.62c0.64,1.26,1.48,2.56,2.5,3.85c1.03,1.3,2.19,2.56,3.49,3.72
	c1.37,1.24,2.91,2.41,4.57,3.46c1.52,0.96,3.13,1.8,4.77,2.44c1.68,0.66,3.37,1.11,4.99,1.32c1.53,0.2,3.04,0.19,4.46-0.05
	c1.32-0.22,2.58-0.65,3.74-1.19c1.39-0.65,2.65-1.48,3.72-2.34c0.95-0.76,1.7-1.51,2.25-2.27c0.5-0.69,0.87-1.43,1.09-2.23v-0.01
	c0.24-0.85,0.33-1.77,0.2-2.68c-0.1-0.78-0.37-1.58-0.85-2.34c-0.58-0.92-1.46-1.82-2.5-2.68c-1.17-0.97-2.53-1.9-3.88-2.77
	C40.36,123.09,39.33,122.46,38.34,121.86"/>
<path class="st1" d="M87.83,191.69v-7.62c0-0.97,0.79-1.76,1.76-1.76h0.35c0.97,0,1.76,0.79,1.76,1.76v7.62
	c0,0.97-0.79,1.76-1.76,1.76h-0.35C88.62,193.45,87.83,192.65,87.83,191.69"/>
<path class="st1" d="M97.47,190.48v-7.62c0-0.97,0.79-1.76,1.76-1.76h0.35c0.97,0,1.76,0.79,1.76,1.76v7.62
	c0,0.97-0.79,1.76-1.76,1.76h-0.35C98.26,192.24,97.47,191.45,97.47,190.48"/>
<path class="st1" d="M24.08,189.58v-7.62c0-0.97-0.79-1.76-1.76-1.76h-0.35c-0.97,0-1.76,0.79-1.76,1.76v7.62
	c0,0.97,0.79,1.76,1.76,1.76h0.35C23.29,191.34,24.08,190.55,24.08,189.58"/>
<path class="st1" d="M110.12,56.59v-7.62c0-0.97,0.79-1.76,1.76-1.76h0.35c0.97,0,1.76,0.79,1.76,1.76v7.62
	c0,0.97-0.79,1.76-1.76,1.76h-0.35C110.91,58.35,110.12,57.56,110.12,56.59"/>
<path class="st0" d="M60.77,124.88c5.31,0,9.64-4.33,9.64-9.64c0-5.31-4.33-9.64-9.64-9.64c-5.31,0-9.64,4.33-9.64,9.64
	C51.13,120.55,55.46,124.88,60.77,124.88"/>
<path class="st2" d="M59.04,124.72c-4.5-0.82-7.91-4.75-7.91-9.48c0-4.3,2.82-7.94,6.7-9.18c4.5,0.82,7.91,4.75,7.91,9.48
	C65.74,119.84,62.92,123.48,59.04,124.72"/>
<path class="st2" d="M51.96,31.8h18.52v8.89c0,4.89-4,8.88-8.89,8.88h-0.75c-4.89,0-8.89-4-8.89-8.88V31.8z"/>
</svg>
